{
.appVersion = "3120";
DisplayStrings = (
"NN/space HH/space OO/space oo/space ii/space \012ll/space uu/space nn/space ee/space mm\012nieeid/space niuuid/space \012TEHZZDIV/space \012AV\012\012ll/space nnlnnooloo\012/yacyr/ucyr/yacyr",

glyphs = (
{
glyphname = .notdef;
layers = (
{
background = {
paths = (
{
closed = 1;
nodes = (
"246 584 OFFCURVE",
"269 335 OFFCURVE",
"263 238 CURVE SMOOTH",
"259 159 OFFCURVE",
"227 -15 OFFCURVE",
"284 -103 CURVE",
"189 -76 LINE",
"271 -62 OFFCURVE",
"348 -58 OFFCURVE",
"444 -58 CURVE SMOOTH",
"485 -58 OFFCURVE",
"513 -85 OFFCURVE",
"513 -125 CURVE SMOOTH",
"513 -190 OFFCURVE",
"476 -229 OFFCURVE",
"401 -229 CURVE SMOOTH",
"312 -229 OFFCURVE",
"258 -240 OFFCURVE",
"211 -240 CURVE SMOOTH",
"182 -240 OFFCURVE",
"151 -224 OFFCURVE",
"136 -199 CURVE SMOOTH",
"63 -85 OFFCURVE",
"81 141 OFFCURVE",
"87 248 CURVE SMOOTH",
"93 351 OFFCURVE",
"74 608 OFFCURVE",
"96 735 CURVE SMOOTH",
"104 777 OFFCURVE",
"141 807 OFFCURVE",
"184 807 CURVE SMOOTH",
"255 807 OFFCURVE",
"279 748 OFFCURVE",
"270 703 CURVE SMOOTH"
);
},
{
closed = 1;
nodes = (
"467 94 OFFCURVE",
"405 405 OFFCURVE",
"430 729 CURVE",
"519 609 LINE",
"449 640 OFFCURVE",
"377 634 OFFCURVE",
"234 634 CURVE SMOOTH",
"175 634 OFFCURVE",
"127 689 OFFCURVE",
"128 749 CURVE SMOOTH",
"129 789 OFFCURVE",
"158 811 OFFCURVE",
"208 810 CURVE SMOOTH",
"278 808 OFFCURVE",
"371 806 OFFCURVE",
"451 806 CURVE SMOOTH",
"471 806 OFFCURVE",
"491 811 OFFCURVE",
"509 811 CURVE SMOOTH",
"566 811 OFFCURVE",
"610 772 OFFCURVE",
"606 715 CURVE SMOOTH",
"579 385 OFFCURVE",
"641 67 OFFCURVE",
"600 -169 CURVE SMOOTH",
"594 -201 OFFCURVE",
"572 -258 OFFCURVE",
"493 -258 CURVE",
"412 -258 OFFCURVE",
"415 -199 OFFCURVE",
"426 -137 CURVE SMOOTH"
);
}
);
};
layerId = "DC44E50C-9AA1-421C-802C-D4D023281425";
paths = (
{
closed = 1;
nodes = (
"188 805 OFFCURVE",
"170 816 OFFCURVE",
"153 816 CURVE SMOOTH",
"134 816 OFFCURVE",
"116 805 OFFCURVE",
"113 786 CURVE SMOOTH",
"92.558 645.974 OFFCURVE",
"112.135 358.564 OFFCURVE",
"106 242 CURVE SMOOTH",
"101 134 OFFCURVE",
"81 -99 OFFCURVE",
"143 -215 CURVE SMOOTH",
"149 -226 OFFCURVE",
"158 -234 OFFCURVE",
"173 -234 CURVE SMOOTH",
"243.673 -234 OFFCURVE",
"262.048 -224 OFFCURVE",
"467 -224 CURVE SMOOTH",
"505 -224 OFFCURVE",
"526 -213 OFFCURVE",
"526 -183 CURVE SMOOTH",
"526 -168 OFFCURVE",
"517 -155 OFFCURVE",
"485 -155 CURVE SMOOTH",
"397.173 -155 OFFCURVE",
"262.351 -159.693 OFFCURVE",
"168 -172 CURVE",
"205 -181 LINE",
"159 -60 OFFCURVE",
"171 140 OFFCURVE",
"176 238 CURVE SMOOTH",
"182.137 353.571 OFFCURVE",
"160.511 636.976 OFFCURVE",
"183 776 CURVE SMOOTH"
);
},
{
closed = 1;
nodes = (
"499 -251 OFFCURVE",
"511 -259 OFFCURVE",
"533 -259 CURVE SMOOTH",
"557 -259 OFFCURVE",
"573 -239 OFFCURVE",
"576 -222 CURVE SMOOTH",
"618 41 OFFCURVE",
"562 399 OFFCURVE",
"588 770 CURVE SMOOTH",
"590 792 OFFCURVE",
"576 808 OFFCURVE",
"554 808 CURVE SMOOTH",
"536 808 OFFCURVE",
"515 803 OFFCURVE",
"494 803 CURVE SMOOTH",
"383.272 803 OFFCURVE",
"258.022 817 OFFCURVE",
"160 817 CURVE SMOOTH",
"136 817 OFFCURVE",
"130 806 OFFCURVE",
"130 793 CURVE SMOOTH",
"130 764 OFFCURVE",
"152 747 OFFCURVE",
"180 747 CURVE SMOOTH",
"292.541 747 OFFCURVE",
"447.921 716.131 OFFCURVE",
"559 739 CURVE",
"518 774 LINE",
"493 407 OFFCURVE",
"551 49 OFFCURVE",
"506 -210 CURVE SMOOTH"
);
}
);
vertWidth = 0;
width = 700;
},
{
layerId = "0A0D3988-4955-4F5A-8D07-882FAAFF61A2";
paths = (
{
closed = 1;
nodes = (
"281 748 OFFCURVE",
"257 807 OFFCURVE",
"186 807 CURVE SMOOTH",
"143 807 OFFCURVE",
"106 777 OFFCURVE",
"98 735 CURVE SMOOTH",
"76 608 OFFCURVE",
"95 351 OFFCURVE",
"89 248 CURVE SMOOTH",
"83 141 OFFCURVE",
"65 -85 OFFCURVE",
"138 -199 CURVE SMOOTH",
"153 -224 OFFCURVE",
"184 -240 OFFCURVE",
"213 -240 CURVE SMOOTH",
"260 -240 OFFCURVE",
"314 -229 OFFCURVE",
"403 -229 CURVE SMOOTH",
"478 -229 OFFCURVE",
"515 -190 OFFCURVE",
"515 -125 CURVE SMOOTH",
"515 -85 OFFCURVE",
"487 -58 OFFCURVE",
"446 -58 CURVE SMOOTH",
"350 -58 OFFCURVE",
"273 -62 OFFCURVE",
"191 -76 CURVE",
"286 -103 LINE",
"229 -15 OFFCURVE",
"261 159 OFFCURVE",
"265 238 CURVE SMOOTH",
"271 335 OFFCURVE",
"248 584 OFFCURVE",
"272 703 CURVE SMOOTH"
);
},
{
closed = 1;
nodes = (
"417 -199 OFFCURVE",
"414 -258 OFFCURVE",
"495 -258 CURVE SMOOTH",
"574 -258 OFFCURVE",
"596 -201 OFFCURVE",
"602 -169 CURVE SMOOTH",
"643 67 OFFCURVE",
"581 385 OFFCURVE",
"608 715 CURVE SMOOTH",
"612 772 OFFCURVE",
"568 811 OFFCURVE",
"511 811 CURVE SMOOTH",
"493 811 OFFCURVE",
"473 806 OFFCURVE",
"453 806 CURVE SMOOTH",
"373 806 OFFCURVE",
"280 808 OFFCURVE",
"210 810 CURVE SMOOTH",
"160 811 OFFCURVE",
"131 789 OFFCURVE",
"130 749 CURVE SMOOTH",
"129 689 OFFCURVE",
"177 634 OFFCURVE",
"236 634 CURVE SMOOTH",
"379 634 OFFCURVE",
"449 635 OFFCURVE",
"527 643 CURVE",
"432 729 LINE",
"407 405 OFFCURVE",
"469 94 OFFCURVE",
"428 -137 CURVE SMOOTH"
);
}
);
vertWidth = 0;
width = 700;
}
);
},
{
glyphname = A;
layers = (
{
anchors = (
{
name = bottom;
position = "{355, 0}";
},
{
name = ogonek;
position = "{619, 0}";
},
{
name = ring;
position = "{401, 699}";
},
{
name = top;
position = "{401, 700}";
}
);
background = {
paths = (
{
closed = 0;
nodes = (
"145 572 LINE",
"149 393 OFFCURVE",
"110 210 OFFCURVE",
"118 34 CURVE",
"159 353 OFFCURVE",
"258 658 OFFCURVE",
"398 658 CURVE SMOOTH",
"564 658 OFFCURVE",
"467 251 OFFCURVE",
"615 1 CURVE SMOOTH"
);
},
{
closed = 0;
nodes = (
"75 266 LINE",
"256 336 OFFCURVE",
"421 367 OFFCURVE",
"687 372 CURVE SMOOTH"
);
},
{
closed = 1;
nodes = (
"144 0 LINE",
"222 214 LINE",
"516 214 LINE",
"593 0 LINE",
"663 0 LINE",
"402 700 LINE",
"336 700 LINE",
"74 0 LINE"
);
},
{
closed = 1;
nodes = (
"371 613 LINE",
"495 271 LINE",
"241 271 LINE",
"365 613 LINE"
);
}
);
};
layerId = "DC44E50C-9AA1-421C-802C-D4D023281425";
paths = (
{
closed = 1;
nodes = (
"619 -9 OFFCURVE",
"628 1 OFFCURVE",
"628 19 CURVE SMOOTH",
"628 71 OFFCURVE",
"569 165 OFFCURVE",
"543 397 CURVE SMOOTH",
"520 612 OFFCURVE",
"511 710 OFFCURVE",
"403 710 CURVE SMOOTH",
"338 710 OFFCURVE",
"287 650 OFFCURVE",
"223 519 CURVE",
"252 526 LINE",
"241 544 OFFCURVE",
"227 555 OFFCURVE",
"211 555 CURVE",
"195 555 OFFCURVE",
"187 541 OFFCURVE",
"186 520 CURVE SMOOTH",
"175 351 OFFCURVE",
"93 188 OFFCURVE",
"93 39 CURVE SMOOTH",
"93 3 OFFCURVE",
"106 -8 OFFCURVE",
"126 -8 CURVE SMOOTH",
"141 -8 OFFCURVE",
"148 5 OFFCURVE",
"151 25 CURVE SMOOTH",
"203 395 OFFCURVE",
"325 645 OFFCURVE",
"403 645 CURVE SMOOTH",
"456 645 OFFCURVE",
"462 568 OFFCURVE",
"481 392 CURVE SMOOTH",
"493 283 OFFCURVE",
"524 150 OFFCURVE",
"548 77 CURVE SMOOTH",
"568 15 OFFCURVE",
"579 -9 OFFCURVE",
"605 -9 CURVE SMOOTH"
);
},
{
closed = 1;
nodes = (
"160 194 OFFCURVE",
"182 265 OFFCURVE",
"607 265 CURVE SMOOTH",
"649 265 OFFCURVE",
"669 280.556 OFFCURVE",
"669 300 CURVE SMOOTH",
"669 320 OFFCURVE",
"659.612 330 OFFCURVE",
"623 330 CURVE SMOOTH",
"409 330 OFFCURVE",
"217 305 OFFCURVE",
"72 248 CURVE SMOOTH",
"50.192 239.078 OFFCURVE",
"44 231.125 OFFCURVE",
"44 218 CURVE SMOOTH",
"44 203.818 OFFCURVE",
"53 194 OFFCURVE",
"70 194 CURVE SMOOTH"
);
}
);
vertWidth = 0;
width = 713;
},
{
anchors = (
{
name = bottom;
position = "{424, 0}";
},
{
name = ogonek;
position = "{702, 0}";
},
{
name = ring;
position = "{424, 699}";
},
{
name = top;
position = "{424, 700}";
}
);
layerId = "0A0D3988-4955-4F5A-8D07-882FAAFF61A2";
paths = (
{
closed = 1;
nodes = (
"719 -11 OFFCURVE",
"742 10.379 OFFCURVE",
"742 51 CURVE SMOOTH",
"742 111.213 OFFCURVE",
"673.784 175.176 OFFCURVE",
"654 357 CURVE SMOOTH",
"625 610 OFFCURVE",
"581 711 OFFCURVE",
"433 711 CURVE SMOOTH",
"337.63 711 OFFCURVE",
"250 642 OFFCURVE",
"199 543 CURVE",
"266 566 LINE",
"239 605 OFFCURVE",
"205 616 OFFCURVE",
"176 616 CURVE SMOOTH",
"142 616 OFFCURVE",
"127 600 OFFCURVE",
"127 575 CURVE SMOOTH",
"127 443.794 OFFCURVE",
"79 332 OFFCURVE",
"79 160 CURVE SMOOTH",
"79 39 OFFCURVE",
"115 -8 OFFCURVE",
"184 -8 CURVE SMOOTH",
"225 -8 OFFCURVE",
"244 10 OFFCURVE",
"249 57 CURVE SMOOTH",
"285.868 353.887 OFFCURVE",
"367 538 OFFCURVE",
"425 538 CURVE SMOOTH",
"443 538 OFFCURVE",
"451 530 OFFCURVE",
"470 362 CURVE SMOOTH",
"482.398 259.958 OFFCURVE",
"506 121 OFFCURVE",
"557 54 CURVE SMOOTH",
"592 6 OFFCURVE",
"625 -11 OFFCURVE",
"671 -11 CURVE SMOOTH"
);
},
{
closed = 1;
nodes = (
"239 160 OFFCURVE",
"416 198 OFFCURVE",
"623 198 CURVE SMOOTH",
"699 198 OFFCURVE",
"750 239 OFFCURVE",
"750 296 CURVE SMOOTH",
"750 342 OFFCURVE",
"723 372 OFFCURVE",
"634 372 CURVE SMOOTH",
"405 372 OFFCURVE",
"225 343 OFFCURVE",
"85 305 CURVE SMOOTH",
"43.006 293.385 OFFCURVE",
"24 270 OFFCURVE",
"24 240 CURVE SMOOTH",
"24 192 OFFCURVE",
"56 160 OFFCURVE",
"134 160 CURVE SMOOTH"
);
}
);
vertWidth = 0;
width = 780;
}
);
unicode = 0041;
},
{
glyphname = B;
layers = (
{
anchors = (
{
name = bottom;
position = "{252, 0}";
},
{
name = top;
position = "{295, 700}";
}
);
backgroundImage = {
imagePath = B_.png;
transform = "{2.61189, 0, 0, 2.61189, -101.79, -300.368}";
};
layerId = "DC44E50C-9AA1-421C-802C-D4D023281425";
paths = (
{
closed = 1;
nodes = (
"151 419 OFFCURVE",
"155 482 OFFCURVE",
"177 597 CURVE SMOOTH",
"186 640 OFFCURVE",
"166 672 OFFCURVE",
"148 672 CURVE SMOOTH",
"127 672 OFFCURVE",
"122 666 OFFCURVE",
"118 645 CURVE SMOOTH",
"91 503 OFFCURVE",
"81 438 OFFCURVE",
"81 331 CURVE SMOOTH",
"81 151 OFFCURVE",
"142 -10 OFFCURVE",
"243 -10 CURVE SMOOTH",
"360 -10 OFFCURVE",
"509 94 OFFCURVE",
"509 193 CURVE SMOOTH",
"509 257 OFFCURVE",
"452 331 OFFCURVE",
"230 353 CURVE",
"231 331 LINE",
"457 386 OFFCURVE",
"535 465 OFFCURVE",
"535 525 CURVE SMOOTH",
"535 656 OFFCURVE",
"363 712 OFFCURVE",
"151 712 CURVE SMOOTH",
"86 712 OFFCURVE",
"49 696 OFFCURVE",
"49 670 CURVE SMOOTH",
"49 656 OFFCURVE",
"62 644 OFFCURVE",
"78 644 CURVE SMOOTH",
"99 644 OFFCURVE",
"150 644 OFFCURVE",
"198 644 CURVE SMOOTH",
"321 644 OFFCURVE",
"465 600 OFFCURVE",
"465 526 CURVE SMOOTH",
"465 472 OFFCURVE",
"321 406 OFFCURVE",
"189 379 CURVE SMOOTH",
"125 366 OFFCURVE",
"106 359 OFFCURVE",
"106 336 CURVE SMOOTH",
"106 305 OFFCURVE",
"132 298 OFFCURVE",
"169 299 CURVE SMOOTH",
"308 301 OFFCURVE",
"439 236 OFFCURVE",
"439 196 CURVE SMOOTH",
"439 137 OFFCURVE",
"335 59 OFFCURVE",
"251 59 CURVE SMOOTH",
"198 59 OFFCURVE",
"140 190 OFFCURVE",
"147 329 CURVE SMOOTH"
);
}
);
userData = {
com.typemytype.robofont.Image.Brightness = -0.3986;
com.typemytype.robofont.Image.Contrast = 1;
com.typemytype.robofont.Image.Saturation = 1;
com.typemytype.robofont.Image.Sharpness = 0.4;
};
vertWidth = 0;
width = 579;
},
{
anchors = (
{
name = bottom;
position = "{272, 0}";
},
{
name = top;
position = "{315, 700}";
}
);
layerId = "0A0D3988-4955-4F5A-8D07-882FAAFF61A2";
paths = (
{
closed = 1;
nodes = (
"226 425 OFFCURVE",
"228 456 OFFCURVE",
"235 535 CURVE SMOOTH",
"240 580 OFFCURVE",
"202 629 OFFCURVE",
"149 629 CURVE SMOOTH",
"125 629 OFFCURVE",
"92 613 OFFCURVE",
"83 579 CURVE SMOOTH",
"59 484 OFFCURVE",
"53 438 OFFCURVE",
"53 331 CURVE SMOOTH",
"53 147.801 OFFCURVE",
"128 -18 OFFCURVE",
"255 -18 CURVE SMOOTH",
"385.118 -18 OFFCURVE",
"571 47.172 OFFCURVE",
"571 222 CURVE SMOOTH",
"571 289 OFFCURVE",
"523 362 OFFCURVE",
"380 378 CURVE",
"389 323 LINE",
"563 386 OFFCURVE",
"597 463 OFFCURVE",
"597 525 CURVE SMOOTH",
"597 668 OFFCURVE",
"428.65 712 OFFCURVE",
"210 712 CURVE SMOOTH",
"73 712 OFFCURVE",
"25 668 OFFCURVE",
"25 589 CURVE SMOOTH",
"25 550 OFFCURVE",
"47 524 OFFCURVE",
"89 524 CURVE SMOOTH",
"109 524 OFFCURVE",
"158 528 OFFCURVE",
"204 528 CURVE SMOOTH",
"403.36 528 OFFCURVE",
"417 522 OFFCURVE",
"417 501 CURVE SMOOTH",
"417 461.667 OFFCURVE",
"228.429 397.555 OFFCURVE",
"177 383 CURVE SMOOTH",
"156 377 OFFCURVE",
"138 355 OFFCURVE",
"138 336 CURVE SMOOTH",
"138 293 OFFCURVE",
"164 262 OFFCURVE",
"201 263 CURVE SMOOTH",
"337.208 265.858 OFFCURVE",
"401 252 OFFCURVE",
"401 205 CURVE SMOOTH",
"401 180 OFFCURVE",
"321 153 OFFCURVE",
"273 153 CURVE SMOOTH",
"245 153 OFFCURVE",
"226 197 OFFCURVE",
"226 347 CURVE SMOOTH"
);
}
);
userData = {
com.typemytype.robofont.Image.Brightness = -0.3986;
com.typemytype.robofont.Image.Contrast = 1;
com.typemytype.robofont.Image.Saturation = 1;
com.typemytype.robofont.Image.Sharpness = 0.4;
};
vertWidth = 0;
width = 633;
},
{
associatedMasterId = "0A0D3988-4955-4F5A-8D07-882FAAFF61A2";
layerId = "A0743F3E-1174-4440-B899-5A964C47A274";
name = bg;
paths = (
{
closed = 1;
nodes = (
"226 198 OFFCURVE",
"226 347 CURVE SMOOTH",
"226 425 OFFCURVE",
"228 456 OFFCURVE",
"235 535 CURVE SMOOTH",
"240 580 OFFCURVE",
"202 629 OFFCURVE",
"149 629 CURVE SMOOTH",
"125 629 OFFCURVE",
"92 613 OFFCURVE",
"83 579 CURVE SMOOTH",
"59 484 OFFCURVE",
"53 438 OFFCURVE",
"53 331 CURVE SMOOTH",
"53 148 OFFCURVE",
"128 -18 OFFCURVE",
"255 -18 CURVE SMOOTH",
"381 -18 OFFCURVE",
"561 47 OFFCURVE",
"561 222 CURVE SMOOTH",
"561 289 OFFCURVE",
"513 362 OFFCURVE",
"370 378 CURVE",
"379 323 LINE",
"553 386 OFFCURVE",
"587 463 OFFCURVE",
"587 525 CURVE SMOOTH",
"587 668 OFFCURVE",
"423 712 OFFCURVE",
"210 712 CURVE SMOOTH",
"73 712 OFFCURVE",
"25 668 OFFCURVE",
"25 589 CURVE SMOOTH",
"25 550 OFFCURVE",
"47 524 OFFCURVE",
"89 524 CURVE SMOOTH",
"109 524 OFFCURVE",
"158 528 OFFCURVE",
"204 528 CURVE SMOOTH",
"394 528 OFFCURVE",
"407 522 OFFCURVE",
"407 501 CURVE SMOOTH",
"407 465 OFFCURVE",
"210 408 OFFCURVE",
"157 393 CURVE SMOOTH",
"136 387 OFFCURVE",
"118 359 OFFCURVE",
"118 336 CURVE SMOOTH",
"118 287 OFFCURVE",
"144 252 OFFCURVE",
"181 253 CURVE SMOOTH",
"324 256 OFFCURVE",
"391 244 OFFCURVE",
"391 204 CURVE SMOOTH",
"391 191 OFFCURVE",
"302 153 OFFCURVE",
"264 153 CURVE SMOOTH",
"252 153 OFFCURVE"
);
}
);
vertWidth = 0;
width = 623;
}
);
unicode = 0042;
},
{
glyphname = C;
layers = (
{
anchors = (
{
name = bottom;
position = "{332, 0}";
},
{
name = top;
position = "{375, 700}";
}
);
backgroundImage = {
imagePath = B_.png;
transform = "{2.61189, 0, 0, 2.61189, -677.79, -300.368}";
};
layerId = "DC44E50C-9AA1-421C-802C-D4D023281425";
paths = (
{
closed = 1;
nodes = (
"495 -10 OFFCURVE",
"568 87 OFFCURVE",
"568 136 CURVE SMOOTH",
"568 154 OFFCURVE",
"561 169 OFFCURVE",
"548 169 CURVE SMOOTH",
"515 169 OFFCURVE",
"495 55 OFFCURVE",
"335 55 CURVE SMOOTH",
"214 55 OFFCURVE",
"137 138 OFFCURVE",
"137 288 CURVE SMOOTH",
"137 471 OFFCURVE",
"246 646 OFFCURVE",
"404 646 CURVE SMOOTH",
"465 646 OFFCURVE",
"473 618 OFFCURVE",
"473 590 CURVE SMOOTH",
"473 558 OFFCURVE",
"466 530 OFFCURVE",
"496 530 CURVE SMOOTH",
"526 530 OFFCURVE",
"541 562 OFFCURVE",
"541 595 CURVE SMOOTH",
"541 665 OFFCURVE",
"504 711 OFFCURVE",
"406 711 CURVE SMOOTH",
"207 711 OFFCURVE",
"70 506 OFFCURVE",
"70 289 CURVE SMOOTH",
"70 121 OFFCURVE",
"143 -10 OFFCURVE",
"336 -10 CURVE SMOOTH"
);
}
);
userData = {
com.typemytype.robofont.Image.Brightness = -0.3986;
com.typemytype.robofont.Image.Sharpness = 0.4;
};
vertWidth = 0;
width = 618;
},
{
anchors = (
{
name = bottom;
position = "{332, 0}";
},
{
name = top;
position = "{379, 700}";
}
);
layerId = "0A0D3988-4955-4F5A-8D07-882FAAFF61A2";
paths = (
{
closed = 1;
nodes = (
"500.263 -10 OFFCURVE",
"581 60 OFFCURVE",
"581 148 CURVE SMOOTH",
"581 190 OFFCURVE",
"564 216 OFFCURVE",
"522 216 CURVE SMOOTH",
"470.337 216 OFFCURVE",
"461.02 157 OFFCURVE",
"356 157 CURVE SMOOTH",
"275 157 OFFCURVE",
"224 208.504 OFFCURVE",
"224 304 CURVE SMOOTH",
"224 411.13 OFFCURVE",
"297.895 524 OFFCURVE",
"404 524 CURVE SMOOTH",
"430 524 OFFCURVE",
"435 517 OFFCURVE",
"435 500 CURVE SMOOTH",
"435 477 OFFCURVE",
"454 459 OFFCURVE",
"483 459 CURVE SMOOTH",
"547 459 OFFCURVE",
"579 521 OFFCURVE",
"579 591 CURVE SMOOTH",
"579 667 OFFCURVE",
"538 711 OFFCURVE",
"435 711 CURVE SMOOTH",
"235 711 OFFCURVE",
"49 519 OFFCURVE",
"49 304 CURVE SMOOTH",
"49 121 OFFCURVE",
"160 -10 OFFCURVE",
"345 -10 CURVE SMOOTH"
);
}
);
userData = {
com.typemytype.robofont.Image.Brightness = -0.3986;
com.typemytype.robofont.Image.Sharpness = 0.4;
};
vertWidth = 0;
width = 621;
},
{
associatedMasterId = "0A0D3988-4955-4F5A-8D07-882FAAFF61A2";
layerId = "D063EFEF-83E3-4E2F-B7E6-328897B5BC1F";
name = bg;
paths = (
{
closed = 1;
nodes = (
"574 -10 OFFCURVE",
"672 54 OFFCURVE",
"672 148 CURVE SMOOTH",
"672 188 OFFCURVE",
"655 219 OFFCURVE",
"628 219 CURVE SMOOTH",
"590 219 OFFCURVE",
"520 157 OFFCURVE",
"387 157 CURVE SMOOTH",
"288 157 OFFCURVE",
"225 198 OFFCURVE",
"225 274 CURVE SMOOTH",
"225 394 OFFCURVE",
"341 524 OFFCURVE",
"495 524 CURVE SMOOTH",
"521 524 OFFCURVE",
"526 517 OFFCURVE",
"526 500 CURVE SMOOTH",
"526 480 OFFCURVE",
"538 465 OFFCURVE",
"561 465 CURVE SMOOTH",
"626 465 OFFCURVE",
"669 538 OFFCURVE",
"669 609 CURVE SMOOTH",
"669 671 OFFCURVE",
"631 711 OFFCURVE",
"536 711 CURVE SMOOTH",
"283 711 OFFCURVE",
"50 506 OFFCURVE",
"50 289 CURVE SMOOTH",
"50 115 OFFCURVE",
"172 -10 OFFCURVE",
"376 -10 CURVE SMOOTH"
);
},
{
closed = 1;
nodes = (
"544 -10 OFFCURVE",
"635 61 OFFCURVE",
"635 148 CURVE SMOOTH",
"635 190 OFFCURVE",
"618 216 OFFCURVE",
"576 216 CURVE SMOOTH",
"515 216 OFFCURVE",
"504 157 OFFCURVE",
"380 157 CURVE SMOOTH",
"281 157 OFFCURVE",
"218 198 OFFCURVE",
"218 274 CURVE SMOOTH",
"218 394 OFFCURVE",
"321 524 OFFCURVE",
"458 524 CURVE SMOOTH",
"484 524 OFFCURVE",
"489 517 OFFCURVE",
"489 500 CURVE SMOOTH",
"489 477 OFFCURVE",
"508 459 OFFCURVE",
"537 459 CURVE SMOOTH",
"601 459 OFFCURVE",
"633 521 OFFCURVE",
"633 591 CURVE SMOOTH",
"633 667 OFFCURVE",
"592 711 OFFCURVE",
"489 711 CURVE SMOOTH",
"262 711 OFFCURVE",
"43 504 OFFCURVE",
"43 284 CURVE SMOOTH",
"43 113 OFFCURVE",
"165 -10 OFFCURVE",
"369 -10 CURVE SMOOTH"
);
}
);
vertWidth = 0;
width = 703;
}
);
unicode = 0043;
},
{
glyphname = D;
layers = (
{
anchors = (
{
name = bottom;
position = "{212, 0}";
},
{
name = top;
position = "{347, 700}";
}
);
background = {
paths = (
{
closed = 0;
nodes = (
"91 551 LINE",
"183 617 OFFCURVE",
"292 634 OFFCURVE",
"358 634 CURVE SMOOTH",
"480 634 OFFCURVE",
"557 594 OFFCURVE",
"557 509 CURVE SMOOTH",
"557 239 OFFCURVE",
"321 49 OFFCURVE",
"245 49 CURVE SMOOTH",
"198 49 OFFCURVE",
"186 92 OFFCURVE",
"186 138 CURVE SMOOTH",
"186 248 OFFCURVE",
"192 372 OFFCURVE",
"209 559 CURVE SMOOTH"
);
}
);
};
layerId = "DC44E50C-9AA1-421C-802C-D4D023281425";
paths = (
{
closed = 1;
nodes = (
"401 -9 OFFCURVE",
"598 200 OFFCURVE",
"598 448 CURVE SMOOTH",
"598 610 OFFCURVE",
"501 709 OFFCURVE",
"345 709 CURVE SMOOTH",
"229 709 OFFCURVE",
"108 669 OFFCURVE",
"52 647 CURVE SMOOTH",
"37 641 OFFCURVE",
"32 630 OFFCURVE",
"32 618 CURVE SMOOTH",
"32 602 OFFCURVE",
"41 591 OFFCURVE",
"62 591 CURVE SMOOTH",
"123 591 OFFCURVE",
"171 644 OFFCURVE",
"335 644 CURVE SMOOTH",
"475 644 OFFCURVE",
"529 570 OFFCURVE",
"529 446 CURVE SMOOTH",
"529 227 OFFCURVE",
"364 44 OFFCURVE",
"156 51 CURVE",
"197 38 LINE",
"175 65 OFFCURVE",
"166 98 OFFCURVE",
"166 160 CURVE SMOOTH",
"166 375 OFFCURVE",
"190 486 OFFCURVE",
"190 583 CURVE SMOOTH",
"190 609 OFFCURVE",
"178 631 OFFCURVE",
"164 631 CURVE SMOOTH",
"144 631 OFFCURVE",
"135 617 OFFCURVE",
"130 578 CURVE SMOOTH",
"112 433 OFFCURVE",
"102 291 OFFCURVE",
"102 141 CURVE SMOOTH",
"102 49 OFFCURVE",
"145 -9 OFFCURVE",
"194 -9 CURVE SMOOTH"
);
}
);
vertWidth = 0;
width = 641;
},
{
anchors = (
{
name = bottom;
position = "{241, 0}";
},
{
name = top;
position = "{385, 700}";
}
);
layerId = "0A0D3988-4955-4F5A-8D07-882FAAFF61A2";
paths = (
{
closed = 1;
nodes = (
"435 -10 OFFCURVE",
"683 168 OFFCURVE",
"683 422 CURVE SMOOTH",
"683 580 OFFCURVE",
"565 709 OFFCURVE",
"351 709 CURVE SMOOTH",
"252 709 OFFCURVE",
"132 689 OFFCURVE",
"62 670 CURVE SMOOTH",
"29 661 OFFCURVE",
"15 632 OFFCURVE",
"15 607 CURVE SMOOTH",
"15 551 OFFCURVE",
"59 494 OFFCURVE",
"141 494 CURVE SMOOTH",
"195 494 OFFCURVE",
"242 532 OFFCURVE",
"358 532 CURVE SMOOTH",
"462 532 OFFCURVE",
"504 485 OFFCURVE",
"504 414 CURVE SMOOTH",
"504 299 OFFCURVE",
"398 186 OFFCURVE",
"177 145 CURVE",
"296 118 LINE",
"275 159 OFFCURVE",
"269 190 OFFCURVE",
"269 227 CURVE SMOOTH",
"269 309 OFFCURVE",
"274 427 OFFCURVE",
"269 519 CURVE SMOOTH",
"267 559 OFFCURVE",
"228 591 OFFCURVE",
"180 591 CURVE SMOOTH",
"119 591 OFFCURVE",
"96 574 OFFCURVE",
"95 532 CURVE SMOOTH",
"91 422 OFFCURVE",
"91 324 OFFCURVE",
"91 208 CURVE SMOOTH",
"91 100 OFFCURVE",
"150 -10 OFFCURVE",
"232 -10 CURVE SMOOTH"
);
}
);
vertWidth = 0;
width = 722;
},
{
associatedMasterId = "0A0D3988-4955-4F5A-8D07-882FAAFF61A2";
layerId = "EA8C7FAC-2FE1-46E2-B832-659BE09AF9B2";
name = bg;
paths = (
{
closed = 1;
nodes = (
"437 -10 OFFCURVE",
"678 210 OFFCURVE",
"678 462 CURVE SMOOTH",
"678 603 OFFCURVE",
"570 709 OFFCURVE",
"385 709 CURVE SMOOTH",
"250 709 OFFCURVE",
"78 659 OFFCURVE",
"26 622 CURVE SMOOTH",
"8 609 OFFCURVE",
"1 594 OFFCURVE",
"1 569 CURVE SMOOTH",
"1 513 OFFCURVE",
"47 473 OFFCURVE",
"136 473 CURVE SMOOTH",
"198 473 OFFCURVE",
"254 532 OFFCURVE",
"389 532 CURVE SMOOTH",
"479 532 OFFCURVE",
"499 506 OFFCURVE",
"499 454 CURVE SMOOTH",
"499 288 OFFCURVE",
"361 199 OFFCURVE",
"172 145 CURVE",
"272 109 LINE",
"268 150 OFFCURVE",
"264 183 OFFCURVE",
"264 206 CURVE SMOOTH",
"264 265 OFFCURVE",
"274 420 OFFCURVE",
"274 519 CURVE SMOOTH",
"274 559 OFFCURVE",
"236 591 OFFCURVE",
"188 591 CURVE SMOOTH",
"127 591 OFFCURVE",
"103 574 OFFCURVE",
"100 532 CURVE SMOOTH",
"91 410 OFFCURVE",
"86 302 OFFCURVE",
"86 174 CURVE SMOOTH",
"86 83 OFFCURVE",
"145 -10 OFFCURVE",
"227 -10 CURVE SMOOTH"
);
}
);
vertWidth = 0;
width = 717;
}
);
unicode = 0044;
},
{
glyphname = E;
layers = (
{
anchors = (
{
name = bottom;
position = "{361, 0}";
},
{
name = ogonek;
position = "{546, 37}";
},
{
name = top;
position = "{365, 700}";
}
);
background = {
paths = (
{
closed = 0;
nodes = (
"189 587 LINE",
"154 500 OFFCURVE",
"123 387 OFFCURVE",
"123 291 CURVE SMOOTH",
"123 166 OFFCURVE",
"202 53 OFFCURVE",
"339 53 CURVE SMOOTH",
"462 53 OFFCURVE",
"547 68 OFFCURVE",
"614 84 CURVE SMOOTH"
);
},
{
closed = 0;
nodes = (
"115 587 LINE",
"262 626 OFFCURVE",
"391 651 OFFCURVE",
"571 659 CURVE SMOOTH"
);
},
{
closed = 0;
nodes = (
"149 312 LINE",
"226 332 OFFCURVE",
"365 348 OFFCURVE",
"478 352 CURVE SMOOTH"
);
}
);
};
layerId = "DC44E50C-9AA1-421C-802C-D4D023281425";
paths = (
{
closed = 1;
nodes = (
"105 499 OFFCURVE",
"68 393 OFFCURVE",
"68 293 CURVE SMOOTH",
"68 119 OFFCURVE",
"175 -7 OFFCURVE",
"361 -7 CURVE SMOOTH",
"521.195 -7 OFFCURVE",
"592 52.023 OFFCURVE",
"592 91 CURVE SMOOTH",
"592 107 OFFCURVE",
"586 119 OFFCURVE",
"568 119 CURVE SMOOTH",
"541 119 OFFCURVE",
"517 58 OFFCURVE",
"357 58 CURVE SMOOTH",
"224 58 OFFCURVE",
"135 153 OFFCURVE",
"136 295 CURVE SMOOTH",
"137 401 OFFCURVE",
"181 512 OFFCURVE",
"244 602 CURVE SMOOTH",
"267 635 OFFCURVE",
"257 646 OFFCURVE",
"231 646 CURVE SMOOTH",
"199 646 OFFCURVE",
"174 609 OFFCURVE",
"149 569 CURVE SMOOTH"
);
},
{
closed = 1;
nodes = (
"219.554 295.969 OFFCURVE",
"343.231 314.406 OFFCURVE",
"429 320 CURVE SMOOTH",
"467 322 OFFCURVE",
"502 330 OFFCURVE",
"502 360 CURVE SMOOTH",
"502 376 OFFCURVE",
"492 386 OFFCURVE",
"456 386 CURVE SMOOTH",
"397.986 385.064 OFFCURVE",
"261.558 367.937 OFFCURVE",
"165 352 CURVE SMOOTH",
"122 345 OFFCURVE",
"98 330 OFFCURVE",
"98 312 CURVE SMOOTH",
"98 293 OFFCURVE",
"112 271 OFFCURVE",
"155 281 CURVE SMOOTH"
);
},
{
closed = 1;
nodes = (
"204.339 616 OFFCURVE",
"278.769 643 OFFCURVE",
"545 643 CURVE SMOOTH",
"578 643 OFFCURVE",
"590 660 OFFCURVE",
"590 683 CURVE SMOOTH",
"590 697 OFFCURVE",
"580 708 OFFCURVE",
"561 708 CURVE SMOOTH",
"438.482 708 OFFCURVE",
"248.165 698.041 OFFCURVE",
"114 676 CURVE SMOOTH",
"95 672 OFFCURVE",
"87 656 OFFCURVE",
"87 645 CURVE SMOOTH",
"87 627 OFFCURVE",
"101 616 OFFCURVE",
"128 616 CURVE SMOOTH"
);
}
);
vertWidth = 0;
width = 633;
},
{
anchors = (
{
name = bottom;
position = "{386, 0}";
},
{
name = ogonek;
position = "{621, 54}";
},
{
name = top;
position = "{386, 700}";
}
);
layerId = "0A0D3988-4955-4F5A-8D07-882FAAFF61A2";
paths = (
{
closed = 1;
nodes = (
"74 437 OFFCURVE",
"69 353 OFFCURVE",
"69 293 CURVE SMOOTH",
"69 130 OFFCURVE",
"163 -7 OFFCURVE",
"362 -7 CURVE SMOOTH",
"558 -7 OFFCURVE",
"664 45 OFFCURVE",
"664 139 CURVE SMOOTH",
"664 177 OFFCURVE",
"651 201 OFFCURVE",
"601 201 CURVE SMOOTH",
"559 201 OFFCURVE",
"484 168 OFFCURVE",
"362 168 CURVE SMOOTH",
"288 168 OFFCURVE",
"245 222 OFFCURVE",
"245 291 CURVE SMOOTH",
"245 402 OFFCURVE",
"269 500 OFFCURVE",
"269 542 CURVE SMOOTH",
"269 583 OFFCURVE",
"225 606 OFFCURVE",
"200 606 CURVE SMOOTH",
"149 606 OFFCURVE",
"110 577 OFFCURVE",
"96 523 CURVE SMOOTH"
);
},
{
closed = 1;
nodes = (
"271 251 OFFCURVE",
"344 264 OFFCURVE",
"478 272 CURVE SMOOTH",
"534 276 OFFCURVE",
"575 312 OFFCURVE",
"575 378 CURVE SMOOTH",
"575 432 OFFCURVE",
"559 444 OFFCURVE",
"489 444 CURVE SMOOTH",
"349 439 OFFCURVE",
"273 425 OFFCURVE",
"208 410 CURVE SMOOTH",
"171 401 OFFCURVE",
"143 364 OFFCURVE",
"143 322 CURVE SMOOTH",
"143 269 OFFCURVE",
"155 225 OFFCURVE",
"202 235 CURVE SMOOTH"
);
},
{
closed = 1;
nodes = (
"241 502 OFFCURVE",
"429 545 OFFCURVE",
"626 545 CURVE SMOOTH",
"657 545 OFFCURVE",
"667 568 OFFCURVE",
"667 597 CURVE SMOOTH",
"667 661 OFFCURVE",
"601 712 OFFCURVE",
"490 712 CURVE SMOOTH",
"404 712 OFFCURVE",
"232 698 OFFCURVE",
"91 652 CURVE SMOOTH",
"57 641 OFFCURVE",
"50 622 OFFCURVE",
"50 597 CURVE SMOOTH",
"50 546 OFFCURVE",
"95 502 OFFCURVE",
"181 502 CURVE SMOOTH"
);
}
);
vertWidth = 0;
width = 704;
}
);
unicode = 0045;
},
{
glyphname = F;
layers = (
{
anchors = (
{
name = bottom;
position = "{197, 0}";
},
{
name = top;
position = "{297, 700}";
}
);
background = {
paths = (
{
closed = 0;
nodes = (
"158 603 LINE",
"131 259 OFFCURVE",
"134 138 OFFCURVE",
"208 23 CURVE SMOOTH"
);
},
{
closed = 0;
nodes = (
"80 591 LINE",
"175 616 OFFCURVE",
"347 643 OFFCURVE",
"473 640 CURVE SMOOTH"
);
},
{
closed = 0;
nodes = (
"165 256 LINE",
"261 248 OFFCURVE",
"377 255 OFFCURVE",
"495 276 CURVE SMOOTH"
);
}
);
};
layerId = "DC44E50C-9AA1-421C-802C-D4D023281425";
paths = (
{
closed = 1;
nodes = (
"160 363 OFFCURVE",
"190 514 OFFCURVE",
"207 604 CURVE SMOOTH",
"211 632 OFFCURVE",
"210 652 OFFCURVE",
"192 652 CURVE SMOOTH",
"163 652 OFFCURVE",
"145 632 OFFCURVE",
"132 572 CURVE SMOOTH",
"112 483 OFFCURVE",
"95 376 OFFCURVE",
"95 294 CURVE SMOOTH",
"95 175 OFFCURVE",
"111 117 OFFCURVE",
"136 63 CURVE SMOOTH",
"161 8 OFFCURVE",
"175 -10 OFFCURVE",
"201 -10 CURVE SMOOTH",
"218 -10 OFFCURVE",
"227 4 OFFCURVE",
"227 22 CURVE SMOOTH",
"227 61 OFFCURVE",
"168 96 OFFCURVE",
"163 270 CURVE SMOOTH"
);
},
{
closed = 1;
nodes = (
"505 646 OFFCURVE",
"516 654 OFFCURVE",
"516 671 CURVE SMOOTH",
"516 695 OFFCURVE",
"495 711 OFFCURVE",
"455 711 CURVE SMOOTH",
"336 711 OFFCURVE",
"168 695 OFFCURVE",
"71 675 CURVE SMOOTH",
"50 670 OFFCURVE",
"43 658 OFFCURVE",
"43 642 CURVE SMOOTH",
"43 626 OFFCURVE",
"59 614 OFFCURVE",
"84 614 CURVE SMOOTH",
"128 614 OFFCURVE",
"260 646 OFFCURVE",
"472 646 CURVE SMOOTH"
);
},
{
closed = 1;
nodes = (
"241 313 OFFCURVE",
"283 315 OFFCURVE",
"381 322 CURVE SMOOTH",
"446 327 OFFCURVE",
"470 337 OFFCURVE",
"470 365 CURVE",
"470 385 OFFCURVE",
"458 389 OFFCURVE",
"418 389 CURVE SMOOTH",
"343 388 OFFCURVE",
"247 379 OFFCURVE",
"171 368 CURVE SMOOTH",
"129 362 OFFCURVE",
"118 351 OFFCURVE",
"118 326 CURVE SMOOTH",
"118 316 OFFCURVE",
"127 291 OFFCURVE",
"189 303 CURVE SMOOTH"
);
}
);
vertWidth = 0;
width = 559;
},
{
anchors = (
{
name = bottom;
position = "{260, 0}";
},
{
name = top;
position = "{321, 700}";
}
);
layerId = "0A0D3988-4955-4F5A-8D07-882FAAFF61A2";
paths = (
{
closed = 1;
nodes = (
"252 428 OFFCURVE",
"265 492 OFFCURVE",
"265 525 CURVE SMOOTH",
"265 556 OFFCURVE",
"248 589 OFFCURVE",
"197 589 CURVE SMOOTH",
"143 589 OFFCURVE",
"108 555 OFFCURVE",
"95 491 CURVE SMOOTH",
"85 437 OFFCURVE",
"78 381 OFFCURVE",
"78 294 CURVE SMOOTH",
"78 174 OFFCURVE",
"99 101 OFFCURVE",
"133 55 CURVE SMOOTH",
"170 3 OFFCURVE",
"219 -13 OFFCURVE",
"251 -13 CURVE SMOOTH",
"294 -13 OFFCURVE",
"314 13 OFFCURVE",
"314 46 CURVE SMOOTH",
"314 111 OFFCURVE",
"252 122 OFFCURVE",
"252 270 CURVE SMOOTH"
);
},
{
closed = 1;
nodes = (
"537 536 OFFCURVE",
"559 561 OFFCURVE",
"559 601 CURVE SMOOTH",
"559 662 OFFCURVE",
"496 708 OFFCURVE",
"426 708 CURVE SMOOTH",
"305 708 OFFCURVE",
"176 685 OFFCURVE",
"71 657 CURVE SMOOTH",
"34 647 OFFCURVE",
"16 625 OFFCURVE",
"16 594 CURVE SMOOTH",
"16 543 OFFCURVE",
"52 490 OFFCURVE",
"147 490 CURVE SMOOTH",
"189 490 OFFCURVE",
"294 536 OFFCURVE",
"481 536 CURVE SMOOTH"
);
},
{
closed = 1;
nodes = (
"252 195 OFFCURVE",
"365 212 OFFCURVE",
"449 218 CURVE SMOOTH",
"502 222 OFFCURVE",
"553 255 OFFCURVE",
"553 319 CURVE SMOOTH",
"553 362 OFFCURVE",
"534 387 OFFCURVE",
"477 387 CURVE SMOOTH",
"368 387 OFFCURVE",
"262 372 OFFCURVE",
"186 354 CURVE SMOOTH",
"148 344 OFFCURVE",
"107 293 OFFCURVE",
"107 250 CURVE SMOOTH",
"107 204 OFFCURVE",
"137 165 OFFCURVE",
"200 181 CURVE SMOOTH"
);
}
);
vertWidth = 0;
width = 594;
},
{
associatedMasterId = "0A0D3988-4955-4F5A-8D07-882FAAFF61A2";
layerId = "D32FCF99-F259-4CB6-A622-49AD3FCF84DD";
name = bg;
paths = (
{
closed = 1;
nodes = (
"262 428 OFFCURVE",
"274 514 OFFCURVE",
"274 547 CURVE SMOOTH",
"274 578 OFFCURVE",
"256 578 OFFCURVE",
"205 578 CURVE SMOOTH",
"151 578 OFFCURVE",
"118 555 OFFCURVE",
"104 484 CURVE SMOOTH",
"92 425 OFFCURVE",
"88 381 OFFCURVE",
"88 294 CURVE SMOOTH",
"88 174 OFFCURVE",
"109 88 OFFCURVE",
"145 47 CURVE SMOOTH",
"183 1 OFFCURVE",
"233 -13 OFFCURVE",
"267 -13 CURVE SMOOTH",
"306 -13 OFFCURVE",
"324 10 OFFCURVE",
"324 39 CURVE SMOOTH",
"324 106 OFFCURVE",
"262 117 OFFCURVE",
"262 270 CURVE SMOOTH"
);
},
{
closed = 1;
nodes = (
"554 536 OFFCURVE",
"569 557 OFFCURVE",
"569 593 CURVE SMOOTH",
"569 661 OFFCURVE",
"502 707 OFFCURVE",
"428 711 CURVE SMOOTH",
"309 717 OFFCURVE",
"163 677 OFFCURVE",
"66 651 CURVE SMOOTH",
"29 642 OFFCURVE",
"16 616 OFFCURVE",
"16 594 CURVE SMOOTH",
"16 548 OFFCURVE",
"60 490 OFFCURVE",
"157 490 CURVE SMOOTH",
"201 490 OFFCURVE",
"312 536 OFFCURVE",
"509 536 CURVE SMOOTH"
);
},
{
closed = 1;
nodes = (
"262 195 OFFCURVE",
"375 212 OFFCURVE",
"448 218 CURVE SMOOTH",
"495 222 OFFCURVE",
"563 258 OFFCURVE",
"563 327 CURVE SMOOTH",
"563 368 OFFCURVE",
"548 387 OFFCURVE",
"487 387 CURVE SMOOTH",
"378 387 OFFCURVE",
"272 372 OFFCURVE",
"196 354 CURVE SMOOTH",
"158 344 OFFCURVE",
"117 293 OFFCURVE",
"117 250 CURVE SMOOTH",
"117 204 OFFCURVE",
"147 165 OFFCURVE",
"210 181 CURVE SMOOTH"
);
}
);
vertWidth = 0;
width = 604;
}
);
unicode = 0046;
},
{
glyphname = G;
layers = (
{
anchors = (
{
name = bottom;
position = "{344, 0}";
},
{
name = top;
position = "{421, 700}";
}
);
background = {
paths = (
{
closed = 0;
nodes = (
"381 525 LINE",
"418 592 OFFCURVE",
"412 640 OFFCURVE",
"385 640 CURVE SMOOTH",
"299 640 OFFCURVE",
"101 396 OFFCURVE",
"101 236 CURVE SMOOTH",
"101 142 OFFCURVE",
"164 58 OFFCURVE",
"275 58 CURVE SMOOTH",
"381 58 OFFCURVE",
"548 166 OFFCURVE",
"602 337 CURVE",
"606 219 OFFCURVE",
"676 48 OFFCURVE",
"750 -59 CURVE SMOOTH"
);
},
{
closed = 0;
nodes = (
"275 58 LINE SMOOTH"
);
},
{
closed = 0;
nodes = (
"340 308 LINE",
"506 358 OFFCURVE",
"681 384 OFFCURVE",
"931 395 CURVE SMOOTH"
);
}
);
};
layerId = "DC44E50C-9AA1-421C-802C-D4D023281425";
paths = (
{
closed = 1;
nodes = (
"401 273 OFFCURVE",
"493 315 OFFCURVE",
"672 315 CURVE SMOOTH",
"701 315 OFFCURVE",
"714 330 OFFCURVE",
"714 344 CURVE SMOOTH",
"714 365 OFFCURVE",
"704 382 OFFCURVE",
"654 382 CURVE SMOOTH",
"568 382 OFFCURVE",
"476 367 OFFCURVE",
"382 345 CURVE SMOOTH",
"332 333 OFFCURVE",
"319 318 OFFCURVE",
"319 302 CURVE SMOOTH",
"319 285 OFFCURVE",
"329 273 OFFCURVE",
"353 273 CURVE SMOOTH"
);
},
{
closed = 1;
nodes = (
"672 -97 OFFCURVE",
"681 -88 OFFCURVE",
"681 -73 CURVE",
"681 -58 OFFCURVE",
"677 -41 OFFCURVE",
"661 -4 CURVE SMOOTH",
"628 69 OFFCURVE",
"605 171 OFFCURVE",
"605 297 CURVE SMOOTH",
"605 329 OFFCURVE",
"592 348 OFFCURVE",
"571 348 CURVE SMOOTH",
"539 348 OFFCURVE",
"523 336 OFFCURVE",
"509 302 CURVE SMOOTH",
"444 144 OFFCURVE",
"376 55 OFFCURVE",
"274 55 CURVE SMOOTH",
"193 55 OFFCURVE",
"133 116 OFFCURVE",
"133 237 CURVE SMOOTH",
"133 431 OFFCURVE",
"323 642 OFFCURVE",
"489 642 CURVE SMOOTH",
"566.538 642 OFFCURVE",
"488.655 540 OFFCURVE",
"535 540 CURVE SMOOTH",
"563 540 OFFCURVE",
"589 576 OFFCURVE",
"589 634 CURVE SMOOTH",
"589 674 OFFCURVE",
"562 708 OFFCURVE",
"495 708 CURVE SMOOTH",
"288 708 OFFCURVE",
"65 481 OFFCURVE",
"65 238 CURVE SMOOTH",
"65 66 OFFCURVE",
"156 -10 OFFCURVE",
"277 -10 CURVE SMOOTH",
"381 -10 OFFCURVE",
"482 50 OFFCURVE",
"569 290 CURVE",
"540 292 LINE",
"544 104 OFFCURVE",
"580 -2 OFFCURVE",
"600 -43 CURVE SMOOTH",
"617 -81 OFFCURVE",
"632 -97 OFFCURVE",
"657 -97 CURVE SMOOTH"
);
}
);
vertWidth = 0;
width = 742;
},
{
anchors = (
{
name = bottom;
position = "{400, 0}";
},
{
name = top;
position = "{451, 700}";
}
);
layerId = "0A0D3988-4955-4F5A-8D07-882FAAFF61A2";
paths = (
{
closed = 1;
nodes = (
"485 246 OFFCURVE",
"547 273 OFFCURVE",
"711 273 CURVE SMOOTH",
"777 273 OFFCURVE",
"805 320 OFFCURVE",
"805 371 CURVE SMOOTH",
"805 416 OFFCURVE",
"786 439 OFFCURVE",
"689 439 CURVE SMOOTH",
"573.632 437.028 OFFCURVE",
"484.659 423.598 OFFCURVE",
"406 400 CURVE SMOOTH",
"353.967 385.133 OFFCURVE",
"340 368 OFFCURVE",
"340 333 CURVE SMOOTH",
"340 282 OFFCURVE",
"381.538 246 OFFCURVE",
"430 246 CURVE SMOOTH"
);
},
{
closed = 1;
nodes = (
"755.182 -118 OFFCURVE",
"783 -95.075 OFFCURVE",
"783 -54 CURVE SMOOTH",
"783 -30.127 OFFCURVE",
"779.688 -20.469 OFFCURVE",
"757 28 CURVE SMOOTH",
"724 95 OFFCURVE",
"714 147 OFFCURVE",
"714 289 CURVE SMOOTH",
"714 313 OFFCURVE",
"699 322 OFFCURVE",
"663 322 CURVE SMOOTH",
"618 322 OFFCURVE",
"586 312 OFFCURVE",
"559 277 CURVE SMOOTH",
"498 198 OFFCURVE",
"402 162 OFFCURVE",
"309 162 CURVE SMOOTH",
"256 162 OFFCURVE",
"229 191.609 OFFCURVE",
"229 254 CURVE SMOOTH",
"229 364 OFFCURVE",
"340 514 OFFCURVE",
"458 514 CURVE SMOOTH",
"497 514 OFFCURVE",
"482 477 OFFCURVE",
"529 477 CURVE SMOOTH",
"594 477 OFFCURVE",
"638 539 OFFCURVE",
"638 608 CURVE SMOOTH",
"638 667 OFFCURVE",
"601 708 OFFCURVE",
"510 708 CURVE SMOOTH",
"273 708 OFFCURVE",
"40 479 OFFCURVE",
"40 237 CURVE SMOOTH",
"40 88 OFFCURVE",
"133 -10 OFFCURVE",
"292 -10 CURVE SMOOTH",
"403 -10 OFFCURVE",
"515 27 OFFCURVE",
"599 100 CURVE",
"550 124 LINE",
"564.773 32.408 OFFCURVE",
"580.948 -7.909 OFFCURVE",
"604 -48 CURVE SMOOTH",
"633.354 -94.288 OFFCURVE",
"662.938 -118 OFFCURVE",
"715 -118 CURVE SMOOTH"
);
}
);
vertWidth = 0;
width = 818;
}
);
unicode = 0047;
},
{
glyphname = H;
layers = (
{
anchors = (
{
name = bottom;
position = "{359, 0}";
},
{
name = top;
position = "{359, 700}";
}
);
background = {
paths = (
{
closed = 0;
nodes = (
"122 680 LINE",
"120 535 OFFCURVE",
"152 269 OFFCURVE",
"162 38 CURVE SMOOTH"
);
},
{
closed = 0;
nodes = (
"495 649 LINE",
"545 494 OFFCURVE",
"485 268 OFFCURVE",
"614 -51 CURVE SMOOTH"
);
},
{
closed = 0;
nodes = (
"122 680 LINE",
"120 535 OFFCURVE",
"152 269 OFFCURVE",
"162 38 CURVE SMOOTH"
);
},
{
closed = 0;
nodes = (
"495 649 LINE",
"545 494 OFFCURVE",
"485 268 OFFCURVE",
"614 -51 CURVE SMOOTH"
);
},
{
closed = 0;
nodes = (
"105 352 LINE",
"207 383 OFFCURVE",
"355 415 OFFCURVE",
"560 398 CURVE SMOOTH"
);
},
{
closed = 1;
nodes = (
"182 0 LINE",
"182 329 LINE",
"591 329 LINE",
"591 0 LINE",
"658 0 LINE",
"658 700 LINE",
"591 700 LINE",
"591 388 LINE",
"182 388 LINE",
"182 700 LINE",
"115 700 LINE",
"115 0 LINE"
);
}
);
};
layerId = "DC44E50C-9AA1-421C-802C-D4D023281425";
paths = (
{
closed = 1;
nodes = (
"177 -12 OFFCURVE",
"188 1 OFFCURVE",
"188 16 CURVE SMOOTH",
"188 167 OFFCURVE",
"193 386 OFFCURVE",
"193 610 CURVE SMOOTH",
"193 677 OFFCURVE",
"176 709 OFFCURVE",
"154 709 CURVE SMOOTH",
"135 709 OFFCURVE",
"126 698 OFFCURVE",
"126 674 CURVE SMOOTH",
"126 370 OFFCURVE",
"121 259 OFFCURVE",
"121 75 CURVE SMOOTH",
"121 10 OFFCURVE",
"143 -12 OFFCURVE",
"163 -12 CURVE SMOOTH"
);
},
{
closed = 1;
nodes = (
"617 -10 OFFCURVE",
"629 5 OFFCURVE",
"623 33 CURVE SMOOTH",
"610 112 OFFCURVE",
"605 176 OFFCURVE",
"604 233 CURVE SMOOTH",
"603 332 OFFCURVE",
"610 488 OFFCURVE",
"610 614 CURVE SMOOTH",
"610 672 OFFCURVE",
"591 704 OFFCURVE",
"571 704 CURVE SMOOTH",
"556 704 OFFCURVE",
"543 693 OFFCURVE",
"543 668 CURVE SMOOTH",
"543 581 OFFCURVE",
"536 450 OFFCURVE",
"536 311 CURVE SMOOTH",
"536 67 OFFCURVE",
"549 -10 OFFCURVE",
"605 -10 CURVE SMOOTH"
);
},
{
closed = 1;
nodes = (
"180.254 309 OFFCURVE",
"302 342 OFFCURVE",
"639 342 CURVE SMOOTH",
"665 342 OFFCURVE",
"681 353 OFFCURVE",
"681 371 CURVE SMOOTH",
"681 384 OFFCURVE",
"665 405 OFFCURVE",
"620 405 CURVE SMOOTH",
"441 405 OFFCURVE",
"274.959 393.816 OFFCURVE",
"87 371 CURVE SMOOTH",
"62 368 OFFCURVE",
"55 353 OFFCURVE",
"55 342 CURVE SMOOTH",
"55 323 OFFCURVE",
"67 309 OFFCURVE",
"106 309 CURVE SMOOTH"
);
}
);
vertWidth = 0;
width = 736;
},
{
anchors = (
{
name = bottom;
position = "{360, 0}";
},
{
name = top;
position = "{360, 700}";
}
);
layerId = "0A0D3988-4955-4F5A-8D07-882FAAFF61A2";
paths = (
{
closed = 1;
nodes = (
"237 -12 OFFCURVE",
"266 14.838 OFFCURVE",
"266 61 CURVE SMOOTH",
"266 192.731 OFFCURVE",
"262 384.88 OFFCURVE",
"262 580 CURVE SMOOTH",
"262 670 OFFCURVE",
"218 709 OFFCURVE",
"157 709 CURVE SMOOTH",
"99 709 OFFCURVE",
"73 681 OFFCURVE",
"73 612 CURVE SMOOTH",
"73 558 OFFCURVE",
"89 259 OFFCURVE",
"81 119 CURVE SMOOTH",
"76 31 OFFCURVE",
"125 -12 OFFCURVE",
"191 -12 CURVE SMOOTH"
);
},
{
closed = 1;
nodes = (
"629.949 -10 OFFCURVE",
"651 15 OFFCURVE",
"651 57 CURVE SMOOTH",
"651 118 OFFCURVE",
"632 146 OFFCURVE",
"632 233 CURVE SMOOTH",
"632 316 OFFCURVE",
"638 448 OFFCURVE",
"638 554 CURVE SMOOTH",
"638 655 OFFCURVE",
"595.944 704 OFFCURVE",
"538 704 CURVE SMOOTH",
"484.1 704 OFFCURVE",
"461 672 OFFCURVE",
"461 613 CURVE SMOOTH",
"461 534 OFFCURVE",
"453 417 OFFCURVE",
"453 239 CURVE SMOOTH",
"453 77 OFFCURVE",
"495.691 -10 OFFCURVE",
"582 -10 CURVE SMOOTH"
);
},
{
closed = 1;
nodes = (
"257 236 OFFCURVE",
"356 266 OFFCURVE",
"628 266 CURVE SMOOTH",
"659 266 OFFCURVE",
"677 289 OFFCURVE",
"677 324 CURVE SMOOTH",
"677 382 OFFCURVE",
"618 429 OFFCURVE",
"515 429 CURVE SMOOTH",
"365 429 OFFCURVE",
"210 427 OFFCURVE",
"67 383 CURVE SMOOTH",
"39 375 OFFCURVE",
"33 359 OFFCURVE",
"33 334 CURVE SMOOTH",
"33 283 OFFCURVE",
"70 236 OFFCURVE",
"196 236 CURVE SMOOTH"
);
}
);
vertWidth = 0;
width = 715;
}
);
unicode = 0048;
userData = {
KernOnName = H;
};
},
{
glyphname = I;
layers = (
{
anchors = (
{
name = bottom;
position = "{277, 0}";
},
{
name = ogonek;
position = "{443, 3}";
},
{
name = top;
position = "{277, 700}";
}
);
background = {
paths = (
{
closed = 0;
nodes = (
"94 608 LINE",
"250 632 OFFCURVE",
"428 620 OFFCURVE",
"525 634 CURVE SMOOTH"
);
},
{
closed = 0;
nodes = (
"115 42 LINE",
"261 84 OFFCURVE",
"384 105 OFFCURVE",
"569 105 CURVE SMOOTH"
);
},
{
closed = 0;
nodes = (
"322 108 LINE",
"318 302 OFFCURVE",
"342 392 OFFCURVE",
"354 601 CURVE SMOOTH"
);
}
);
};
layerId = "DC44E50C-9AA1-421C-802C-D4D023281425";
paths = (
{
closed = 1;
nodes = (
"137 -11 OFFCURVE",
"275 0 OFFCURVE",
"443 0 CURVE SMOOTH",
"493 0 OFFCURVE",
"514 18 OFFCURVE",
"514 40 CURVE SMOOTH",
"514 55 OFFCURVE",
"505 66 OFFCURVE",
"468 66 CURVE SMOOTH",
"313 66 OFFCURVE",
"174 61 OFFCURVE",
"62 49 CURVE SMOOTH",
"40 47 OFFCURVE",
"33 36 OFFCURVE",
"33 20 CURVE SMOOTH",
"33 1 OFFCURVE",
"46 -11 OFFCURVE",
"76 -11 CURVE SMOOTH"
);
},
{
closed = 1;
nodes = (
"150 615 OFFCURVE",
"182 639 OFFCURVE",
"417 639 CURVE SMOOTH",
"479 639 OFFCURVE",
"514 655 OFFCURVE",
"514 683 CURVE SMOOTH",
"514 700 OFFCURVE",
"504 705 OFFCURVE",
"471 705 CURVE SMOOTH",
"327 705 OFFCURVE",
"161 692 OFFCURVE",
"72 677 CURVE SMOOTH",
"41 671 OFFCURVE",
"33 655 OFFCURVE",
"33 643 CURVE SMOOTH",
"33 625 OFFCURVE",
"48 615 OFFCURVE",
"67 615 CURVE SMOOTH"
);
},
{
closed = 1;
nodes = (
"293 40 OFFCURVE",
"302 49 OFFCURVE",
"302 69 CURVE SMOOTH",
"302 305 OFFCURVE",
"319 496 OFFCURVE",
"319 595 CURVE SMOOTH",
"319 634 OFFCURVE",
"300 665 OFFCURVE",
"277 665 CURVE SMOOTH",
"258 665 OFFCURVE",
"252 651 OFFCURVE",
"252 624 CURVE SMOOTH",
"252 489 OFFCURVE",
"235 304 OFFCURVE",
"235 117 CURVE SMOOTH",
"235 70 OFFCURVE",
"252 40 OFFCURVE",
"278 40 CURVE SMOOTH"
);
}
);
vertWidth = 0;
width = 547;
},
{
anchors = (
{
name = bottom;
position = "{292, 0}";
},
{
name = ogonek;
position = "{479, 16}";
},
{
name = top;
position = "{292, 700}";
}
);
layerId = "0A0D3988-4955-4F5A-8D07-882FAAFF61A2";
paths = (
{
closed = 1;
nodes = (
"218 -11 OFFCURVE",
"302 0 OFFCURVE",
"404 0 CURVE SMOOTH",
"498 0 OFFCURVE",
"538 41 OFFCURVE",
"538 91 CURVE SMOOTH",
"538 132 OFFCURVE",
"515 164 OFFCURVE",
"413 164 CURVE SMOOTH",
"280 164 OFFCURVE",
"251 170 OFFCURVE",
"92 152 CURVE SMOOTH",
"48 147 OFFCURVE",
"27 122 OFFCURVE",
"27 88 CURVE SMOOTH",
"27 31 OFFCURVE",
"71 -11 OFFCURVE",
"181 -11 CURVE SMOOTH"
);
},
{
closed = 1;
nodes = (
"183 519 OFFCURVE",
"253 531 OFFCURVE",
"400 531 CURVE SMOOTH",
"478 531 OFFCURVE",
"537 572 OFFCURVE",
"537 635 CURVE SMOOTH",
"537 690 OFFCURVE",
"502 710 OFFCURVE",
"417 710 CURVE SMOOTH",
"342 710 OFFCURVE",
"231 702 OFFCURVE",
"111 687 CURVE SMOOTH",
"60 681 OFFCURVE",
"28 653 OFFCURVE",
"28 608 CURVE SMOOTH",
"28 560 OFFCURVE",
"55 519 OFFCURVE",
"134 519 CURVE SMOOTH"
);
},
{
closed = 1;
nodes = (
"342 120 OFFCURVE",
"365 143 OFFCURVE",
"365 189 CURVE SMOOTH",
"365 327 OFFCURVE",
"382 437 OFFCURVE",
"382 495 CURVE SMOOTH",
"382 545 OFFCURVE",
"333 585 OFFCURVE",
"274 585 CURVE SMOOTH",
"223 585 OFFCURVE",
"207 558 OFFCURVE",
"207 504 CURVE SMOOTH",
"207 422 OFFCURVE",
"192 310 OFFCURVE",
"192 197 CURVE SMOOTH",
"192 150 OFFCURVE",
"235 120 OFFCURVE",
"301 120 CURVE SMOOTH"
);
}
);
vertWidth = 0;
width = 565;
},
{
associatedMasterId = "0A0D3988-4955-4F5A-8D07-882FAAFF61A2";
layerId = "B41E96AF-D8C8-431E-A05D-B7DF00691C33";
name = bg;
paths = (
{
closed = 1;
nodes = (
"236 -11 OFFCURVE",
"329 0 OFFCURVE",
"442 0 CURVE SMOOTH",
"548 0 OFFCURVE",
"593 44 OFFCURVE",
"593 98 CURVE SMOOTH",
"593 135 OFFCURVE",
"570 164 OFFCURVE",
"467 164 CURVE SMOOTH",
"314 164 OFFCURVE",
"278 183 OFFCURVE",
"87 151 CURVE SMOOTH",
"51 145 OFFCURVE",
"32 118 OFFCURVE",
"32 88 CURVE SMOOTH",
"32 31 OFFCURVE",
"79 -11 OFFCURVE",
"195 -11 CURVE SMOOTH"
);
},
{
closed = 1;
nodes = (
"191 513 OFFCURVE",
"271 531 OFFCURVE",
"441 531 CURVE SMOOTH",
"513 531 OFFCURVE",
"578 573 OFFCURVE",
"578 635 CURVE SMOOTH",
"578 696 OFFCURVE",
"550 710 OFFCURVE",
"458 710 CURVE SMOOTH",
"372 710 OFFCURVE",
"251 701 OFFCURVE",
"116 682 CURVE SMOOTH",
"65 675 OFFCURVE",
"28 647 OFFCURVE",
"28 602 CURVE SMOOTH",
"28 554 OFFCURVE",
"55 513 OFFCURVE",
"134 513 CURVE SMOOTH"
);
},
{
closed = 1;
nodes = (
"360 120 OFFCURVE",
"383 143 OFFCURVE",
"383 189 CURVE SMOOTH",
"383 327 OFFCURVE",
"400 437 OFFCURVE",
"400 495 CURVE SMOOTH",
"400 545 OFFCURVE",
"351 585 OFFCURVE",
"292 585 CURVE SMOOTH",
"241 585 OFFCURVE",
"225 558 OFFCURVE",
"225 504 CURVE SMOOTH",
"225 422 OFFCURVE",
"210 310 OFFCURVE",
"210 197 CURVE SMOOTH",
"210 150 OFFCURVE",
"253 120 OFFCURVE",
"319 120 CURVE SMOOTH"
);
}
);
vertWidth = 0;
width = 621;
}
);
unicode = 0049;
},
{
glyphname = J;
layers = (
{
anchors = (
{
name = bottom;
position = "{289, 0}";
},
{
name = top;
position = "{289, 700}";
}
);
backgroundImage = {
imagePath = B_.png;
transform = "{2.61189, 0, 0, 2.61189, -1334.79, -291.368}";
};
layerId = "DC44E50C-9AA1-421C-802C-D4D023281425";
paths = (
{
closed = 1;
nodes = (
"429 -12 OFFCURVE",
"510 50 OFFCURVE",
"510 186 CURVE SMOOTH",
"510 300 OFFCURVE",
"468 496 OFFCURVE",
"421 622 CURVE SMOOTH",
"407 662 OFFCURVE",
"392 676 OFFCURVE",
"358 676 CURVE SMOOTH",
"332 676 OFFCURVE",
"334 644 OFFCURVE",
"346 615 CURVE SMOOTH",
"395 496 OFFCURVE",
"442 296 OFFCURVE",
"442 192 CURVE SMOOTH",
"442 97 OFFCURVE",
"402 53 OFFCURVE",
"279 53 CURVE SMOOTH",
"185 53 OFFCURVE",
"144 101 OFFCURVE",
"144 173 CURVE SMOOTH",
"144 217 OFFCURVE",
"176 232 OFFCURVE",
"176 258 CURVE SMOOTH",
"176 274 OFFCURVE",
"168 281 OFFCURVE",
"154 281 CURVE SMOOTH",
"123 281 OFFCURVE",
"76 221 OFFCURVE",
"76 161 CURVE SMOOTH",
"76 53 OFFCURVE",
"159 -12 OFFCURVE",
"279 -12 CURVE SMOOTH"
);
},
{
closed = 1;
nodes = (
"225 634 OFFCURVE",
"351 646 OFFCURVE",
"481 646 CURVE SMOOTH",
"514 646 OFFCURVE",
"531 657 OFFCURVE",
"531 676 CURVE SMOOTH",
"531 705 OFFCURVE",
"507 712 OFFCURVE",
"485 712 CURVE SMOOTH",
"339 712 OFFCURVE",
"265 700 OFFCURVE",
"160 700 CURVE SMOOTH",
"119 700 OFFCURVE",
"113 713 OFFCURVE",
"86 713 CURVE SMOOTH",
"68 713 OFFCURVE",
"58 703 OFFCURVE",
"58 687 CURVE SMOOTH",
"58 649 OFFCURVE",
"109 634 OFFCURVE",
"145 634 CURVE SMOOTH"
);
}
);
userData = {
com.typemytype.robofont.Image.Brightness = -0.3986;
com.typemytype.robofont.Image.Sharpness = 0.4;
};
vertWidth = 0;
width = 584;
},
{
anchors = (
{
name = bottom;
position = "{310, 0}";
},
{
name = top;
position = "{340, 700}";
}
);
layerId = "0A0D3988-4955-4F5A-8D07-882FAAFF61A2";
paths = (
{
closed = 1;
nodes = (
"484 -12 OFFCURVE",
"585 68 OFFCURVE",
"585 246 CURVE SMOOTH",
"585 336 OFFCURVE",
"546 502 OFFCURVE",
"513 591 CURVE SMOOTH",
"489 656 OFFCURVE",
"448 674 OFFCURVE",
"373 676 CURVE SMOOTH",
"339 676 OFFCURVE",
"311 644 OFFCURVE",
"325 607 CURVE SMOOTH",
"364 514 OFFCURVE",
"407 356 OFFCURVE",
"407 272 CURVE SMOOTH",
"407 195 OFFCURVE",
"379 161 OFFCURVE",
"294 161 CURVE SMOOTH",
"220 161 OFFCURVE",
"200 183 OFFCURVE",
"200 204 CURVE SMOOTH",
"200 234 OFFCURVE",
"226 258 OFFCURVE",
"226 289 CURVE SMOOTH",
"226 316 OFFCURVE",
"209 330 OFFCURVE",
"176 330 CURVE SMOOTH",
"71 330 OFFCURVE",
"31 232 OFFCURVE",
"31 171 CURVE SMOOTH",
"31 57 OFFCURVE",
"138 -12 OFFCURVE",
"294 -12 CURVE SMOOTH"
);
},
{
closed = 1;
nodes = (
"298 526 OFFCURVE",
"425 544 OFFCURVE",
"556 544 CURVE SMOOTH",
"602 544 OFFCURVE",
"626 565 OFFCURVE",
"626 604 CURVE SMOOTH",
"626 693 OFFCURVE",
"538 712 OFFCURVE",
"460 712 CURVE SMOOTH",
"360 712 OFFCURVE",
"309 700 OFFCURVE",
"237 700 CURVE SMOOTH",
"196 700 OFFCURVE",
"156 713 OFFCURVE",
"107 713 CURVE SMOOTH",
"75 713 OFFCURVE",
"57 691 OFFCURVE",
"57 657 CURVE SMOOTH",
"57 561 OFFCURVE",
"152 526 OFFCURVE",
"218 526 CURVE SMOOTH"
);
}
);
userData = {
com.typemytype.robofont.Image.Brightness = -0.3986;
com.typemytype.robofont.Image.Sharpness = 0.4;
};
vertWidth = 0;
width = 648;
}
);
unicode = 004A;
},
{
glyphname = K;
layers = (
{
anchors = (
{
name = bottom;
position = "{309, 0}";
},
{
name = top;
position = "{309, 700}";
}
);
background = {
paths = (
{
closed = 1;
nodes = (
"151 -11 OFFCURVE",
"161 0 OFFCURVE",
"161 19 CURVE SMOOTH",
"161 73 OFFCURVE",
"149 69 OFFCURVE",
"149 225 CURVE SMOOTH",
"149 332 OFFCURVE",
"174 467 OFFCURVE",
"174 552 CURVE SMOOTH",
"174 617 OFFCURVE",
"168 710 OFFCURVE",
"122 710 CURVE SMOOTH",
"107 710 OFFCURVE",
"95 700 OFFCURVE",
"95 676 CURVE SMOOTH",
"95 637 OFFCURVE",
"107 618 OFFCURVE",
"107 552 CURVE SMOOTH",
"107 484 OFFCURVE",
"83 346 OFFCURVE",
"83 187 CURVE SMOOTH",
"83 41 OFFCURVE",
"96 -11 OFFCURVE",
"135 -11 CURVE SMOOTH"
);
},
{
closed = 1;
nodes = (
"601 -11 OFFCURVE",
"609 -2 OFFCURVE",
"609 14 CURVE SMOOTH",
"609 36 OFFCURVE",
"588 51 OFFCURVE",
"559 56 CURVE SMOOTH",
"346 92 OFFCURVE",
"209 214 OFFCURVE",
"209 311 CURVE SMOOTH",
"209 376 OFFCURVE",
"310 514 OFFCURVE",
"502 622 CURVE SMOOTH",
"538 642 OFFCURVE",
"560 657 OFFCURVE",
"560 680 CURVE SMOOTH",
"560 697 OFFCURVE",
"550 705 OFFCURVE",
"532 705 CURVE SMOOTH",
"511 705 OFFCURVE",
"489 695 OFFCURVE",
"447 668 CURVE SMOOTH",
"297 580 OFFCURVE",
"149 448 OFFCURVE",
"149 308 CURVE SMOOTH",
"149 108 OFFCURVE",
"460 -11 OFFCURVE",
"581 -11 CURVE SMOOTH"
);
}
);
};
backgroundImage = {
imagePath = B_.png;
transform = "{2.61189, 0, 0, 2.61189, -1993.79, -300.368}";
};
layerId = "DC44E50C-9AA1-421C-802C-D4D023281425";
paths = (
{
closed = 1;
nodes = (
"151 -11 OFFCURVE",
"161 0 OFFCURVE",
"161 19 CURVE SMOOTH",
"161 73 OFFCURVE",
"149 69 OFFCURVE",
"149 225 CURVE SMOOTH",
"149 332 OFFCURVE",
"174 467 OFFCURVE",
"174 552 CURVE SMOOTH",
"174 617 OFFCURVE",
"168 710 OFFCURVE",
"122 710 CURVE SMOOTH",
"107 710 OFFCURVE",
"95 700 OFFCURVE",
"95 676 CURVE SMOOTH",
"95 637 OFFCURVE",
"107 618 OFFCURVE",
"107 552 CURVE SMOOTH",
"107 484 OFFCURVE",
"83 346 OFFCURVE",
"83 187 CURVE SMOOTH",
"83 41 OFFCURVE",
"96 -11 OFFCURVE",
"135 -11 CURVE SMOOTH"
);
},
{
closed = 1;
nodes = (
"600 -11 OFFCURVE",
"609 -1 OFFCURVE",
"609 14 CURVE SMOOTH",
"609 34 OFFCURVE",
"599 42 OFFCURVE",
"537 59 CURVE SMOOTH",
"338 112 OFFCURVE",
"209 223 OFFCURVE",
"209 311 CURVE SMOOTH",
"209 380 OFFCURVE",
"307 503 OFFCURVE",
"501 617 CURVE SMOOTH",
"541 641 OFFCURVE",
"560 657 OFFCURVE",
"560 680 CURVE SMOOTH",
"560 697 OFFCURVE",
"550 705 OFFCURVE",
"532 705 CURVE SMOOTH",
"511 705 OFFCURVE",
"488 689 OFFCURVE",
"445 662 CURVE SMOOTH",
"269 556 OFFCURVE",
"149 422 OFFCURVE",
"149 308 CURVE SMOOTH",
"149 150 OFFCURVE",
"431 -11 OFFCURVE",
"575 -11 CURVE SMOOTH"
);
}
);
userData = {
com.typemytype.robofont.Image.Brightness = -0.3986;
com.typemytype.robofont.Image.Sharpness = 0.4;
};
vertWidth = 0;
width = 654;
},
{
anchors = (
{
name = bottom;
position = "{331, 0}";
},
{
name = top;
position = "{331, 700}";
}
);
layerId = "0A0D3988-4955-4F5A-8D07-882FAAFF61A2";
paths = (
{
closed = 1;
nodes = (
"210 -12 OFFCURVE",
"240 13 OFFCURVE",
"240 56 CURVE SMOOTH",
"240 99 OFFCURVE",
"229 131 OFFCURVE",
"229 193 CURVE SMOOTH",
"229 332 OFFCURVE",
"252 467 OFFCURVE",
"252 552 CURVE SMOOTH",
"252 617 OFFCURVE",
"238 711 OFFCURVE",
"137 711 CURVE SMOOTH",
"85 711 OFFCURVE",
"67 688 OFFCURVE",
"67 650 CURVE SMOOTH",
"67 620 OFFCURVE",
"77 598 OFFCURVE",
"77 537 CURVE SMOOTH",
"77 471 OFFCURVE",
"55 339 OFFCURVE",
"55 187 CURVE SMOOTH",
"55 40 OFFCURVE",
"79 -12 OFFCURVE",
"163 -12 CURVE SMOOTH"
);
},
{
closed = 1;
nodes = (
"671 -11 OFFCURVE",
"694 20.735 OFFCURVE",
"694 72 CURVE SMOOTH",
"694 119.646 OFFCURVE",
"672 151 OFFCURVE",
"629 163 CURVE SMOOTH",
"508.123 196.846 OFFCURVE",
"377 289 OFFCURVE",
"377 324 CURVE SMOOTH",
"377 364 OFFCURVE",
"462.121 466.761 OFFCURVE",
"542 521 CURVE SMOOTH",
"595 556 OFFCURVE",
"614 583.851 OFFCURVE",
"614 627 CURVE SMOOTH",
"614 690.604 OFFCURVE",
"581 713 OFFCURVE",
"535 713 CURVE SMOOTH",
"508 713 OFFCURVE",
"479 704 OFFCURVE",
"451 680 CURVE SMOOTH",
"338 586 OFFCURVE",
"209 424 OFFCURVE",
"209 292 CURVE SMOOTH",
"209 162 OFFCURVE",
"499 -11 OFFCURVE",
"613 -11 CURVE SMOOTH"
);
}
);
userData = {
com.typemytype.robofont.Image.Brightness = -0.3986;
com.typemytype.robofont.Image.Sharpness = 0.4;
};
vertWidth = 0;
width = 684;
},
{
associatedMasterId = "DC44E50C-9AA1-421C-802C-D4D023281425";
layerId = "A8CD20DC-8DAA-482D-9158-ECAA3B6813BD";
name = anotherone;
vertWidth = 0;
width = 600;
},
{
associatedMasterId = "0A0D3988-4955-4F5A-8D07-882FAAFF61A2";
layerId = "85A16825-8BD6-472B-93BC-ABCA6D867AF3";
name = bg;
paths = (
{
closed = 1;
nodes = (
"210 -12 OFFCURVE",
"240 13 OFFCURVE",
"240 56 CURVE SMOOTH",
"240 99 OFFCURVE",
"229 131 OFFCURVE",
"229 193 CURVE SMOOTH",
"229 332 OFFCURVE",
"252 467 OFFCURVE",
"252 552 CURVE SMOOTH",
"252 617 OFFCURVE",
"238 711 OFFCURVE",
"137 711 CURVE SMOOTH",
"85 711 OFFCURVE",
"67 688 OFFCURVE",
"67 650 CURVE SMOOTH",
"67 620 OFFCURVE",
"77 598 OFFCURVE",
"77 537 CURVE SMOOTH",
"77 471 OFFCURVE",
"55 339 OFFCURVE",
"55 187 CURVE SMOOTH",
"55 40 OFFCURVE",
"79 -12 OFFCURVE",
"163 -12 CURVE SMOOTH"
);
},
{
closed = 1;
nodes = (
"671 -11 OFFCURVE",
"694 21 OFFCURVE",
"694 72 CURVE SMOOTH",
"694 120 OFFCURVE",
"672 151 OFFCURVE",
"615 165 CURVE SMOOTH",
"451 207 OFFCURVE",
"369 285 OFFCURVE",
"369 317 CURVE SMOOTH",
"369 364 OFFCURVE",
"461 471 OFFCURVE",
"548 523 CURVE SMOOTH",
"603 555 OFFCURVE",
"614 578 OFFCURVE",
"614 617 CURVE SMOOTH",
"614 688 OFFCURVE",
"581 713 OFFCURVE",
"530 713 CURVE SMOOTH",
"508 713 OFFCURVE",
"480 703 OFFCURVE",
"450 682 CURVE SMOOTH",
"323 588 OFFCURVE",
"209 424 OFFCURVE",
"209 292 CURVE SMOOTH",
"209 102 OFFCURVE",
"500 -11 OFFCURVE",
"613 -11 CURVE SMOOTH"
);
}
);
vertWidth = 0;
width = 684;
}
);
unicode = 004B;
},
{
glyphname = L;
layers = (
{
anchors = (
{
name = bottom;
position = "{289, 0}";
},
{
name = top;
position = "{157, 700}";
}
);
backgroundImage = {
imagePath = B_.png;
transform = "{2.61189, 0, 0, 2.61189, -2674.79, -300.368}";
};
layerId = "DC44E50C-9AA1-421C-802C-D4D023281425";
paths = (
{
closed = 1;
nodes = (
"367.361 -9 OFFCURVE",
"437.641 6.18 OFFCURVE",
"499 35 CURVE SMOOTH",
"516 43 OFFCURVE",
"527 59 OFFCURVE",
"527 75 CURVE SMOOTH",
"527 91 OFFCURVE",
"517 101 OFFCURVE",
"500 101 CURVE SMOOTH",
"469.857 101 OFFCURVE",
"432 56 OFFCURVE",
"289 56 CURVE SMOOTH",
"185 56 OFFCURVE",
"144 130 OFFCURVE",
"144 244 CURVE SMOOTH",
"144 399 OFFCURVE",
"194 509 OFFCURVE",
"194 644 CURVE SMOOTH",
"194 691 OFFCURVE",
"179.739 710 OFFCURVE",
"153 710 CURVE SMOOTH",
"128.238 710 OFFCURVE",
"127 693 OFFCURVE",
"127 658 CURVE SMOOTH",
"127 523 OFFCURVE",
"76 408.879 OFFCURVE",
"76 251 CURVE SMOOTH",
"76 83 OFFCURVE",
"150.053 -9 OFFCURVE",
"286 -9 CURVE SMOOTH"
);
}
);
userData = {
com.typemytype.robofont.Image.Brightness = -0.3986;
com.typemytype.robofont.Image.Sharpness = 0.4;
};
vertWidth = 0;
width = 556;
},
{
anchors = (
{
name = bottom;
position = "{290, 0}";
},
{
name = top;
position = "{184, 700}";
}
);
layerId = "0A0D3988-4955-4F5A-8D07-882FAAFF61A2";
paths = (
{
closed = 1;
nodes = (
"353 -9 OFFCURVE",
"428 6 OFFCURVE",
"471 42 CURVE SMOOTH",
"506 72 OFFCURVE",
"519 111 OFFCURVE",
"519 153 CURVE SMOOTH",
"519 188 OFFCURVE",
"497 222 OFFCURVE",
"465 222 CURVE SMOOTH",
"403 222 OFFCURVE",
"396 164 OFFCURVE",
"297 164 CURVE SMOOTH",
"236.459 164 OFFCURVE",
"214 186 OFFCURVE",
"214 237 CURVE SMOOTH",
"214 300 OFFCURVE",
"271 457.15 OFFCURVE",
"271 594 CURVE SMOOTH",
"271 644 OFFCURVE",
"238 710 OFFCURVE",
"169 710 CURVE SMOOTH",
"111.564 710 OFFCURVE",
"89 676 OFFCURVE",
"89 629 CURVE SMOOTH",
"89 526 OFFCURVE",
"40 398 OFFCURVE",
"40 251 CURVE SMOOTH",
"40 78 OFFCURVE",
"123 -9 OFFCURVE",
"290 -9 CURVE SMOOTH"
);
}
);
userData = {
com.typemytype.robofont.Image.Brightness = -0.3986;
com.typemytype.robofont.Image.Sharpness = 0.4;
};
vertWidth = 0;
width = 536;
}
);
unicode = 004C;
},
{
glyphname = M;
layers = (
{
anchors = (
{
name = bottom;
position = "{459, 0}";
},
{
name = top;
position = "{491, 700}";
}
);
background = {
paths = (
{
closed = 1;
nodes = (
"144 466 LINE",
"166 630 OFFCURVE",
"209 709 OFFCURVE",
"278 709 CURVE SMOOTH",
"391 709 OFFCURVE",
"381 538 OFFCURVE",
"404 325 CURVE SMOOTH",
"415 222 OFFCURVE",
"417 83 OFFCURVE",
"486 49 CURVE",
"470 47 LINE",
"575 179 OFFCURVE",
"548 461 OFFCURVE",
"597 580 CURVE SMOOTH",
"632 665 OFFCURVE",
"671 703 OFFCURVE",
"723 703 CURVE SMOOTH",
"789 703 OFFCURVE",
"820 660 OFFCURVE",
"838 437 CURVE SMOOTH",
"849 296 OFFCURVE",
"855 161 OFFCURVE",
"900 46 CURVE SMOOTH",
"916 5 OFFCURVE",
"903 -9 OFFCURVE",
"880 -9 CURVE SMOOTH",
"858 -9 OFFCURVE",
"841 8 OFFCURVE",
"817 65 CURVE SMOOTH",
"786 143 OFFCURVE",
"772 302 OFFCURVE",
"765 431 CURVE SMOOTH",
"759 543 OFFCURVE",
"748 626 OFFCURVE",
"703 652 CURVE",
"738 647 LINE",
"601 581 OFFCURVE",
"667 259 OFFCURVE",
"556 50 CURVE SMOOTH",
"533 8 OFFCURVE",
"515 -9 OFFCURVE",
"477 -9 CURVE SMOOTH",
"444 -9 OFFCURVE",
"419 5 OFFCURVE",
"393 44 CURVE SMOOTH",
"352 109 OFFCURVE",
"339 233 OFFCURVE",
"324 387 CURVE SMOOTH",
"313 499 OFFCURVE",
"313 631 OFFCURVE",
"257 644 CURVE",
"292 645 LINE",
"223 625 OFFCURVE",
"174 326 OFFCURVE",
"174 24 CURVE SMOOTH",
"174 -1 OFFCURVE",
"162 -12 OFFCURVE",
"147 -12 CURVE SMOOTH",
"127 -12 OFFCURVE",
"100 7 OFFCURVE",
"100 104 CURVE SMOOTH",
"100 241 OFFCURVE",
"112 308 OFFCURVE",
"112 379 CURVE SMOOTH",
"112 551 OFFCURVE",
"74 585 OFFCURVE",
"74 622 CURVE SMOOTH",
"74 639 OFFCURVE",
"84 648 OFFCURVE",
"102 648 CURVE SMOOTH",
"141 648 OFFCURVE",
"170 576 OFFCURVE",
"177 478 CURVE"
);
}
);
};
backgroundImage = {
imagePath = B_.png;
transform = "{2.61189, 0, 0, 2.61189, -3165.79, -300.368}";
};
layerId = "DC44E50C-9AA1-421C-802C-D4D023281425";
paths = (
{
closed = 1;
nodes = (
"155 588 OFFCURVE",
"126 648 OFFCURVE",
"92 648 CURVE SMOOTH",
"74 648 OFFCURVE",
"64 638 OFFCURVE",
"64 619 CURVE SMOOTH",
"64 582 OFFCURVE",
"102 549 OFFCURVE",
"102 379 CURVE SMOOTH",
"102 300 OFFCURVE",
"90 226 OFFCURVE",
"90 74 CURVE SMOOTH",
"90 2 OFFCURVE",
"115 -12 OFFCURVE",
"134 -12 CURVE SMOOTH",
"151 -12 OFFCURVE",
"164 -1 OFFCURVE",
"164 24 CURVE SMOOTH",
"164 308 OFFCURVE",
"197 515 OFFCURVE",
"279 640 CURVE",
"256 640 LINE",
"288 577 OFFCURVE",
"302 497 OFFCURVE",
"314 387 CURVE SMOOTH",
"333 231 OFFCURVE",
"362 100 OFFCURVE",
"407 29 CURVE SMOOTH",
"425 2 OFFCURVE",
"438 -9 OFFCURVE",
"459 -9 CURVE SMOOTH",
"483 -9 OFFCURVE",
"490 2 OFFCURVE",
"503 32 CURVE SMOOTH",
"596 261 OFFCURVE",
"636 499 OFFCURVE",
"716 629 CURVE",
"705 634 LINE",
"726 574 OFFCURVE",
"731 533 OFFCURVE",
"738 429 CURVE SMOOTH",
"746 301 OFFCURVE",
"775 145 OFFCURVE",
"807 65 CURVE SMOOTH",
"831 8 OFFCURVE",
"848 -9 OFFCURVE",
"870 -9 CURVE SMOOTH",
"893 -9 OFFCURVE",
"907 8 OFFCURVE",
"889 49 CURVE SMOOTH",
"839 169 OFFCURVE",
"819 296 OFFCURVE",
"808 437 CURVE SMOOTH",
"790 662 OFFCURVE",
"761 703 OFFCURVE",
"719 703 CURVE SMOOTH",
"680 703 OFFCURVE",
"650 666 OFFCURVE",
"610 568 CURVE SMOOTH",
"563 450 OFFCURVE",
"505 213 OFFCURVE",
"437 54 CURVE",
"465 69 LINE",
"430 139 OFFCURVE",
"406 232 OFFCURVE",
"394 325 CURVE SMOOTH",
"366 538 OFFCURVE",
"344 709 OFFCURVE",
"271 709 CURVE SMOOTH",
"226 709 OFFCURVE",
"177 637 OFFCURVE",
"143 481 CURVE",
"167 478 LINE"
);
}
);
userData = {
com.typemytype.robofont.Image.Brightness = -0.3986;
com.typemytype.robofont.Image.Sharpness = 0.4;
};
vertWidth = 0;
width = 936;
},
{
anchors = (
{
name = bottom;
position = "{534, 0}";
},
{
name = top;
position = "{554, 700}";
}
);
layerId = "0A0D3988-4955-4F5A-8D07-882FAAFF61A2";
paths = (
{
closed = 1;
nodes = (
"220 581.154 OFFCURVE",
"181 642 OFFCURVE",
"116 642 CURVE SMOOTH",
"67 642 OFFCURVE",
"50 613 OFFCURVE",
"50 572 CURVE SMOOTH",
"50 536 OFFCURVE",
"62 490 OFFCURVE",
"62 444 CURVE SMOOTH",
"62 382.221 OFFCURVE",
"54 312.61 OFFCURVE",
"54 243 CURVE SMOOTH",
"54 45 OFFCURVE",
"84.881 -12 OFFCURVE",
"156 -12 CURVE SMOOTH",
"201 -12 OFFCURVE",
"229 9 OFFCURVE",
"233 67 CURVE SMOOTH",
"244 226 OFFCURVE",
"265 361 OFFCURVE",
"346 485 CURVE",
"332 487 LINE",
"356 431 OFFCURVE",
"363 379 OFFCURVE",
"375 300 CURVE SMOOTH",
"394 180 OFFCURVE",
"416 101 OFFCURVE",
"454 37 CURVE SMOOTH",
"473 4 OFFCURVE",
"495 -10 OFFCURVE",
"534 -10 CURVE SMOOTH",
"573 -10 OFFCURVE",
"596 5 OFFCURVE",
"613 51 CURVE SMOOTH",
"700 279 OFFCURVE",
"717 444 OFFCURVE",
"791 528 CURVE",
"731 555 LINE",
"758 510 OFFCURVE",
"767 462 OFFCURVE",
"772 407 CURVE SMOOTH",
"782.994 309.053 OFFCURVE",
"791.441 150.176 OFFCURVE",
"836 67 CURVE SMOOTH",
"863 17 OFFCURVE",
"897 -9 OFFCURVE",
"951 -9 CURVE SMOOTH",
"1019.971 -9 OFFCURVE",
"1043.901 42.245 OFFCURVE",
"1019 104 CURVE SMOOTH",
"983 194 OFFCURVE",
"964 338 OFFCURVE",
"948 486 CURVE SMOOTH",
"930.012 648.889 OFFCURVE",
"874.535 716 OFFCURVE",
"786 716 CURVE SMOOTH",
"702.093 716 OFFCURVE",
"655.354 642.603 OFFCURVE",
"615 565 CURVE SMOOTH",
"567 468 OFFCURVE",
"541 338 OFFCURVE",
"510 253 CURVE",
"575 215 LINE",
"539 298 OFFCURVE",
"541 363 OFFCURVE",
"511 504 CURVE SMOOTH",
"477 668 OFFCURVE",
"441.106 709 OFFCURVE",
"376 709 CURVE SMOOTH",
"302 709 OFFCURVE",
"240 624 OFFCURVE",
"195 513 CURVE",
"220 529 LINE"
);
}
);
userData = {
com.typemytype.robofont.Image.Brightness = -0.3986;
com.typemytype.robofont.Image.Sharpness = 0.4;
};
vertWidth = 0;
width = 1050;
},
{
associatedMasterId = "DC44E50C-9AA1-421C-802C-D4D023281425";
layerId = "214DBF78-FA30-4E2A-9C5E-E63338A950A5";
name = anotherone;
paths = (
{
closed = 1;
nodes = (
"825 52 OFFCURVE",
"848 71 OFFCURVE",
"848 95 CURVE SMOOTH",
"848 120 OFFCURVE",
"842 139 OFFCURVE",
"833 166 CURVE SMOOTH",
"814 224 OFFCURVE",
"776 345 OFFCURVE",
"757 487 CURVE SMOOTH",
"741 594 OFFCURVE",
"722 635 OFFCURVE",
"660 635 CURVE SMOOTH",
"593 635 OFFCURVE",
"567 521 OFFCURVE",
"420 251 CURVE",
"443 248 LINE",
"379 452 OFFCURVE",
"393 649 OFFCURVE",
"268 649 CURVE SMOOTH",
"230 649 OFFCURVE",
"187 611 OFFCURVE",
"165 539 CURVE",
"139 563 OFFCURVE",
"111 578 OFFCURVE",
"83 578 CURVE SMOOTH",
"54 578 OFFCURVE",
"44 558 OFFCURVE",
"44 536 CURVE SMOOTH",
"44 493 OFFCURVE",
"57 493 OFFCURVE",
"57 331 CURVE SMOOTH",
"57 139 OFFCURVE",
"73 77 OFFCURVE",
"132 77 CURVE SMOOTH",
"170 77 OFFCURVE",
"183 104 OFFCURVE",
"189 148 CURVE SMOOTH",
"204 243 OFFCURVE",
"222 378 OFFCURVE",
"294 463 CURVE",
"267 464 LINE",
"290 400 OFFCURVE",
"318 244 OFFCURVE",
"382 126 CURVE SMOOTH",
"406 81 OFFCURVE",
"421 72 OFFCURVE",
"452 72 CURVE SMOOTH",
"491 72 OFFCURVE",
"503 109 OFFCURVE",
"528 160 CURVE SMOOTH",
"559 225 OFFCURVE",
"617 341 OFFCURVE",
"662 427 CURVE",
"640 429 LINE",
"664 339 OFFCURVE",
"690 175 OFFCURVE",
"745 82 CURVE SMOOTH",
"755 64 OFFCURVE",
"775 52 OFFCURVE",
"797 52 CURVE SMOOTH"
);
}
);
vertWidth = 0;
width = 896;
},
{
associatedMasterId = "0A0D3988-4955-4F5A-8D07-882FAAFF61A2";
layerId = "C485385D-BE1B-48E5-B4BB-031535DF3B09";
name = bg;
paths = (
{
closed = 1;
nodes = (
"252 467 OFFCURVE",
"181 428 OFFCURVE",
"205 518 CURVE SMOOTH",
"237 627 OFFCURVE",
"293 709 OFFCURVE",
"360 709 CURVE SMOOTH",
"437 709 OFFCURVE",
"505 664 OFFCURVE",
"533 416 CURVE SMOOTH",
"542 355 OFFCURVE",
"536 309 OFFCURVE",
"560 228 CURVE SMOOTH",
"572 191 OFFCURVE",
"492 247 OFFCURVE",
"522 303 CURVE SMOOTH",
"545 346 OFFCURVE",
"569 472 OFFCURVE",
"606 566 CURVE SMOOTH",
"636 642 OFFCURVE",
"676 716 OFFCURVE",
"768 716 CURVE SMOOTH",
"843 716 OFFCURVE",
"926 696 OFFCURVE",
"937 470 CURVE SMOOTH",
"941 351 OFFCURVE",
"961 191 OFFCURVE",
"998 91 CURVE SMOOTH",
"1015 48 OFFCURVE",
"1008 -9 OFFCURVE",
"939 -9 CURVE SMOOTH",
"877 -9 OFFCURVE",
"837 13 OFFCURVE",
"804 68 CURVE SMOOTH",
"756 143 OFFCURVE",
"758 307 OFFCURVE",
"747 407 CURVE SMOOTH",
"742 462 OFFCURVE",
"733 510 OFFCURVE",
"706 555 CURVE SMOOTH",
"682 591 OFFCURVE",
"820 576 OFFCURVE",
"783 528 CURVE SMOOTH",
"742 476 OFFCURVE",
"693 283 OFFCURVE",
"605 44 CURVE SMOOTH",
"591 7 OFFCURVE",
"568 -9 OFFCURVE",
"533 -9 CURVE SMOOTH",
"503 -9 OFFCURVE",
"480 2 OFFCURVE",
"465 23 CURVE SMOOTH",
"423 79 OFFCURVE",
"396 181 OFFCURVE",
"382 301 CURVE SMOOTH",
"373 376 OFFCURVE",
"365 417 OFFCURVE",
"342 476 CURVE SMOOTH",
"316 548 OFFCURVE",
"399 544 OFFCURVE",
"350 473 CURVE SMOOTH",
"280 361 OFFCURVE",
"247 226 OFFCURVE",
"247 48 CURVE SMOOTH",
"247 6 OFFCURVE",
"219 -12 OFFCURVE",
"186 -12 CURVE SMOOTH",
"67 -12 OFFCURVE",
"62 138 OFFCURVE",
"62 243 CURVE SMOOTH",
"62 332 OFFCURVE",
"70 420 OFFCURVE",
"70 499 CURVE SMOOTH",
"70 547 OFFCURVE",
"58 594 OFFCURVE",
"58 632 CURVE SMOOTH",
"58 650 OFFCURVE",
"70 672 OFFCURVE",
"104 672 CURVE SMOOTH",
"194 672 OFFCURVE",
"248 601 OFFCURVE",
"248 541 CURVE"
);
}
);
vertWidth = 0;
width = 1041;
}
);
unicode = 004D;
},
{
glyphname = N;
layers = (
{
anchors = (
{
name = bottom;
position = "{384, 0}";
},
{
name = top;
position = "{384, 700}";
}
);
background = {
paths = (
{
closed = 0;
nodes = (
"100 54 LINE",
"155 219 OFFCURVE",
"138 474 OFFCURVE",
"115 638 CURVE",
"340 450 OFFCURVE",
"487 64 OFFCURVE",
"675 64 CURVE SMOOTH",
"762 64 OFFCURVE",
"689 433 OFFCURVE",
"745 678 CURVE SMOOTH"
);
}
);
};
layerId = "DC44E50C-9AA1-421C-802C-D4D023281425";
paths = (
{
closed = 1;
nodes = (
"135 -8 OFFCURVE",
"148 8 OFFCURVE",
"154 29 CURVE SMOOTH",
"182 114 OFFCURVE",
"193 217 OFFCURVE",
"193 342 CURVE SMOOTH",
"193 420 OFFCURVE",
"188 515 OFFCURVE",
"175 641 CURVE",
"164 637 LINE",
"353 486 OFFCURVE",
"374.478 -10 OFFCURVE",
"567 -10 CURVE SMOOTH",
"645 -10 OFFCURVE",
"658 96 OFFCURVE",
"658 242 CURVE SMOOTH",
"658 391 OFFCURVE",
"643 506 OFFCURVE",
"669 635 CURVE SMOOTH",
"676 672 OFFCURVE",
"663 705 OFFCURVE",
"638 705 CURVE SMOOTH",
"617 705 OFFCURVE",
"606 692 OFFCURVE",
"599 660 CURVE SMOOTH",
"572 538 OFFCURVE",
"588 394 OFFCURVE",
"588 237 CURVE SMOOTH",
"588 144 OFFCURVE",
"582 101 OFFCURVE",
"553 56 CURVE",
"576 68 LINE",
"432 66 OFFCURVE",
"354 710 OFFCURVE",
"156 710 CURVE SMOOTH",
"124 710 OFFCURVE",
"107 678 OFFCURVE",
"107 638 CURVE SMOOTH",
"107 605 OFFCURVE",
"123 457 OFFCURVE",
"123 342 CURVE SMOOTH",
"123 140 OFFCURVE",
"83 96 OFFCURVE",
"83 43 CURVE SMOOTH",
"83 4 OFFCURVE",
"99 -8 OFFCURVE",
"117 -8 CURVE SMOOTH"
);
}
);
vertWidth = 0;
width = 754;
},
{
anchors = (
{
name = bottom;
position = "{388, 0}";
},
{
name = top;
position = "{388, 700}";
}
);
layerId = "0A0D3988-4955-4F5A-8D07-882FAAFF61A2";
paths = (
{
closed = 1;
nodes = (
"179 -18 OFFCURVE",
"206 4 OFFCURVE",
"216 41 CURVE SMOOTH",
"236 114 OFFCURVE",
"247 217 OFFCURVE",
"247 342 CURVE SMOOTH",
"247 392 OFFCURVE",
"245 420 OFFCURVE",
"234 488 CURVE",
"203 482 LINE",
"358 257 OFFCURVE",
"405 -17 OFFCURVE",
"581 -17 CURVE SMOOTH",
"711 -17 OFFCURVE",
"732 92 OFFCURVE",
"732 242 CURVE SMOOTH",
"732 391 OFFCURVE",
"711 468 OFFCURVE",
"737 597 CURVE SMOOTH",
"746 640 OFFCURVE",
"730 715 OFFCURVE",
"646 715 CURVE SMOOTH",
"609 715 OFFCURVE",
"587 695 OFFCURVE",
"573 643 CURVE SMOOTH",
"537 508 OFFCURVE",
"570 388 OFFCURVE",
"570 227 CURVE SMOOTH",
"570 139 OFFCURVE",
"533 116 OFFCURVE",
"510 106 CURVE",
"609 152 LINE",
"479 236 OFFCURVE",
"380 710 OFFCURVE",
"140 710 CURVE SMOOTH",
"88 710 OFFCURVE",
"61 678 OFFCURVE",
"61 638 CURVE SMOOTH",
"61 605 OFFCURVE",
"77 457 OFFCURVE",
"77 342 CURVE SMOOTH",
"77 133 OFFCURVE",
"53 102 OFFCURVE",
"53 46 CURVE SMOOTH",
"53 13 OFFCURVE",
"73 -18 OFFCURVE",
"131 -18 CURVE SMOOTH"
);
}
);
vertWidth = 0;
width = 801;
},
{
associatedMasterId = "DC44E50C-9AA1-421C-802C-D4D023281425";
layerId = "7ED9DE5E-5FC7-4FDF-A793-37524C6140C2";
name = anotherone;
paths = (
{
closed = 1;
nodes = (
"151 -6 OFFCURVE",
"170 4 OFFCURVE",
"177 29 CURVE SMOOTH",
"203 108 OFFCURVE",
"217 220 OFFCURVE",
"217 342 CURVE SMOOTH",
"217 396 OFFCURVE",
"214 450 OFFCURVE",
"210 501 CURVE",
"179 488 LINE",
"256 404 OFFCURVE",
"403 182 OFFCURVE",
"511 82 CURVE SMOOTH",
"565 32 OFFCURVE",
"616 -6 OFFCURVE",
"700 -6 CURVE SMOOTH",
"764 -6 OFFCURVE",
"792 65 OFFCURVE",
"792 211 CURVE SMOOTH",
"792 545 OFFCURVE",
"823 556 OFFCURVE",
"823 639 CURVE SMOOTH",
"823 682 OFFCURVE",
"766 743 OFFCURVE",
"707 743 CURVE SMOOTH",
"665 743 OFFCURVE",
"642 690 OFFCURVE",
"639 544 CURVE SMOOTH",
"639 452 OFFCURVE",
"647 355 OFFCURVE",
"647 256 CURVE SMOOTH",
"647 149 OFFCURVE",
"619 125 OFFCURVE",
"596 108 CURVE",
"658 142 LINE",
"534 166 OFFCURVE",
"306 531 OFFCURVE",
"208 626 CURVE SMOOTH",
"173 659 OFFCURVE",
"146 676 OFFCURVE",
"107 676 CURVE SMOOTH",
"62 676 OFFCURVE",
"39 648 OFFCURVE",
"39 605 CURVE SMOOTH",
"39 511 OFFCURVE",
"57 433 OFFCURVE",
"57 355 CURVE SMOOTH",
"57 227 OFFCURVE",
"31 203 OFFCURVE",
"31 107 CURVE SMOOTH",
"31 43 OFFCURVE",
"71 -6 OFFCURVE",
"120 -6 CURVE SMOOTH"
);
}
);
vertWidth = 0;
width = 855;
}
);
unicode = 004E;
userData = {
KernOnName = N;
};
},
{
glyphname = O;
layers = (
{
anchors = (
{
name = bottom;
position = "{359, 0}";
},
{
name = ogonek;
position = "{485, 29}";
},
{
name = top;
position = "{359, 700}";
}
);
background = {
paths = (
{
closed = 0;
nodes = (
"331 588 LINE",
"157 462 OFFCURVE",
"100 400 OFFCURVE",
"100 285 CURVE SMOOTH",
"100 181 OFFCURVE",
"205 42 OFFCURVE",
"373 42 CURVE SMOOTH",
"549 42 OFFCURVE",
"735 161 OFFCURVE",
"735 295 CURVE SMOOTH",
"735 449 OFFCURVE",
"595 651 OFFCURVE",
"406 651 CURVE SMOOTH",
"294 651 OFFCURVE",
"288 539 OFFCURVE",
"343 486 CURVE SMOOTH"
);
}
);
};
layerId = "DC44E50C-9AA1-421C-802C-D4D023281425";
paths = (
{
closed = 1;
nodes = (
"303 584 OFFCURVE",
"322 605 OFFCURVE",
"305 630 CURVE SMOOTH",
"296 644 OFFCURVE",
"287 645 OFFCURVE",
"279 645 CURVE SMOOTH",
"245 645 OFFCURVE",
"70 519 OFFCURVE",
"70 290 CURVE SMOOTH",
"70 131 OFFCURVE",
"166 -10 OFFCURVE",
"347 -10 CURVE SMOOTH",
"535 -10 OFFCURVE",
"656 127 OFFCURVE",
"656 300 CURVE SMOOTH",
"656 526 OFFCURVE",
"550 711 OFFCURVE",
"354 711 CURVE SMOOTH",
"283 711 OFFCURVE",
"243 649 OFFCURVE",
"243 580 CURVE SMOOTH",
"243 551 OFFCURVE",
"262 535 OFFCURVE",
"280 535 CURVE SMOOTH",
"298 535 OFFCURVE",
"315 550 OFFCURVE",
"315 580 CURVE SMOOTH",
"315 617 OFFCURVE",
"326 646 OFFCURVE",
"361 646 CURVE SMOOTH",
"512 646 OFFCURVE",
"586 462 OFFCURVE",
"586 300 CURVE SMOOTH",
"586 151 OFFCURVE",
"484 56 OFFCURVE",
"347 56 CURVE SMOOTH",
"205 56 OFFCURVE",
"140 169 OFFCURVE",
"140 290 CURVE SMOOTH",
"140 443 OFFCURVE",
"225 533 OFFCURVE",
"276 567 CURVE SMOOTH"
);
}
);
vertWidth = 0;
width = 726;
},
{
anchors = (
{
name = bottom;
position = "{367, 0}";
},
{
name = ogonek;
position = "{510, 29}";
},
{
name = top;
position = "{367, 700}";
}
);
layerId = "0A0D3988-4955-4F5A-8D07-882FAAFF61A2";
paths = (
{
closed = 1;
nodes = (
"366 509 OFFCURVE",
"382 542 OFFCURVE",
"352 584 CURVE SMOOTH",
"333 611 OFFCURVE",
"316 619 OFFCURVE",
"282 619 CURVE SMOOTH",
"216 619 OFFCURVE",
"45 481 OFFCURVE",
"45 290 CURVE SMOOTH",
"45 105 OFFCURVE",
"184 -10 OFFCURVE",
"362 -10 CURVE SMOOTH",
"551 -10 OFFCURVE",
"711 123 OFFCURVE",
"711 300 CURVE SMOOTH",
"711 505 OFFCURVE",
"569 711 OFFCURVE",
"369 711 CURVE SMOOTH",
"274 711 OFFCURVE",
"220 661 OFFCURVE",
"220 606 CURVE SMOOTH",
"220 515 OFFCURVE",
"275 469 OFFCURVE",
"329 469 CURVE SMOOTH",
"355 469 OFFCURVE",
"371 484 OFFCURVE",
"371 512 CURVE SMOOTH",
"371 528 OFFCURVE",
"378 536 OFFCURVE",
"389 536 CURVE SMOOTH",
"460 536 OFFCURVE",
"535 411 OFFCURVE",
"535 300 CURVE SMOOTH",
"535 220 OFFCURVE",
"454.853 156 OFFCURVE",
"362 156 CURVE SMOOTH",
"280.694 156 OFFCURVE",
"218 199 OFFCURVE",
"218 290 CURVE SMOOTH",
"218 364.529 OFFCURVE",
"240 420 OFFCURVE",
"333 486 CURVE SMOOTH"
);
}
);
vertWidth = 0;
width = 756;
}
);
unicode = 004F;
userData = {
KernOnName = O;
};
},
{
glyphname = Ohorn;
layers = (
{
anchors = (
{
name = bottom;
position = "{359, 0}";
},
{
name = top;
position = "{359, 700}";
}
);
background = {
paths = (
{
closed = 1;
nodes = (
"597 642 OFFCURVE",
"636 663 OFFCURVE",
"636 698 CURVE SMOOTH",
"636 729 OFFCURVE",
"614 743 OFFCURVE",
"614 768 CURVE SMOOTH",
"614 786 OFFCURVE",
"624 798 OFFCURVE",
"642 798 CURVE SMOOTH",
"675 798 OFFCURVE",
"706 763 OFFCURVE",
"706 701 CURVE SMOOTH",
"706 629 OFFCURVE",
"643 584 OFFCURVE",
"552 584 CURVE SMOOTH",
"518 584 OFFCURVE",
"500 602 OFFCURVE",
"500 622 CURVE SMOOTH",
"500 632 OFFCURVE",
"507 642 OFFCURVE",
"519 642 CURVE SMOOTH"
);
}
);
};
components = (
{
name = O;
}
);
layerId = "DC44E50C-9AA1-421C-802C-D4D023281425";
paths = (
{
closed = 1;
nodes = (
"477 672 OFFCURVE",
"470 662 OFFCURVE",
"470 652 CURVE SMOOTH",
"470 630 OFFCURVE",
"484 610 OFFCURVE",
"510 610 CURVE SMOOTH",
"613 610 OFFCURVE",
"698 657 OFFCURVE",
"698 741 CURVE SMOOTH",
"698 803 OFFCURVE",
"666 838 OFFCURVE",
"632 838 CURVE SMOOTH",
"614 838 OFFCURVE",
"604 826 OFFCURVE",
"604 808 CURVE SMOOTH",
"604 783 OFFCURVE",
"626 769 OFFCURVE",
"626 738 CURVE SMOOTH",
"626 697 OFFCURVE",
"580 672 OFFCURVE",
"489 672 CURVE SMOOTH"
);
}
);
vertWidth = 0;
width = 726;
},
{
anchors = (
{
name = bottom;
position = "{367, 0}";
},
{
name = top;
position = "{367, 700}";
}
);
components = (
{
name = O;
}
);
layerId = "0A0D3988-4955-4F5A-8D07-882FAAFF61A2";
paths = (
{
closed = 1;
nodes = (
"488 660 OFFCURVE",
"470 645 OFFCURVE",
"470 601 CURVE SMOOTH",
"470 554.6 OFFCURVE",
"498.049 521 OFFCURVE",
"562 521 CURVE SMOOTH",
"700 521 OFFCURVE",
"772 583.86 OFFCURVE",
"772 680 CURVE SMOOTH",
"772 755.364 OFFCURVE",
"729.509 792 OFFCURVE",
"658 792 CURVE SMOOTH",
"612.123 792 OFFCURVE",
"587 769.959 OFFCURVE",
"587 738 CURVE SMOOTH",
"587 723 OFFCURVE",
"590 715 OFFCURVE",
"590 700 CURVE SMOOTH",
"590 672 OFFCURVE",
"561 660 OFFCURVE",
"521 660 CURVE SMOOTH"
);
}
);
vertWidth = 0;
width = 756;
}
);
unicode = 01A0;
},
{
glyphname = P;
layers = (
{
anchors = (
{
name = bottom;
position = "{171, 0}";
},
{
name = top;
position = "{299, 700}";
}
);
backgroundImage = {
imagePath = B_.png;
transform = "{2.61189, 0, 0, 2.61189, -4065.79, -300.368}";
};
layerId = "DC44E50C-9AA1-421C-802C-D4D023281425";
paths = (
{
closed = 1;
nodes = (
"138 8 OFFCURVE",
"152 -10 OFFCURVE",
"171 -10 CURVE SMOOTH",
"192 -10 OFFCURVE",
"205 4 OFFCURVE",
"205 25 CURVE SMOOTH",
"205 233 OFFCURVE",
"140 341 OFFCURVE",
"140 466 CURVE SMOOTH",
"140 581 OFFCURVE",
"193 643 OFFCURVE",
"298 643 CURVE SMOOTH",
"381 643 OFFCURVE",
"458 589 OFFCURVE",
"458 480 CURVE SMOOTH",
"458 389 OFFCURVE",
"377 308 OFFCURVE",
"256 308 CURVE SMOOTH",
"197 308 OFFCURVE",
"185 326 OFFCURVE",
"158 326 CURVE SMOOTH",
"147 326 OFFCURVE",
"139 318 OFFCURVE",
"139 303 CURVE SMOOTH",
"139 272 OFFCURVE",
"189 243 OFFCURVE",
"259 243 CURVE SMOOTH",
"416 243 OFFCURVE",
"525 360 OFFCURVE",
"525 480 CURVE SMOOTH",
"525 625 OFFCURVE",
"423 708 OFFCURVE",
"299 708 CURVE SMOOTH",
"141 708 OFFCURVE",
"73 610 OFFCURVE",
"73 466 CURVE SMOOTH",
"73 335 OFFCURVE",
"138 219 OFFCURVE",
"138 47 CURVE SMOOTH"
);
}
);
userData = {
com.typemytype.robofont.Image.Brightness = -0.3986;
com.typemytype.robofont.Image.Sharpness = 0.4;
};
vertWidth = 0;
width = 570;
},
{
anchors = (
{
name = bottom;
position = "{186, 0}";
},
{
name = top;
position = "{339, 700}";
}
);
layerId = "0A0D3988-4955-4F5A-8D07-882FAAFF61A2";
paths = (
{
closed = 1;
nodes = (
"80 30 OFFCURVE",
"128 -10 OFFCURVE",
"186 -10 CURVE SMOOTH",
"248 -10 OFFCURVE",
"258 34 OFFCURVE",
"258 97 CURVE SMOOTH",
"258 270 OFFCURVE",
"214 364.81 OFFCURVE",
"214 466 CURVE SMOOTH",
"214 509 OFFCURVE",
"255.642 533 OFFCURVE",
"338 533 CURVE SMOOTH",
"388.114 533 OFFCURVE",
"436 516 OFFCURVE",
"436 480 CURVE SMOOTH",
"436 415 OFFCURVE",
"365 348 OFFCURVE",
"284 348 CURVE SMOOTH",
"227 348 OFFCURVE",
"215 366 OFFCURVE",
"190 366 CURVE SMOOTH",
"155 366 OFFCURVE",
"127 344 OFFCURVE",
"127 303 CURVE SMOOTH",
"127 241.154 OFFCURVE",
"197 183 OFFCURVE",
"291 183 CURVE SMOOTH",
"462 183 OFFCURVE",
"609 317 OFFCURVE",
"609 480 CURVE SMOOTH",
"609 625 OFFCURVE",
"486.496 708 OFFCURVE",
"337 708 CURVE SMOOTH",
"120.32 708 OFFCURVE",
"41 612 OFFCURVE",
"41 466 CURVE SMOOTH",
"41 363 OFFCURVE",
"80 311 OFFCURVE",
"80 135 CURVE SMOOTH"
);
}
);
userData = {
com.typemytype.robofont.Image.Brightness = -0.3986;
com.typemytype.robofont.Image.Sharpness = 0.4;
};
vertWidth = 0;
width = 642;
},
{
associatedMasterId = "DC44E50C-9AA1-421C-802C-D4D023281425";
layerId = "8A679E03-CB3C-4AA6-9F23-4DE30452546D";
name = anotherone;
paths = (
{
closed = 1;
nodes = (
"195 187 OFFCURVE",
"264 187 CURVE SMOOTH",
"402 187 OFFCURVE",
"540 327 OFFCURVE",
"540 454 CURVE SMOOTH",
"540 582 OFFCURVE",
"427 678 OFFCURVE",
"291 678 CURVE SMOOTH",
"138 678 OFFCURVE",
"64 610 OFFCURVE",
"64 470 CURVE SMOOTH",
"64 348 OFFCURVE",
"113 240 OFFCURVE",
"140 97 CURVE SMOOTH",
"149 46 OFFCURVE",
"188 14 OFFCURVE",
"219 14 CURVE SMOOTH",
"252 14 OFFCURVE",
"264 29 OFFCURVE",
"264 62 CURVE SMOOTH",
"264 82 OFFCURVE",
"253 145 OFFCURVE",
"220 276 CURVE SMOOTH",
"197 366 OFFCURVE",
"187 403 OFFCURVE",
"187 446 CURVE SMOOTH",
"187 499 OFFCURVE",
"237 542 OFFCURVE",
"318 542 CURVE SMOOTH",
"385 542 OFFCURVE",
"416 511 OFFCURVE",
"416 470 CURVE SMOOTH",
"416 407 OFFCURVE",
"302 328 OFFCURVE",
"248 328 CURVE SMOOTH",
"210 328 OFFCURVE",
"199 335 OFFCURVE",
"163 335 CURVE SMOOTH",
"141 335 OFFCURVE",
"131 323 OFFCURVE",
"131 293 CURVE SMOOTH",
"131 237 OFFCURVE"
);
}
);
vertWidth = 0;
width = 600;
}
);
unicode = 0050;
},
{
glyphname = Q;
layers = (
{
anchors = (
{
name = bottom;
position = "{359, 0}";
},
{
name = top;
position = "{388, 700}";
}
);
backgroundImage = {
imagePath = B_.png;
transform = "{2.61189, 0, 0, 2.61189, -4656.79, -300.368}";
};
layerId = "DC44E50C-9AA1-421C-802C-D4D023281425";
paths = (
{
closed = 1;
nodes = (
"409 323 OFFCURVE",
"399 335 OFFCURVE",
"375 335 CURVE SMOOTH",
"348 335 OFFCURVE",
"336 303 OFFCURVE",
"361 268 CURVE SMOOTH",
"415 189 OFFCURVE",
"485 5 OFFCURVE",
"557 -74 CURVE SMOOTH",
"587 -106 OFFCURVE",
"603 -111 OFFCURVE",
"622 -111 CURVE SMOOTH",
"648 -111 OFFCURVE",
"667 -87 OFFCURVE",
"638 -54 CURVE SMOOTH",
"532 67 OFFCURVE",
"468 227 OFFCURVE",
"438 275 CURVE SMOOTH"
);
},
{
closed = 1;
nodes = (
"246 603 OFFCURVE",
"264 609 OFFCURVE",
"264 626 CURVE SMOOTH",
"264 639 OFFCURVE",
"256 654 OFFCURVE",
"233 654 CURVE SMOOTH",
"191 654 OFFCURVE",
"70 538 OFFCURVE",
"70 313 CURVE SMOOTH",
"70 144 OFFCURVE",
"147 -9 OFFCURVE",
"360 -9 CURVE SMOOTH",
"539 -9 OFFCURVE",
"644 144 OFFCURVE",
"644 327 CURVE SMOOTH",
"644 546 OFFCURVE",
"532 709 OFFCURVE",
"399 709 CURVE SMOOTH",
"277 709 OFFCURVE",
"156 588 OFFCURVE",
"156 499 CURVE SMOOTH",
"156 487 OFFCURVE",
"161 478 OFFCURVE",
"169 478 CURVE SMOOTH",
"192 478 OFFCURVE",
"207 488 OFFCURVE",
"223 519 CURVE SMOOTH",
"264 598 OFFCURVE",
"331 644 OFFCURVE",
"384 644 CURVE SMOOTH",
"509 644 OFFCURVE",
"577 484 OFFCURVE",
"577 315 CURVE SMOOTH",
"577 183 OFFCURVE",
"494 56 OFFCURVE",
"360 56 CURVE SMOOTH",
"197 56 OFFCURVE",
"137 179 OFFCURVE",
"137 313 CURVE SMOOTH",
"137 409 OFFCURVE",
"166 523 OFFCURVE",
"218 575 CURVE SMOOTH"
);
}
);
userData = {
com.typemytype.robofont.Image.Brightness = -0.3986;
com.typemytype.robofont.Image.Sharpness = 0.4;
};
vertWidth = 0;
width = 716;
},
{
anchors = (
{
name = bottom;
position = "{434, 0}";
},
{
name = top;
position = "{434, 700}";
}
);
layerId = "0A0D3988-4955-4F5A-8D07-882FAAFF61A2";
paths = (
{
closed = 1;
nodes = (
"471 302 OFFCURVE",
"440 324 OFFCURVE",
"386 324 CURVE SMOOTH",
"312 324 OFFCURVE",
"295 271 OFFCURVE",
"346 200 CURVE SMOOTH",
"398.399 127.844 OFFCURVE",
"453.035 2.072 OFFCURVE",
"508 -59 CURVE SMOOTH",
"544 -99 OFFCURVE",
"564 -108 OFFCURVE",
"600 -108 CURVE SMOOTH",
"680 -108 OFFCURVE",
"686 -15 OFFCURVE",
"618 73 CURVE SMOOTH",
"571.318 133.605 OFFCURVE",
"529.79 226.647 OFFCURVE",
"506 257 CURVE SMOOTH"
);
},
{
closed = 1;
nodes = (
"380 531 OFFCURVE",
"385 547 OFFCURVE",
"385 574 CURVE SMOOTH",
"385 617 OFFCURVE",
"327 656 OFFCURVE",
"288 656 CURVE SMOOTH",
"198 656 OFFCURVE",
"45 496 OFFCURVE",
"45 313 CURVE SMOOTH",
"45 144 OFFCURVE",
"138 -9 OFFCURVE",
"395 -9 CURVE SMOOTH",
"610 -9 OFFCURVE",
"739 156 OFFCURVE",
"739 327 CURVE SMOOTH",
"739 546 OFFCURVE",
"599 709 OFFCURVE",
"434 709 CURVE SMOOTH",
"313 709 OFFCURVE",
"193 587 OFFCURVE",
"193 497 CURVE SMOOTH",
"193 438 OFFCURVE",
"220 414 OFFCURVE",
"274 414 CURVE SMOOTH",
"297 414 OFFCURVE",
"312 424 OFFCURVE",
"328 455 CURVE SMOOTH",
"351 500 OFFCURVE",
"374 524 OFFCURVE",
"419 524 CURVE SMOOTH",
"500 524 OFFCURVE",
"564 410 OFFCURVE",
"564 315 CURVE SMOOTH",
"564 239 OFFCURVE",
"499 166 OFFCURVE",
"395 166 CURVE SMOOTH",
"264 166 OFFCURVE",
"216 237 OFFCURVE",
"216 313 CURVE SMOOTH",
"216 392 OFFCURVE",
"259 476 OFFCURVE",
"334 510 CURVE SMOOTH"
);
}
);
userData = {
com.typemytype.robofont.Image.Brightness = -0.3986;
com.typemytype.robofont.Image.Sharpness = 0.4;
};
vertWidth = 0;
width = 784;
},
{
associatedMasterId = "DC44E50C-9AA1-421C-802C-D4D023281425";
layerId = "AAD9F882-B6F0-4359-B661-1C7429ADC3A0";
name = anotherone;
paths = (
{
closed = 1;
nodes = (
"333 626 OFFCURVE",
"316 647 OFFCURVE",
"276 647 CURVE SMOOTH",
"156 647 OFFCURVE",
"46 488 OFFCURVE",
"46 330 CURVE SMOOTH",
"46 172 OFFCURVE",
"169 16 OFFCURVE",
"422 16 CURVE SMOOTH",
"627 16 OFFCURVE",
"784 116 OFFCURVE",
"784 251 CURVE SMOOTH",
"784 487 OFFCURVE",
"654 695 OFFCURVE",
"498 695 CURVE SMOOTH",
"328 695 OFFCURVE",
"200 621 OFFCURVE",
"200 515 CURVE SMOOTH",
"200 433 OFFCURVE",
"249 420 OFFCURVE",
"263 420 CURVE SMOOTH",
"328 420 OFFCURVE",
"341 561 OFFCURVE",
"531 561 CURVE SMOOTH",
"598 561 OFFCURVE",
"664 433 OFFCURVE",
"664 302 CURVE SMOOTH",
"664 224 OFFCURVE",
"559 156 OFFCURVE",
"416 156 CURVE SMOOTH",
"243 156 OFFCURVE",
"180 200 OFFCURVE",
"180 282 CURVE SMOOTH",
"180 463 OFFCURVE",
"333 509 OFFCURVE",
"333 603 CURVE SMOOTH"
);
},
{
closed = 1;
nodes = (
"771 -159 OFFCURVE",
"789 -141 OFFCURVE",
"789 -119 CURVE SMOOTH",
"789 -98 OFFCURVE",
"777 -82 OFFCURVE",
"732 -28 CURVE SMOOTH",
"643 82 OFFCURVE",
"615 204 OFFCURVE",
"554 273 CURVE SMOOTH",
"525 308 OFFCURVE",
"491 329 OFFCURVE",
"450 329 CURVE SMOOTH",
"426 329 OFFCURVE",
"406 312 OFFCURVE",
"406 290 CURVE SMOOTH",
"406 241 OFFCURVE",
"444 211 OFFCURVE",
"488 136 CURVE SMOOTH",
"542 47 OFFCURVE",
"615 -68 OFFCURVE",
"686 -127 CURVE SMOOTH",
"721 -155 OFFCURVE",
"736 -159 OFFCURVE",
"749 -159 CURVE SMOOTH"
);
}
);
vertWidth = 0;
width = 825;
}
);
unicode = 0051;
},
{
glyphname = R;
layers = (
{
anchors = (
{
name = bottom;
position = "{307, 0}";
},
{
name = top;
position = "{403, 700}";
}
);
layerId = "DC44E50C-9AA1-421C-802C-D4D023281425";
paths = (
{
closed = 1;
nodes = (
"62 631 OFFCURVE",
"58 613 OFFCURVE",
"75 570 CURVE SMOOTH",
"106 493 OFFCURVE",
"111 450 OFFCURVE",
"116 395 CURVE",
"81 272 OFFCURVE",
"65 181 OFFCURVE",
"65 106 CURVE SMOOTH",
"65 30 OFFCURVE",
"75 -13 OFFCURVE",
"109 -13 CURVE SMOOTH",
"128 -13 OFFCURVE",
"132 -5 OFFCURVE",
"132 68 CURVE SMOOTH",
"132 343 OFFCURVE",
"247 645 OFFCURVE",
"450 645 CURVE SMOOTH",
"523 645 OFFCURVE",
"551 600 OFFCURVE",
"551 547 CURVE SMOOTH",
"551 465 OFFCURVE",
"474 372 OFFCURVE",
"227 281 CURVE SMOOTH",
"184 265 OFFCURVE",
"177 239 OFFCURVE",
"200 208 CURVE SMOOTH",
"279 106 OFFCURVE",
"521 -12 OFFCURVE",
"595 -12 CURVE SMOOTH",
"627 -12 OFFCURVE",
"639 -3 OFFCURVE",
"639 19 CURVE SMOOTH",
"639 34 OFFCURVE",
"629 45 OFFCURVE",
"585 60 CURVE SMOOTH",
"443 107 OFFCURVE",
"329 175 OFFCURVE",
"269 232 CURVE",
"559 337 OFFCURVE",
"621 450 OFFCURVE",
"621 548 CURVE SMOOTH",
"621 639 OFFCURVE",
"572 710 OFFCURVE",
"459 710 CURVE SMOOTH",
"333 710 OFFCURVE",
"221 637 OFFCURVE",
"144 453 CURVE",
"168 462 LINE",
"159 585 OFFCURVE",
"126 631 OFFCURVE",
"92 631 CURVE SMOOTH"
);
}
);
vertWidth = 0;
width = 670;
},
{
anchors = (
{
name = bottom;
position = "{369, 0}";
},
{
name = top;
position = "{369, 700}";
}
);
layerId = "0A0D3988-4955-4F5A-8D07-882FAAFF61A2";
paths = (
{
closed = 1;
nodes = (
"53 679 OFFCURVE",
"33 643 OFFCURVE",
"48 588 CURVE SMOOTH",
"76 489 OFFCURVE",
"102 422 OFFCURVE",
"99 313 CURVE",
"64 240 OFFCURVE",
"48 175 OFFCURVE",
"48 126 CURVE SMOOTH",
"48 35 OFFCURVE",
"100 -13 OFFCURVE",
"156 -13 CURVE SMOOTH",
"207 -13 OFFCURVE",
"233 15 OFFCURVE",
"233 65 CURVE SMOOTH",
"233 473.298 OFFCURVE",
"479 540 OFFCURVE",
"506 540 CURVE SMOOTH",
"520 540 OFFCURVE",
"526 534 OFFCURVE",
"526 520 CURVE SMOOTH",
"526 482 OFFCURVE",
"445.242 371.049 OFFCURVE",
"210 323 CURVE SMOOTH",
"171 315 OFFCURVE",
"156 237 OFFCURVE",
"179 206 CURVE SMOOTH",
"258 104 OFFCURVE",
"527 -12 OFFCURVE",
"621 -12 CURVE SMOOTH",
"694 -12 OFFCURVE",
"734 21.726 OFFCURVE",
"734 77 CURVE SMOOTH",
"734 110.862 OFFCURVE",
"715 130 OFFCURVE",
"646 146 CURVE SMOOTH",
"570 165 OFFCURVE",
"484 193 OFFCURVE",
"403 233 CURVE",
"578 286 OFFCURVE",
"700 400 OFFCURVE",
"700 529 CURVE SMOOTH",
"700 630 OFFCURVE",
"648 710 OFFCURVE",
"520 710 CURVE SMOOTH",
"403 710 OFFCURVE",
"294 636 OFFCURVE",
"223 528 CURVE",
"253 524 LINE",
"227.368 639.855 OFFCURVE",
"192 679 OFFCURVE",
"117 679 CURVE SMOOTH"
);
}
);
vertWidth = 0;
width = 756;
},
{
associatedMasterId = "DC44E50C-9AA1-421C-802C-D4D023281425";
layerId = "CFD7F6A7-210D-4321-94DB-20BB1AAFD090";
name = anotherone;
paths = (
{
closed = 1;
nodes = (
"810 -14 OFFCURVE",
"849 14 OFFCURVE",
"849 55 CURVE SMOOTH",
"849 75 OFFCURVE",
"840 90 OFFCURVE",
"774 106 CURVE SMOOTH",
"648 136 OFFCURVE",
"483 194 OFFCURVE",
"360 257 CURVE",
"360 210 LINE",
"600 287 OFFCURVE",
"749 448 OFFCURVE",
"749 578 CURVE SMOOTH",
"749 676 OFFCURVE",
"673 740 OFFCURVE",
"590 740 CURVE SMOOTH",
"432 740 OFFCURVE",
"278 622 OFFCURVE",
"175 455 CURVE",
"202 466 LINE",
"189 521 OFFCURVE",
"167 560 OFFCURVE",
"126 560 CURVE SMOOTH",
"88 560 OFFCURVE",
"58 540 OFFCURVE",
"58 500 CURVE SMOOTH",
"58 457 OFFCURVE",
"88 423 OFFCURVE",
"99 318 CURVE",
"66 238 OFFCURVE",
"54 185 OFFCURVE",
"54 133 CURVE SMOOTH",
"54 37 OFFCURVE",
"91 -21 OFFCURVE",
"156 -23 CURVE SMOOTH",
"186 -22 OFFCURVE",
"199 -6 OFFCURVE",
"199 26 CURVE SMOOTH",
"199 66 OFFCURVE",
"202 178 OFFCURVE",
"199 256 CURVE",
"310 457 OFFCURVE",
"466 613 OFFCURVE",
"588 613 CURVE SMOOTH",
"618 613 OFFCURVE",
"629 602 OFFCURVE",
"629 584 CURVE SMOOTH",
"629 514 OFFCURVE",
"459 368 OFFCURVE",
"259 316 CURVE SMOOTH",
"217 305 OFFCURVE",
"178 293 OFFCURVE",
"175 256 CURVE SMOOTH",
"173 219 OFFCURVE",
"196 191 OFFCURVE",
"276 151 CURVE SMOOTH",
"500 38 OFFCURVE",
"688 -14 OFFCURVE",
"759 -14 CURVE SMOOTH"
);
}
);
vertWidth = 0;
width = 855;
},
{
associatedMasterId = "0A0D3988-4955-4F5A-8D07-882FAAFF61A2";
layerId = "847D0955-DF11-4462-B1E7-EF9D465319E6";
name = bg;
paths = (
{
closed = 1;
nodes = (
"24 669 OFFCURVE",
"4 625 OFFCURVE",
"15 588 CURVE SMOOTH",
"46 489 OFFCURVE",
"69 422 OFFCURVE",
"66 313 CURVE",
"31 240 OFFCURVE",
"15 175 OFFCURVE",
"15 126 CURVE SMOOTH",
"15 31 OFFCURVE",
"90 -13 OFFCURVE",
"143 -13 CURVE SMOOTH",
"184 -13 OFFCURVE",
"200 3 OFFCURVE",
"200 20 CURVE SMOOTH",
"200 469 OFFCURVE",
"449 535 OFFCURVE",
"504 535 CURVE",
"491 535 OFFCURVE",
"487 544 OFFCURVE",
"487 549 CURVE",
"487 505 OFFCURVE",
"342 400 OFFCURVE",
"169 315 CURVE SMOOTH",
"140 301 OFFCURVE",
"123 237 OFFCURVE",
"146 206 CURVE SMOOTH",
"225 104 OFFCURVE",
"525 -12 OFFCURVE",
"569 -12 CURVE SMOOTH",
"647 -12 OFFCURVE",
"701 31 OFFCURVE",
"701 83 CURVE SMOOTH",
"701 114 OFFCURVE",
"671 133 OFFCURVE",
"607 148 CURVE SMOOTH",
"537 165 OFFCURVE",
"451 199 OFFCURVE",
"369 234 CURVE",
"533 325 OFFCURVE",
"657 468 OFFCURVE",
"657 558 CURVE SMOOTH",
"657 649 OFFCURVE",
"608 710 OFFCURVE",
"477 710 CURVE SMOOTH",
"397 710 OFFCURVE",
"279 641 OFFCURVE",
"198 533 CURVE",
"220 524 LINE",
"199 619 OFFCURVE",
"182 669 OFFCURVE",
"70 669 CURVE SMOOTH"
);
}
);
vertWidth = 0;
width = 717;
}
);
unicode = 0052;
},
{
glyphname = S;
layers = (
{
anchors = (
{
name = bottom;
position = "{269, 0}";
},
{
name = top;
position = "{299, 700}";
}
);
background = {
paths = (
{
closed = 0;
nodes = (
"486 676 LINE",
"316 651 OFFCURVE",
"122 518 OFFCURVE",
"122 442 CURVE SMOOTH",
"122 309 OFFCURVE",
"454 219 OFFCURVE",
"454 124 CURVE SMOOTH",
"454 25 OFFCURVE",
"199 15 OFFCURVE",
"119 50 CURVE SMOOTH"
);
}
);
};
layerId = "DC44E50C-9AA1-421C-802C-D4D023281425";
paths = (
{
closed = 1;
nodes = (
"332.408 -9 OFFCURVE",
"496 36 OFFCURVE",
"496 127 CURVE SMOOTH",
"496 286.357 OFFCURVE",
"136 303.184 OFFCURVE",
"136 418 CURVE SMOOTH",
"136 510.247 OFFCURVE",
"250.138 599.222 OFFCURVE",
"459 640 CURVE SMOOTH",
"492.699 646.127 OFFCURVE",
"504 657.526 OFFCURVE",
"504 677 CURVE SMOOTH",
"504 697.625 OFFCURVE",
"490.421 710 OFFCURVE",
"461 710 CURVE SMOOTH",
"337.566 710 OFFCURVE",
"67 589 OFFCURVE",
"67 415 CURVE SMOOTH",
"67 247 OFFCURVE",
"406 245 OFFCURVE",
"425 121 CURVE",
"383 83 OFFCURVE",
"290 59 OFFCURVE",
"154 59 CURVE SMOOTH",
"108 59 OFFCURVE",
"100 69 OFFCURVE",
"72 69 CURVE SMOOTH",
"52 69 OFFCURVE",
"43 60 OFFCURVE",
"43 44 CURVE SMOOTH",
"43 13 OFFCURVE",
"81.75 -9 OFFCURVE",
"162 -9 CURVE SMOOTH"
);
}
);
vertWidth = 0;
width = 561;
},
{
anchors = (
{
name = bottom;
position = "{294, 0}";
},
{
name = top;
position = "{294, 700}";
}
);
layerId = "0A0D3988-4955-4F5A-8D07-882FAAFF61A2";
paths = (
{
closed = 1;
nodes = (
"450 -9 OFFCURVE",
"547 46 OFFCURVE",
"547 168 CURVE SMOOTH",
"547 362 OFFCURVE",
"217 385 OFFCURVE",
"217 451 CURVE SMOOTH",
"217 481 OFFCURVE",
"322 518 OFFCURVE",
"471 546 CURVE SMOOTH",
"508 553 OFFCURVE",
"525 581 OFFCURVE",
"525 615 CURVE SMOOTH",
"525 664 OFFCURVE",
"501 710 OFFCURVE",
"429 710 CURVE SMOOTH",
"306 710 OFFCURVE",
"38 612 OFFCURVE",
"38 455 CURVE SMOOTH",
"38 257 OFFCURVE",
"333 236 OFFCURVE",
"366 172 CURVE",
"322.583 161.387 OFFCURVE",
"297.649 158 OFFCURVE",
"237 158 CURVE SMOOTH",
"159.18 158 OFFCURVE",
"140.504 185 OFFCURVE",
"99 185 CURVE SMOOTH",
"65 185 OFFCURVE",
"51 163 OFFCURVE",
"51 129 CURVE SMOOTH",
"51 54 OFFCURVE",
"120 -9 OFFCURVE",
"253 -9 CURVE SMOOTH"
);
}
);
vertWidth = 0;
width = 578;
}
);
unicode = 0053;
},
{
glyphname = T;
layers = (
{
anchors = (
{
name = bottom;
position = "{317, 0}";
},
{
name = top;
position = "{317, 700}";
}
);
background = {
paths = (
{
closed = 0;
nodes = (
"12 640 LINE",
"242 640 OFFCURVE",
"414 613 OFFCURVE",
"601 639 CURVE SMOOTH"
);
},
{
closed = 0;
nodes = (
"391 28 LINE",
"339 160 OFFCURVE",
"327 330 OFFCURVE",
"325 620 CURVE SMOOTH"
);
}
);
};
layerId = "DC44E50C-9AA1-421C-802C-D4D023281425";
paths = (
{
closed = 1;
nodes = (
"249 334 OFFCURVE",
"261 170 OFFCURVE",
"270 89 CURVE SMOOTH",
"279 9 OFFCURVE",
"300 -13 OFFCURVE",
"323 -13 CURVE SMOOTH",
"338 -13 OFFCURVE",
"349 -6 OFFCURVE",
"349 13 CURVE SMOOTH",
"349 56 OFFCURVE",
"311 167 OFFCURVE",
"335 544 CURVE SMOOTH",
"340 632 OFFCURVE",
"333 660 OFFCURVE",
"302 660 CURVE SMOOTH",
"285 660 OFFCURVE",
"275 642 OFFCURVE",
"273 616 CURVE SMOOTH"
);
},
{
closed = 1;
nodes = (
"240 635 OFFCURVE",
"315 634 OFFCURVE",
"467 634 CURVE SMOOTH",
"531 634 OFFCURVE",
"596 650 OFFCURVE",
"596 685 CURVE SMOOTH",
"596 700 OFFCURVE",
"586 711 OFFCURVE",
"564 711 CURVE SMOOTH",
"533 711 OFFCURVE",
"523 700 OFFCURVE",
"430 700 CURVE SMOOTH",
"295 700 OFFCURVE",
"223 706 OFFCURVE",
"58 706 CURVE SMOOTH",
"30 706 OFFCURVE",
"19 697 OFFCURVE",
"19 685 CURVE SMOOTH",
"19 663 OFFCURVE",
"34 641 OFFCURVE",
"112 639 CURVE SMOOTH"
);
}
);
vertWidth = 0;
width = 615;
},
{
anchors = (
{
name = bottom;
position = "{330, 0}";
},
{
name = top;
position = "{319, 700}";
}
);
layerId = "0A0D3988-4955-4F5A-8D07-882FAAFF61A2";
paths = (
{
closed = 1;
nodes = (
"193 286 OFFCURVE",
"190 195 OFFCURVE",
"219 85 CURVE SMOOTH",
"241.841 9.526 OFFCURVE",
"282 -13 OFFCURVE",
"327 -13 CURVE SMOOTH",
"378 -13 OFFCURVE",
"402 6 OFFCURVE",
"402 61 CURVE SMOOTH",
"402 130 OFFCURVE",
"372.38 172.997 OFFCURVE",
"394 514 CURVE SMOOTH",
"399 602 OFFCURVE",
"372 640 OFFCURVE",
"289 640 CURVE SMOOTH",
"248 640 OFFCURVE",
"220 610 OFFCURVE",
"217 568 CURVE SMOOTH"
);
},
{
closed = 1;
nodes = (
"234 532 OFFCURVE",
"338 532 OFFCURVE",
"474 532 CURVE SMOOTH",
"542 532 OFFCURVE",
"613 566 OFFCURVE",
"613 649 CURVE SMOOTH",
"613 686 OFFCURVE",
"593 711 OFFCURVE",
"551 711 CURVE SMOOTH",
"468 711 OFFCURVE",
"419 700 OFFCURVE",
"355 700 CURVE SMOOTH",
"263 700 OFFCURVE",
"178 710 OFFCURVE",
"65 710 CURVE SMOOTH",
"27 710 OFFCURVE",
"12 683 OFFCURVE",
"12 651 CURVE SMOOTH",
"12 585 OFFCURVE",
"39 551 OFFCURVE",
"123 543 CURVE SMOOTH"
);
}
);
vertWidth = 0;
width = 625;
}
);
unicode = 0054;
},
{
glyphname = U;
layers = (
{
anchors = (
{
name = bottom;
position = "{337, 0}";
},
{
name = ogonek;
position = "{446, 12}";
},
{
name = top;
position = "{337, 700}";
}
);
background = {
paths = (
{
closed = 0;
nodes = (
"78 656 LINE",
"113 598 OFFCURVE",
"130 510 OFFCURVE",
"136 420 CURVE SMOOTH",
"145 295 OFFCURVE",
"185 78 OFFCURVE",
"373 78 CURVE SMOOTH",
"635 78 OFFCURVE",
"523 453 OFFCURVE",
"546 612 CURVE SMOOTH"
);
}
);
};
layerId = "DC44E50C-9AA1-421C-802C-D4D023281425";
paths = (
{
closed = 1;
nodes = (
"507 -13 OFFCURVE",
"579 114 OFFCURVE",
"579 298 CURVE SMOOTH",
"579 371 OFFCURVE",
"574 441 OFFCURVE",
"574 511 CURVE SMOOTH",
"574 618 OFFCURVE",
"586 647 OFFCURVE",
"586 684 CURVE SMOOTH",
"586 706 OFFCURVE",
"576 712 OFFCURVE",
"560 712 CURVE SMOOTH",
"525 712 OFFCURVE",
"504 676 OFFCURVE",
"504 615 CURVE SMOOTH",
"504 498 OFFCURVE",
"512 429 OFFCURVE",
"512 305 CURVE SMOOTH",
"512 132 OFFCURVE",
"462 53 OFFCURVE",
"342 53 CURVE SMOOTH",
"235 53 OFFCURVE",
"150 126 OFFCURVE",
"150 339 CURVE SMOOTH",
"150 396 OFFCURVE",
"157 466 OFFCURVE",
"157 518 CURVE SMOOTH",
"157 661 OFFCURVE",
"124 712 OFFCURVE",
"95 712 CURVE SMOOTH",
"76 712 OFFCURVE",
"65 701 OFFCURVE",
"65 676 CURVE SMOOTH",
"65 630 OFFCURVE",
"89 618 OFFCURVE",
"89 489 CURVE SMOOTH",
"89 451 OFFCURVE",
"84 391 OFFCURVE",
"84 337 CURVE SMOOTH",
"84 126 OFFCURVE",
"163 -13 OFFCURVE",
"349 -13 CURVE SMOOTH"
);
}
);
vertWidth = 0;
width = 663;
},
{
anchors = (
{
name = bottom;
position = "{355, 0}";
},
{
name = ogonek;
position = "{482, 11}";
},
{
name = top;
position = "{355, 700}";
}
);
layerId = "0A0D3988-4955-4F5A-8D07-882FAAFF61A2";
paths = (
{
closed = 1;
nodes = (
"557 -13 OFFCURVE",
"643 114 OFFCURVE",
"643 298 CURVE SMOOTH",
"643 382 OFFCURVE",
"634 448 OFFCURVE",
"634 520 CURVE SMOOTH",
"634 578 OFFCURVE",
"643 605 OFFCURVE",
"643 638 CURVE SMOOTH",
"643 687 OFFCURVE",
"612 712 OFFCURVE",
"562 712 CURVE SMOOTH",
"490.377 712 OFFCURVE",
"458 655 OFFCURVE",
"458 574 CURVE SMOOTH",
"458 472 OFFCURVE",
"464 412.6 OFFCURVE",
"464 305 CURVE SMOOTH",
"464 198 OFFCURVE",
"428 165 OFFCURVE",
"358 165 CURVE SMOOTH",
"279 165 OFFCURVE",
"244 194 OFFCURVE",
"244 332 CURVE SMOOTH",
"244 395 OFFCURVE",
"253 483 OFFCURVE",
"253 544 CURVE SMOOTH",
"253 680 OFFCURVE",
"201 716 OFFCURVE",
"133 716 CURVE SMOOTH",
"80.286 716 OFFCURVE",
"51 695.714 OFFCURVE",
"51 645 CURVE SMOOTH",
"51 595.312 OFFCURVE",
"65 583.388 OFFCURVE",
"65 486 CURVE SMOOTH",
"65 449.755 OFFCURVE",
"60 396 OFFCURVE",
"60 342 CURVE SMOOTH",
"60 122 OFFCURVE",
"142 -13 OFFCURVE",
"365 -13 CURVE SMOOTH"
);
}
);
vertWidth = 0;
width = 689;
}
);
unicode = 0055;
},
{
glyphname = Uhorn;
layers = (
{
anchors = (
{
name = bottom;
position = "{337, 0}";
},
{
name = top;
position = "{337, 700}";
}
);
components = (
{
name = U;
transform = "{1, 0, 0, 1, -2, 0}";
}
);
layerId = "DC44E50C-9AA1-421C-802C-D4D023281425";
paths = (
{
closed = 1;
nodes = (
"537 682 OFFCURVE",
"530 672 OFFCURVE",
"530 662 CURVE SMOOTH",
"530 640 OFFCURVE",
"544 620 OFFCURVE",
"570 620 CURVE SMOOTH",
"662 620 OFFCURVE",
"738 663 OFFCURVE",
"738 741 CURVE SMOOTH",
"738 803 OFFCURVE",
"706 838 OFFCURVE",
"672 838 CURVE SMOOTH",
"654 838 OFFCURVE",
"644 826 OFFCURVE",
"644 808 CURVE SMOOTH",
"644 783 OFFCURVE",
"666 769 OFFCURVE",
"666 738 CURVE SMOOTH",
"666 703 OFFCURVE",
"627 682 OFFCURVE",
"549 682 CURVE SMOOTH"
);
}
);
vertWidth = 0;
width = 704;
},
{
anchors = (
{
name = bottom;
position = "{355, 0}";
},
{
name = top;
position = "{355, 700}";
}
);
components = (
{
name = U;
}
);
layerId = "0A0D3988-4955-4F5A-8D07-882FAAFF61A2";
paths = (
{
closed = 1;
nodes = (
"578 680 OFFCURVE",
"552 662 OFFCURVE",
"552 609 CURVE SMOOTH",
"552 559 OFFCURVE",
"581 521 OFFCURVE",
"647 521 CURVE SMOOTH",
"772 521 OFFCURVE",
"837 584 OFFCURVE",
"837 680 CURVE SMOOTH",
"837 755 OFFCURVE",
"795 792 OFFCURVE",
"723 792 CURVE SMOOTH",
"677 792 OFFCURVE",
"652 770 OFFCURVE",
"652 738 CURVE SMOOTH",
"652 723 OFFCURVE",
"655 715 OFFCURVE",
"655 700 CURVE SMOOTH",
"655 686 OFFCURVE",
"643 680 OFFCURVE",
"626 680 CURVE SMOOTH"
);
}
);
vertWidth = 0;
width = 824;
}
);
unicode = 01AF;
},
{
glyphname = V;
layers = (
{
anchors = (
{
name = bottom;
position = "{336, 0}";
},
{
name = top;
position = "{336, 700}";
}
);
background = {
paths = (
{
closed = 0;
nodes = (
"40 663 LINE",
"182 556 OFFCURVE",
"191 240 OFFCURVE",
"348 63 CURVE",
"402 267 OFFCURVE",
"479 457 OFFCURVE",
"638 684 CURVE SMOOTH"
);
}
);
};
layerId = "DC44E50C-9AA1-421C-802C-D4D023281425";
paths = (
{
closed = 1;
nodes = (
"354 -11 OFFCURVE",
"365 -2 OFFCURVE",
"378 49 CURVE SMOOTH",
"435 272 OFFCURVE",
"490 399 OFFCURVE",
"616 615 CURVE SMOOTH",
"630 639 OFFCURVE",
"639 662 OFFCURVE",
"639 684 CURVE SMOOTH",
"639 698 OFFCURVE",
"632 709 OFFCURVE",
"617 709 CURVE SMOOTH",
"600 709 OFFCURVE",
"594 703 OFFCURVE",
"559 649 CURVE SMOOTH",
"448 476 OFFCURVE",
"374 284 OFFCURVE",
"316 58 CURVE",
"339 65 LINE",
"223 245 OFFCURVE",
"227 478 OFFCURVE",
"148 628 CURVE SMOOTH",
"120 684 OFFCURVE",
"98 706 OFFCURVE",
"69 706 CURVE SMOOTH",
"55 706 OFFCURVE",
"48 697 OFFCURVE",
"48 684 CURVE SMOOTH",
"48 662 OFFCURVE",
"59 643 OFFCURVE",
"91 592 CURVE SMOOTH",
"149 501 OFFCURVE",
"166 220 OFFCURVE",
"266 58 CURVE SMOOTH",
"304 -5 OFFCURVE",
"318 -11 OFFCURVE",
"342 -11 CURVE SMOOTH"
);
}
);
vertWidth = 0;
width = 665;
},
{
anchors = (
{
name = bottom;
position = "{360, 0}";
},
{
name = top;
position = "{360, 700}";
}
);
layerId = "0A0D3988-4955-4F5A-8D07-882FAAFF61A2";
paths = (
{
closed = 1;
nodes = (
"424 -12 OFFCURVE",
"444 17 OFFCURVE",
"460 70 CURVE SMOOTH",
"517 244 OFFCURVE",
"583 358 OFFCURVE",
"662 487 CURVE SMOOTH",
"697 545 OFFCURVE",
"702 555 OFFCURVE",
"702 606 CURVE SMOOTH",
"702 666 OFFCURVE",
"670 715 OFFCURVE",
"617 715 CURVE SMOOTH",
"586 715 OFFCURVE",
"561 709 OFFCURVE",
"512 633 CURVE SMOOTH",
"429 504 OFFCURVE",
"361 366 OFFCURVE",
"317 198 CURVE",
"363 257 LINE",
"307 337 OFFCURVE",
"276 563 OFFCURVE",
"184 669 CURVE SMOOTH",
"154 703 OFFCURVE",
"128 712 OFFCURVE",
"97 712 CURVE SMOOTH",
"38 712 OFFCURVE",
"12 671 OFFCURVE",
"12 629 CURVE SMOOTH",
"12 586 OFFCURVE",
"37 554 OFFCURVE",
"58 524 CURVE SMOOTH",
"132 417 OFFCURVE",
"115 315 OFFCURVE",
"239 89 CURVE SMOOTH",
"279 15 OFFCURVE",
"307 -12 OFFCURVE",
"367 -12 CURVE SMOOTH"
);
}
);
vertWidth = 0;
width = 714;
}
);
unicode = 0056;
},
{
glyphname = W;
layers = (
{
anchors = (
{
name = bottom;
position = "{478, 0}";
},
{
name = top;
position = "{478, 700}";
}
);
background = {
paths = (
{
closed = 0;
nodes = (
"98 685 LINE",
"113 475 OFFCURVE",
"164 194 OFFCURVE",
"253 -4 CURVE",
"309 266 OFFCURVE",
"416 561 OFFCURVE",
"497 561 CURVE SMOOTH",
"581 561 OFFCURVE",
"592 206 OFFCURVE",
"772 -6 CURVE",
"833 195 OFFCURVE",
"830 507 OFFCURVE",
"889 686 CURVE SMOOTH"
);
}
);
};
backgroundImage = {
imagePath = W_.png;
transform = "{2.14942, 0, 0, 2.14942, -6246.522, -188.078}";
};
layerId = "DC44E50C-9AA1-421C-802C-D4D023281425";
paths = (
{
closed = 1;
nodes = (
"128 687 OFFCURVE",
"122 712 OFFCURVE",
"91 712 CURVE SMOOTH",
"67 712 OFFCURVE",
"58 688 OFFCURVE",
"60 663 CURVE SMOOTH",
"74 468 OFFCURVE",
"144 168 OFFCURVE",
"206 49 CURVE SMOOTH",
"231 2 OFFCURVE",
"251 -8 OFFCURVE",
"276 -8 CURVE SMOOTH",
"301 -8 OFFCURVE",
"321 11 OFFCURVE",
"325 42 CURVE SMOOTH",
"353 243 OFFCURVE",
"397 491 OFFCURVE",
"496 593 CURVE",
"476 596 LINE",
"560 498 OFFCURVE",
"539 178 OFFCURVE",
"610 60 CURVE SMOOTH",
"650 -6 OFFCURVE",
"675 -12 OFFCURVE",
"702 -12 CURVE SMOOTH",
"721 -12 OFFCURVE",
"737 1 OFFCURVE",
"754 42 CURVE SMOOTH",
"813 188 OFFCURVE",
"827 476 OFFCURVE",
"882 621 CURVE SMOOTH",
"904 681 OFFCURVE",
"899 712 OFFCURVE",
"874 712 CURVE SMOOTH",
"851 712 OFFCURVE",
"841 705 OFFCURVE",
"823 661 CURVE SMOOTH",
"761 504 OFFCURVE",
"752 198 OFFCURVE",
"684 58 CURVE",
"693 62 LINE",
"612 164 OFFCURVE",
"627 361 OFFCURVE",
"594 489 CURVE SMOOTH",
"561 610 OFFCURVE",
"532 652 OFFCURVE",
"487 652 CURVE SMOOTH",
"453 652 OFFCURVE",
"423 621 OFFCURVE",
"397 581 CURVE SMOOTH",
"335 486 OFFCURVE",
"288 288 OFFCURVE",
"259 64 CURVE",
"274 62 LINE",
"199 242 OFFCURVE",
"140 505 OFFCURVE",
"131 637 CURVE SMOOTH"
);
}
);
userData = {
com.typemytype.robofont.Image.Brightness = 0;
com.typemytype.robofont.Image.Contrast = 1;
com.typemytype.robofont.Image.Saturation = 1;
com.typemytype.robofont.Image.Sharpness = 0.4;
};
vertWidth = 0;
width = 948;
},
{
anchors = (
{
name = bottom;
position = "{517, 0}";
},
{
name = top;
position = "{517, 700}";
}
);
layerId = "0A0D3988-4955-4F5A-8D07-882FAAFF61A2";
paths = (
{
closed = 1;
nodes = (
"226.359 659.679 OFFCURVE",
"190.219 712 OFFCURVE",
"121 712 CURVE SMOOTH",
"54.644 712 OFFCURVE",
"30.992 676.122 OFFCURVE",
"34 631 CURVE SMOOTH",
"46 450 OFFCURVE",
"96 255 OFFCURVE",
"163 84 CURVE SMOOTH",
"195 3 OFFCURVE",
"236 -8 OFFCURVE",
"263 -8 CURVE SMOOTH",
"306 -8 OFFCURVE",
"327 13 OFFCURVE",
"341 59 CURVE SMOOTH",
"392 222 OFFCURVE",
"448 352 OFFCURVE",
"524 441 CURVE",
"466 460 LINE",
"530 375 OFFCURVE",
"563 166 OFFCURVE",
"648 59 CURVE SMOOTH",
"687 10 OFFCURVE",
"719 -12 OFFCURVE",
"772 -12 CURVE SMOOTH",
"797 -12 OFFCURVE",
"823 -1 OFFCURVE",
"841 42 CURVE SMOOTH",
"902 193 OFFCURVE",
"920 415 OFFCURVE",
"960 559 CURVE SMOOTH",
"981 634 OFFCURVE",
"965 712 OFFCURVE",
"875 712 CURVE SMOOTH",
"831 712 OFFCURVE",
"803 692 OFFCURVE",
"784 645 CURVE SMOOTH",
"752 570 OFFCURVE",
"743 367 OFFCURVE",
"701 242 CURVE",
"764 245 LINE",
"698 336 OFFCURVE",
"678 498 OFFCURVE",
"636 578 CURVE SMOOTH",
"605 635 OFFCURVE",
"578 655 OFFCURVE",
"539 655 CURVE SMOOTH",
"481 655 OFFCURVE",
"443 630 OFFCURVE",
"408 590 CURVE SMOOTH",
"336 509 OFFCURVE",
"281 407 OFFCURVE",
"244 280 CURVE",
"281 294 LINE",
"248.927 405.312 OFFCURVE",
"238.449 475.084 OFFCURVE",
"230 599 CURVE SMOOTH"
);
}
);
userData = {
com.typemytype.robofont.Image.Brightness = 0;
com.typemytype.robofont.Image.Contrast = 1;
com.typemytype.robofont.Image.Saturation = 1;
com.typemytype.robofont.Image.Sharpness = 0.4;
};
vertWidth = 0;
width = 1005;
},
{
associatedMasterId = "DC44E50C-9AA1-421C-802C-D4D023281425";
layerId = "1C2244B4-310D-48D9-9625-3D8AD640D868";
name = anotherone;
paths = (
{
closed = 1;
nodes = (
"161 578 OFFCURVE",
"175 458 OFFCURVE",
"198 341 CURVE SMOOTH",
"209 284 OFFCURVE",
"222 228 OFFCURVE",
"237 175 CURVE SMOOTH",
"271 57 OFFCURVE",
"183 68 OFFCURVE",
"208 175 CURVE SMOOTH",
"226 256 OFFCURVE",
"248 333 OFFCURVE",
"269 399 CURVE SMOOTH",
"324 562 OFFCURVE",
"380 621 OFFCURVE",
"436 621 CURVE SMOOTH",
"504 621 OFFCURVE",
"531 562 OFFCURVE",
"585 373 CURVE SMOOTH",
"607 294 OFFCURVE",
"632 201 OFFCURVE",
"675 119 CURVE SMOOTH",
"698 76 OFFCURVE",
"634 73 OFFCURVE",
"643 119 CURVE SMOOTH",
"657 192 OFFCURVE",
"660 273 OFFCURVE",
"667 353 CURVE SMOOTH",
"677 483 OFFCURVE",
"688 610 OFFCURVE",
"714 702 CURVE SMOOTH",
"721 729 OFFCURVE",
"746 746 OFFCURVE",
"772 746 CURVE SMOOTH",
"815 746 OFFCURVE",
"842 715 OFFCURVE",
"830 670 CURVE SMOOTH",
"807 583 OFFCURVE",
"796 465 OFFCURVE",
"786 343 CURVE SMOOTH",
"776 214 OFFCURVE",
"765 82 OFFCURVE",
"738 -21 CURVE SMOOTH",
"730 -50 OFFCURVE",
"705 -66 OFFCURVE",
"680 -66 CURVE SMOOTH",
"662 -66 OFFCURVE",
"644 -58 OFFCURVE",
"632 -41 CURVE SMOOTH",
"530 97 OFFCURVE",
"471 307 OFFCURVE",
"425 490 CURVE SMOOTH",
"413 539 OFFCURVE",
"477 534 OFFCURVE",
"449 487 CURVE SMOOTH",
"362 340 OFFCURVE",
"323 157 OFFCURVE",
"292 -15 CURVE SMOOTH",
"286 -47 OFFCURVE",
"259 -64 OFFCURVE",
"233 -64 CURVE SMOOTH",
"210 -64 OFFCURVE",
"187 -52 OFFCURVE",
"177 -26 CURVE SMOOTH",
"138 75 OFFCURVE",
"104 194 OFFCURVE",
"80 318 CURVE SMOOTH",
"56 442 OFFCURVE",
"41 569 OFFCURVE",
"39 685 CURVE SMOOTH",
"38 717 OFFCURVE",
"66 745 OFFCURVE",
"98 746 CURVE SMOOTH",
"130 747 OFFCURVE",
"158 719 OFFCURVE",
"159 687 CURVE SMOOTH"
);
}
);
vertWidth = 0;
width = 870;
},
{
associatedMasterId = "0A0D3988-4955-4F5A-8D07-882FAAFF61A2";
layerId = "FC406029-F0F2-41E9-B1EC-0F4B3DC26291";
name = bg;
paths = (
{
closed = 1;
nodes = (
"190 669 OFFCURVE",
"103 712 OFFCURVE",
"39 712 CURVE SMOOTH",
"15 712 OFFCURVE",
"-12 688 OFFCURVE",
"-10 663 CURVE SMOOTH",
"4 468 OFFCURVE",
"60 260 OFFCURVE",
"132 75 CURVE SMOOTH",
"161 2 OFFCURVE",
"200 -8 OFFCURVE",
"226 -8 CURVE SMOOTH",
"251 -8 OFFCURVE",
"263 5 OFFCURVE",
"271 36 CURVE SMOOTH",
"315 217 OFFCURVE",
"388 247 OFFCURVE",
"490 425 CURVE SMOOTH",
"503 446 OFFCURVE",
"476 503 OFFCURVE",
"464 466 CURVE",
"428 290 OFFCURVE",
"599 158 OFFCURVE",
"690 48 CURVE SMOOTH",
"736 -6 OFFCURVE",
"756 -12 OFFCURVE",
"772 -12 CURVE SMOOTH",
"791 -12 OFFCURVE",
"807 1 OFFCURVE",
"824 42 CURVE SMOOTH",
"883 188 OFFCURVE",
"894 440 OFFCURVE",
"918 553 CURVE SMOOTH",
"930 603 OFFCURVE",
"925 712 OFFCURVE",
"826 712 CURVE SMOOTH",
"804 712 OFFCURVE",
"785 705 OFFCURVE",
"773 681 CURVE SMOOTH",
"745 630 OFFCURVE",
"734 430 OFFCURVE",
"708 304 CURVE",
"693 254 OFFCURVE",
"809 177 OFFCURVE",
"777 228 CURVE SMOOTH",
"698 360 OFFCURVE",
"615 433 OFFCURVE",
"608 507 CURVE SMOOTH",
"599 596 OFFCURVE",
"548 652 OFFCURVE",
"473 652 CURVE SMOOTH",
"435 652 OFFCURVE",
"399 623 OFFCURVE",
"373 581 CURVE SMOOTH",
"313 488 OFFCURVE",
"228 428 OFFCURVE",
"163 308 CURVE",
"131 220 OFFCURVE",
"283 179 OFFCURVE",
"238 317 CURVE SMOOTH",
"210 412 OFFCURVE",
"202 487 OFFCURVE",
"193 619 CURVE SMOOTH"
);
}
);
vertWidth = 0;
width = 938;
}
);
unicode = 0057;
},
{
glyphname = X;
layers = (
{
anchors = (
{
name = bottom;
position = "{307, 0}";
},
{
name = top;
position = "{307, 700}";
}
);
background = {
paths = (
{
closed = 0;
nodes = (
"125 651 LINE",
"194 433 OFFCURVE",
"472 216 OFFCURVE",
"559 51 CURVE"
);
},
{
closed = 0;
nodes = (
"550 649 LINE",
"410 522 OFFCURVE",
"215 283 OFFCURVE",
"89 51 CURVE"
);
},
{
closed = 1;
nodes = (
"174 511 OFFCURVE",
"444 213 OFFCURVE",
"506 95 CURVE SMOOTH",
"544 21 OFFCURVE",
"524 -6 OFFCURVE",
"503 -6 CURVE SMOOTH",
"491 -6 OFFCURVE",
"479 1 OFFCURVE",
"453 47 CURVE SMOOTH",
"365 213 OFFCURVE",
"152 434 OFFCURVE",
"91 591 CURVE SMOOTH",
"56 684 OFFCURVE",
"67 709 OFFCURVE",
"95 709 CURVE SMOOTH",
"114 709 OFFCURVE",
"126 700 OFFCURVE",
"131 681 CURVE SMOOTH"
);
},
{
closed = 1;
nodes = (
"391 512 OFFCURVE",
"237 296 OFFCURVE",
"102 29 CURVE SMOOTH",
"84 -7 OFFCURVE",
"72 -13 OFFCURVE",
"57 -13 CURVE SMOOTH",
"31 -13 OFFCURVE",
"19 13 OFFCURVE",
"47 72 CURVE SMOOTH",
"117 216 OFFCURVE",
"330 547 OFFCURVE",
"486 692 CURVE SMOOTH",
"502 706 OFFCURVE",
"510 709 OFFCURVE",
"518 709 CURVE SMOOTH",
"540 709 OFFCURVE",
"559 668 OFFCURVE",
"506 618 CURVE SMOOTH"
);
}
);
};
backgroundImage = {
imagePath = W_.png;
transform = "{2.1183, -0.36442, 0.36442, 2.1183, -7152.845, 1029.122}";
};
layerId = "DC44E50C-9AA1-421C-802C-D4D023281425";
paths = (
{
closed = 1;
nodes = (
"126 700 OFFCURVE",
"114 709 OFFCURVE",
"95 709 CURVE SMOOTH",
"67 709 OFFCURVE",
"56 684 OFFCURVE",
"91 591 CURVE SMOOTH",
"152 434 OFFCURVE",
"415 213 OFFCURVE",
"503 47 CURVE SMOOTH",
"529 1 OFFCURVE",
"541 -6 OFFCURVE",
"553 -6 CURVE SMOOTH",
"574 -6 OFFCURVE",
"597 15 OFFCURVE",
"556 94 CURVE SMOOTH",
"489 220 OFFCURVE",
"196 478 OFFCURVE",
"136 666 CURVE SMOOTH"
);
},
{
closed = 1;
nodes = (
"609 668 OFFCURVE",
"590 709 OFFCURVE",
"568 709 CURVE SMOOTH",
"560 709 OFFCURVE",
"552 706 OFFCURVE",
"526 682 CURVE SMOOTH",
"380 547 OFFCURVE",
"134 213 OFFCURVE",
"53 75 CURVE SMOOTH",
"21 18 OFFCURVE",
"31 -13 OFFCURVE",
"57 -13 CURVE SMOOTH",
"72 -13 OFFCURVE",
"84 -7 OFFCURVE",
"105 28 CURVE SMOOTH",
"260 284 OFFCURVE",
"441 512 OFFCURVE",
"556 618 CURVE SMOOTH"
);
}
);
userData = {
com.typemytype.robofont.Image.Sharpness = 0.4;
};
vertWidth = 0;
width = 637;
},
{
anchors = (
{
name = bottom;
position = "{340, 0}";
},
{
name = top;
position = "{340, 700}";
}
);
layerId = "0A0D3988-4955-4F5A-8D07-882FAAFF61A2";
paths = (
{
closed = 1;
nodes = (
"199 687 OFFCURVE",
"166 713 OFFCURVE",
"117 712 CURVE SMOOTH",
"31 711 OFFCURVE",
"4 650 OFFCURVE",
"44 546 CURVE SMOOTH",
"109 381 OFFCURVE",
"371 193 OFFCURVE",
"444 66 CURVE SMOOTH",
"477 8 OFFCURVE",
"512 -12 OFFCURVE",
"553 -12 CURVE SMOOTH",
"632 -12 OFFCURVE",
"674 67 OFFCURVE",
"598 180 CURVE SMOOTH",
"508 315 OFFCURVE",
"325 392 OFFCURVE",
"221 635 CURVE SMOOTH"
);
},
{
closed = 1;
nodes = (
"685 610 OFFCURVE",
"626 706 OFFCURVE",
"555 707 CURVE SMOOTH",
"521 707 OFFCURVE",
"500 695 OFFCURVE",
"469 663 CURVE SMOOTH",
"390 587 OFFCURVE",
"240 423 OFFCURVE",
"73 183 CURVE SMOOTH",
"6.129 86.746 OFFCURVE",
"59.48 -5 OFFCURVE",
"125 -5 CURVE SMOOTH",
"165.012 -5 OFFCURVE",
"183.131 11.234 OFFCURVE",
"206 52 CURVE SMOOTH",
"293 205 OFFCURVE",
"487 404 OFFCURVE",
"614 536 CURVE SMOOTH"
);
}
);
userData = {
com.typemytype.robofont.Image.Sharpness = 0.4;
};
vertWidth = 0;
width = 672;
},
{
associatedMasterId = "0A0D3988-4955-4F5A-8D07-882FAAFF61A2";
layerId = "3F14386A-0058-467A-9028-C644A7B2A4F3";
name = bg;
paths = (
{
closed = 1;
nodes = (
"315 375 OFFCURVE",
"508 318 OFFCURVE",
"605 193 CURVE SMOOTH",
"690 85 OFFCURVE",
"631 -12 OFFCURVE",
"545 -12 CURVE SMOOTH",
"504 -12 OFFCURVE",
"467 8 OFFCURVE",
"435 61 CURVE SMOOTH",
"365 177 OFFCURVE",
"83 399 OFFCURVE",
"29 553 CURVE SMOOTH",
"-9 661 OFFCURVE",
"25 713 OFFCURVE",
"125 713 CURVE SMOOTH",
"183 713 OFFCURVE",
"220 689 OFFCURVE",
"236 636 CURVE SMOOTH"
);
},
{
closed = 1;
nodes = (
"477 404 OFFCURVE",
"283 205 OFFCURVE",
"196 52 CURVE SMOOTH",
"173 11 OFFCURVE",
"154 -5 OFFCURVE",
"113 -5 CURVE SMOOTH",
"50 -5 OFFCURVE",
"17 86 OFFCURVE",
"86 195 CURVE SMOOTH",
"230 423 OFFCURVE",
"381 587 OFFCURVE",
"466 663 CURVE SMOOTH",
"500 695 OFFCURVE",
"522 707 OFFCURVE",
"556 707 CURVE SMOOTH",
"627 707 OFFCURVE",
"675 610 OFFCURVE",
"606 538 CURVE SMOOTH"
);
}
);
vertWidth = 0;
width = 665;
}
);
unicode = 0058;
},
{
glyphname = Y;
layers = (
{
anchors = (
{
name = bottom;
position = "{220, 0}";
},
{
name = top;
position = "{296, 700}";
}
);
background = {
paths = (
{
closed = 0;
nodes = (
"85 652 LINE",
"192.32 543.677 OFFCURVE",
"229.123 479.096 OFFCURVE",
"299 312 CURVE"
);
},
{
closed = 0;
nodes = (
"570 653 LINE",
"398.606 493.633 OFFCURVE",
"270.232 269.052 OFFCURVE",
"221 46 CURVE"
);
}
);
};
backgroundImage = {
imagePath = W_.png;
transform = "{2.14942, 0, 0, 2.14942, -7799.938, -239.078}";
};
layerId = "DC44E50C-9AA1-421C-802C-D4D023281425";
paths = (
{
closed = 1;
nodes = (
"576 652 OFFCURVE",
"580 659 OFFCURVE",
"580 683 CURVE SMOOTH",
"580 702 OFFCURVE",
"567 713 OFFCURVE",
"554 713 CURVE SMOOTH",
"539 713 OFFCURVE",
"524 708 OFFCURVE",
"498 680 CURVE SMOOTH",
"341 509 OFFCURVE",
"235 264 OFFCURVE",
"195 69 CURVE SMOOTH",
"181 8 OFFCURVE",
"193 -14 OFFCURVE",
"219 -14 CURVE SMOOTH",
"244 -14 OFFCURVE",
"256 -2 OFFCURVE",
"265 48 CURVE SMOOTH",
"305 267 OFFCURVE",
"405 470 OFFCURVE",
"539 614 CURVE SMOOTH"
);
},
{
closed = 1;
nodes = (
"80 702 OFFCURVE",
"69 712 OFFCURVE",
"50 712 CURVE SMOOTH",
"33 712 OFFCURVE",
"22 701 OFFCURVE",
"22 684 CURVE SMOOTH",
"22 668 OFFCURVE",
"26 659 OFFCURVE",
"48 620 CURVE SMOOTH",
"105 525 OFFCURVE",
"149 483 OFFCURVE",
"237 338 CURVE SMOOTH",
"247 321 OFFCURVE",
"259 309 OFFCURVE",
"277 309 CURVE SMOOTH",
"309 309 OFFCURVE",
"306 344 OFFCURVE",
"297 362 CURVE SMOOTH",
"217 512 OFFCURVE",
"169 540 OFFCURVE",
"93 679 CURVE SMOOTH"
);
}
);
userData = {
com.typemytype.robofont.Image.Sharpness = 0.4;
};
vertWidth = 0;
width = 598;
},
{
anchors = (
{
name = bottom;
position = "{242, 0}";
},
{
name = top;
position = "{300, 700}";
}
);
layerId = "0A0D3988-4955-4F5A-8D07-882FAAFF61A2";
paths = (
{
closed = 1;
nodes = (
"603 561 OFFCURVE",
"614 588.209 OFFCURVE",
"614 625 CURVE SMOOTH",
"614 679 OFFCURVE",
"588.523 713 OFFCURVE",
"545 713 CURVE SMOOTH",
"523.314 713 OFFCURVE",
"506 706 OFFCURVE",
"477 683 CURVE SMOOTH",
"309.191 551.366 OFFCURVE",
"175.797 294.935 OFFCURVE",
"145 133 CURVE SMOOTH",
"127.514 44.543 OFFCURVE",
"159.068 -16 OFFCURVE",
"224 -16 CURVE SMOOTH",
"263.892 -16 OFFCURVE",
"284.169 0.374 OFFCURVE",
"296 52 CURVE SMOOTH",
"331.506 213.751 OFFCURVE",
"418 398 OFFCURVE",
"563 523 CURVE SMOOTH"
);
},
{
closed = 1;
nodes = (
"140.84 703.522 OFFCURVE",
"112.088 710 OFFCURVE",
"82 710 CURVE SMOOTH",
"41.594 710 OFFCURVE",
"14 676.221 OFFCURVE",
"14 627 CURVE SMOOTH",
"14 586.15 OFFCURVE",
"26.656 559.081 OFFCURVE",
"46 532 CURVE SMOOTH",
"112.858 439.818 OFFCURVE",
"144.213 429.972 OFFCURVE",
"238 274 CURVE SMOOTH",
"250 253 OFFCURVE",
"270 242 OFFCURVE",
"296 242 CURVE SMOOTH",
"352.885 242 OFFCURVE",
"379.728 328.574 OFFCURVE",
"354 379 CURVE SMOOTH",
"276 531 OFFCURVE",
"236 535 OFFCURVE",
"165 661 CURVE SMOOTH"
);
}
);
userData = {
com.typemytype.robofont.Image.Sharpness = 0.4;
};
vertWidth = 0;
width = 626;
}
);
unicode = 0059;
userData = {
KernOnName = Y;
};
},
{
glyphname = Z;
layers = (
{
anchors = (
{
name = bottom;
position = "{319, 0}";
},
{
name = top;
position = "{319, 700}";
}
);
background = {
paths = (
{
closed = 0;
nodes = (
"140 622 LINE",
"229 642 OFFCURVE",
"314 650 OFFCURVE",
"399 650 CURVE",
"496 650 OFFCURVE",
"550 618 OFFCURVE",
"550 564 CURVE SMOOTH",
"550 500 OFFCURVE",
"522 463 OFFCURVE",
"355 355 CURVE SMOOTH",
"184 244 OFFCURVE",
"133 185 OFFCURVE",
"133 120 CURVE SMOOTH",
"133 79 OFFCURVE",
"156 53 OFFCURVE",
"231 53 CURVE",
"333 53 OFFCURVE",
"462 68 OFFCURVE",
"591 53 CURVE"
);
},
{
closed = 1;
nodes = (
"197 700 OFFCURVE",
"258 710 OFFCURVE",
"320 710 CURVE SMOOTH",
"486 710 OFFCURVE",
"524 646 OFFCURVE",
"524 572 CURVE SMOOTH",
"524 500 OFFCURVE",
"500 445 OFFCURVE",
"304 316 CURVE SMOOTH",
"113 190 OFFCURVE",
"121 138 OFFCURVE",
"133 44 CURVE",
"109 69 LINE",
"133 59 OFFCURVE",
"162 58 OFFCURVE",
"182 58 CURVE SMOOTH",
"254 58 OFFCURVE",
"326 66 OFFCURVE",
"409 66 CURVE SMOOTH",
"536 66 OFFCURVE",
"588 54 OFFCURVE",
"588 19 CURVE SMOOTH",
"588 2 OFFCURVE",
"573 -7 OFFCURVE",
"541 -7 CURVE SMOOTH",
"495 -7 OFFCURVE",
"474 0 OFFCURVE",
"393 0 CURVE SMOOTH",
"317 0 OFFCURVE",
"246 -7 OFFCURVE",
"185 -7 CURVE SMOOTH",
"93 -7 OFFCURVE",
"61 34 OFFCURVE",
"61 107 CURVE SMOOTH",
"61 164 OFFCURVE",
"84 259 OFFCURVE",
"279 381 CURVE SMOOTH",
"458 491 OFFCURVE",
"469 548 OFFCURVE",
"455 624 CURVE",
"460 617 LINE",
"431 634 OFFCURVE",
"396 643 OFFCURVE",
"321 643 CURVE SMOOTH",
"206 643 OFFCURVE",
"159 619 OFFCURVE",
"119 619 CURVE SMOOTH",
"104 619 OFFCURVE",
"85 627 OFFCURVE",
"85 647 CURVE SMOOTH",
"85 664 OFFCURVE",
"99 677 OFFCURVE",
"131 685 CURVE SMOOTH"
);
}
);
};
backgroundImage = {
imagePath = W_.png;
transform = "{2.14942, 0, 0, 2.14942, -8482.561, -239.078}";
};
layerId = "DC44E50C-9AA1-421C-802C-D4D023281425";
paths = (
{
closed = 1;
nodes = (
"97 685 OFFCURVE",
"85 673 OFFCURVE",
"85 657 CURVE SMOOTH",
"85 633.303 OFFCURVE",
"103.7 623 OFFCURVE",
"129 623 CURVE SMOOTH",
"177.173 623 OFFCURVE",
"241 642 OFFCURVE",
"362 642 CURVE SMOOTH",
"437 642 OFFCURVE",
"469 629 OFFCURVE",
"493 610 CURVE",
"479 637 LINE",
"494 575 OFFCURVE",
"450 510 OFFCURVE",
"294 379 CURVE SMOOTH",
"112 226 OFFCURVE",
"61 139.839 OFFCURVE",
"61 77 CURVE SMOOTH",
"61 23.188 OFFCURVE",
"93 -7 OFFCURVE",
"185 -7 CURVE SMOOTH",
"246.123 -7 OFFCURVE",
"317.281 0 OFFCURVE",
"393 0 CURVE SMOOTH",
"474 0 OFFCURVE",
"495 -7 OFFCURVE",
"541 -7 CURVE SMOOTH",
"573 -7 OFFCURVE",
"588 2 OFFCURVE",
"588 19 CURVE SMOOTH",
"588 55.489 OFFCURVE",
"536 68 OFFCURVE",
"409 68 CURVE SMOOTH",
"326 68 OFFCURVE",
"254 60 OFFCURVE",
"182 60 CURVE SMOOTH",
"146 60 OFFCURVE",
"127 71 OFFCURVE",
"113 92 CURVE",
"133 44 LINE",
"122 113 OFFCURVE",
"154 168 OFFCURVE",
"327 318 CURVE SMOOTH",
"515 479 OFFCURVE",
"548 529 OFFCURVE",
"548 606 CURVE SMOOTH",
"548 672 OFFCURVE",
"492 710 OFFCURVE",
"370 710 CURVE SMOOTH",
"292 710 OFFCURVE",
"212 702 OFFCURVE",
"128 690 CURVE SMOOTH"
);
}
);
userData = {
com.typemytype.robofont.Image.Sharpness = 0.4;
};
vertWidth = 0;
width = 616;
},
{
anchors = (
{
name = bottom;
position = "{337, 0}";
},
{
name = top;
position = "{337, 700}";
}
);
layerId = "0A0D3988-4955-4F5A-8D07-882FAAFF61A2";
paths = (
{
closed = 1;
nodes = (
"61.077 673.014 OFFCURVE",
"37 645.342 OFFCURVE",
"37 606 CURVE SMOOTH",
"37 545.833 OFFCURVE",
"86 511 OFFCURVE",
"143 511 CURVE SMOOTH",
"204 511 OFFCURVE",
"280 537 OFFCURVE",
"389 537 CURVE SMOOTH",
"440 537 OFFCURVE",
"444 531 OFFCURVE",
"460 519 CURVE",
"428 561 LINE",
"424 516 OFFCURVE",
"423 495 OFFCURVE",
"292 413 CURVE SMOOTH",
"76 277 OFFCURVE",
"45 206.044 OFFCURVE",
"45 115 CURVE SMOOTH",
"45 46.346 OFFCURVE",
"79.375 -11 OFFCURVE",
"177 -11 CURVE SMOOTH",
"251.72 -11 OFFCURVE",
"336.927 0 OFFCURVE",
"430 0 CURVE SMOOTH",
"493 0 OFFCURVE",
"518 -7 OFFCURVE",
"558 -7 CURVE SMOOTH",
"596 -7 OFFCURVE",
"624 20 OFFCURVE",
"624 64 CURVE SMOOTH",
"624 136 OFFCURVE",
"565 174 OFFCURVE",
"451 174 CURVE SMOOTH",
"382 174 OFFCURVE",
"312 162 OFFCURVE",
"259 162 CURVE SMOOTH",
"219 162 OFFCURVE",
"199 167 OFFCURVE",
"175 178 CURVE",
"227 108 LINE",
"233 171 OFFCURVE",
"247 192 OFFCURVE",
"403 291 CURVE SMOOTH",
"558 390 OFFCURVE",
"606 458 OFFCURVE",
"606 559 CURVE SMOOTH",
"606 654 OFFCURVE",
"544 710 OFFCURVE",
"407 710 CURVE SMOOTH",
"288 710 OFFCURVE",
"198 697 OFFCURVE",
"99 680 CURVE SMOOTH"
);
}
);
userData = {
com.typemytype.robofont.Image.Sharpness = 0.4;
};
vertWidth = 0;
width = 650;
},
{
associatedMasterId = "0A0D3988-4955-4F5A-8D07-882FAAFF61A2";
layerId = "D8F30D9E-32A4-4813-BDEB-CE637DA8251C";
name = bg;
paths = (
{
closed = 1;
nodes = (
"178 699 OFFCURVE",
"261 710 OFFCURVE",
"342 710 CURVE SMOOTH",
"552 710 OFFCURVE",
"606 632 OFFCURVE",
"606 529 CURVE SMOOTH",
"606 439 OFFCURVE",
"556 379 OFFCURVE",
"399 289 CURVE SMOOTH",
"237 196 OFFCURVE",
"234 184 OFFCURVE",
"213 136 CURVE",
"175 178 LINE",
"199 167 OFFCURVE",
"219 162 OFFCURVE",
"259 162 CURVE SMOOTH",
"312 162 OFFCURVE",
"382 174 OFFCURVE",
"451 174 CURVE SMOOTH",
"541 174 OFFCURVE",
"624 149 OFFCURVE",
"624 64 CURVE SMOOTH",
"624 20 OFFCURVE",
"596 -7 OFFCURVE",
"558 -7 CURVE SMOOTH",
"518 -7 OFFCURVE",
"493 0 OFFCURVE",
"430 0 CURVE SMOOTH",
"359 0 OFFCURVE",
"294 -11 OFFCURVE",
"237 -11 CURVE SMOOTH",
"95 -11 OFFCURVE",
"45 60 OFFCURVE",
"45 145 CURVE SMOOTH",
"45 227 OFFCURVE",
"74 291 OFFCURVE",
"289 417 CURVE SMOOTH",
"423 495 OFFCURVE",
"424 516 OFFCURVE",
"428 561 CURVE",
"460 519 LINE",
"444 531 OFFCURVE",
"440 537 OFFCURVE",
"389 537 CURVE SMOOTH",
"280 537 OFFCURVE",
"204 511 OFFCURVE",
"143 511 CURVE SMOOTH",
"86 511 OFFCURVE",
"37 544 OFFCURVE",
"37 601 CURVE SMOOTH",
"37 643 OFFCURVE",
"54 671 OFFCURVE",
"92 680 CURVE SMOOTH"
);
}
);
vertWidth = 0;
width = 650;
}
);
unicode = 005A;
userData = {
KernOnName = Z;
};
},
{
glyphname = AE;
layers = (
{
anchors = (
{
name = top;
position = "{544, 700}";
}
);
background = {
paths = (
{
closed = 1;
nodes = (
"638 616 OFFCURVE",
"716 643 OFFCURVE",
"995 643 CURVE SMOOTH",
"1028 643 OFFCURVE",
"1040 660 OFFCURVE",
"1040 683 CURVE SMOOTH",
"1040 697 OFFCURVE",
"1030 708 OFFCURVE",
"1011 708 CURVE SMOOTH",
"883 708 OFFCURVE",
"684 699 OFFCURVE",
"544 676 CURVE SMOOTH",
"525 672 OFFCURVE",
"517 656 OFFCURVE",
"517 645 CURVE SMOOTH",
"517 627 OFFCURVE",
"531 616 OFFCURVE",
"558 616 CURVE SMOOTH"
);
},
{
closed = 1;
nodes = (
"209 197 OFFCURVE",
"612 282 OFFCURVE",
"879 300 CURVE SMOOTH",
"917 302 OFFCURVE",
"952 310 OFFCURVE",
"952 340 CURVE SMOOTH",
"952 356 OFFCURVE",
"942 366 OFFCURVE",
"906 366 CURVE SMOOTH",
"743 366 OFFCURVE",
"278 295 OFFCURVE",
"76 246 CURVE SMOOTH",
"50 239 OFFCURVE",
"44 230 OFFCURVE",
"44 216 CURVE SMOOTH",
"44 208 OFFCURVE",
"57 194 OFFCURVE",
"70 194 CURVE SMOOTH"
);
},
{
closed = 1;
nodes = (
"524 92 OFFCURVE",
"625 -7 OFFCURVE",
"790 -7 CURVE SMOOTH",
"971 -7 OFFCURVE",
"1051 46 OFFCURVE",
"1051 81 CURVE SMOOTH",
"1051 97 OFFCURVE",
"1045 109 OFFCURVE",
"1027 109 CURVE SMOOTH",
"1004 109 OFFCURVE",
"960 58 OFFCURVE",
"786 58 CURVE SMOOTH",
"673 58 OFFCURVE",
"592 127 OFFCURVE",
"570 235 CURVE SMOOTH",
"561 280 OFFCURVE",
"550 333 OFFCURVE",
"543 397 CURVE SMOOTH",
"520 612 OFFCURVE",
"511 710 OFFCURVE",
"403 710 CURVE SMOOTH",
"338 710 OFFCURVE",
"287 650 OFFCURVE",
"223 519 CURVE",
"252 526 LINE",
"241 544 OFFCURVE",
"227 555 OFFCURVE",
"211 555 CURVE",
"195 555 OFFCURVE",
"186 541 OFFCURVE",
"186 520 CURVE SMOOTH",
"186 351 OFFCURVE",
"93 188 OFFCURVE",
"93 39 CURVE SMOOTH",
"93 3 OFFCURVE",
"106 -8 OFFCURVE",
"126 -8 CURVE SMOOTH",
"141 -8 OFFCURVE",
"148 5 OFFCURVE",
"151 25 CURVE SMOOTH",
"203 395 OFFCURVE",
"325 645 OFFCURVE",
"403 645 CURVE SMOOTH",
"456 645 OFFCURVE",
"462 568 OFFCURVE",
"481 392 CURVE SMOOTH",
"486 342 OFFCURVE",
"492 287 OFFCURVE",
"501 232 CURVE SMOOTH"
);
}
);
};
layerId = "DC44E50C-9AA1-421C-802C-D4D023281425";
paths = (
{
closed = 1;
nodes = (
"557.313 616 OFFCURVE",
"654.192 643 OFFCURVE",
"930 643 CURVE SMOOTH",
"966.667 643 OFFCURVE",
"980 660 OFFCURVE",
"980 683 CURVE SMOOTH",
"980 699 OFFCURVE",
"972 708 OFFCURVE",
"937 708 CURVE SMOOTH",
"823 708 OFFCURVE",
"628 697 OFFCURVE",
"483 679 CURVE SMOOTH",
"451 675 OFFCURVE",
"446 666 OFFCURVE",
"446 650 CURVE SMOOTH",
"446 629 OFFCURVE",
"464 616 OFFCURVE",
"498 616 CURVE SMOOTH"
);
},
{
closed = 1;
nodes = (
"178 189 OFFCURVE",
"540 294 OFFCURVE",
"870 317 CURVE SMOOTH",
"917 319 OFFCURVE",
"952 327 OFFCURVE",
"952 357 CURVE SMOOTH",
"952 373 OFFCURVE",
"942 383 OFFCURVE",
"906 383 CURVE SMOOTH",
"743 383 OFFCURVE",
"279.088 295.021 OFFCURVE",
"76 246 CURVE SMOOTH",
"50 239 OFFCURVE",
"44 230 OFFCURVE",
"44 216 CURVE SMOOTH",
"44 196 OFFCURVE",
"57 189 OFFCURVE",
"90 189 CURVE SMOOTH"
);
},
{
closed = 1;
nodes = (
"557.468 -7 OFFCURVE",
"780 -7 CURVE SMOOTH",
"926 -7 OFFCURVE",
"991 46 OFFCURVE",
"991 81 CURVE SMOOTH",
"991 97 OFFCURVE",
"985 109 OFFCURVE",
"970 109 CURVE SMOOTH",
"938 109 OFFCURVE",
"914 58 OFFCURVE",
"776 58 CURVE SMOOTH",
"622.612 58 OFFCURVE",
"567.989 157.101 OFFCURVE",
"544 386 CURVE SMOOTH",
"520 612 OFFCURVE",
"511 710 OFFCURVE",
"403 710 CURVE SMOOTH",
"338 710 OFFCURVE",
"287 650 OFFCURVE",
"223 519 CURVE",
"252 526 LINE",
"241 544 OFFCURVE",
"227 555 OFFCURVE",
"211 555 CURVE",
"195 555 OFFCURVE",
"186 541 OFFCURVE",
"186 520 CURVE SMOOTH",
"186 370 OFFCURVE",
"93 188 OFFCURVE",
"93 39 CURVE SMOOTH",
"93 3 OFFCURVE",
"106 -8 OFFCURVE",
"126 -8 CURVE SMOOTH",
"141 -8 OFFCURVE",
"148 5 OFFCURVE",
"151 25 CURVE SMOOTH",
"203 395 OFFCURVE",
"325 645 OFFCURVE",
"403 645 CURVE SMOOTH",
"456 645 OFFCURVE",
"462 568 OFFCURVE",
"482 363 CURVE SMOOTH",
"501.994 156.061 OFFCURVE"
);
}
);
vertWidth = 0;
width = 1032;
},
{
anchors = (
{
name = top;
position = "{593, 700}";
}
);
layerId = "0A0D3988-4955-4F5A-8D07-882FAAFF61A2";
paths = (
{
closed = 1;
nodes = (
"662.652 502 OFFCURVE",
"846.427 545 OFFCURVE",
"1039 545 CURVE SMOOTH",
"1070 545 OFFCURVE",
"1080 568 OFFCURVE",
"1080 597 CURVE SMOOTH",
"1080 661 OFFCURVE",
"1014 712 OFFCURVE",
"903 712 CURVE SMOOTH",
"819.155 712 OFFCURVE",
"651.81 696.959 OFFCURVE",
"514 652 CURVE SMOOTH",
"480 641 OFFCURVE",
"473 622 OFFCURVE",
"473 597 CURVE SMOOTH",
"473 546 OFFCURVE",
"518 502 OFFCURVE",
"604 502 CURVE SMOOTH"
);
},
{
closed = 1;
nodes = (
"287.839 157.07 OFFCURVE",
"490.275 252.312 OFFCURVE",
"891 276 CURVE SMOOTH",
"947 280 OFFCURVE",
"988 314 OFFCURVE",
"988 378 CURVE SMOOTH",
"988 432 OFFCURVE",
"972 444 OFFCURVE",
"902 444 CURVE SMOOTH",
"760.746 444 OFFCURVE",
"338.179 366.238 OFFCURVE",
"93 300 CURVE SMOOTH",
"28 283 OFFCURVE",
"16 270 OFFCURVE",
"16 248 CURVE SMOOTH",
"16 196 OFFCURVE",
"75 160 OFFCURVE",
"134 160 CURVE SMOOTH"
);
},
{
closed = 1;
nodes = (
"565 -7 OFFCURVE",
"785 -7 CURVE SMOOTH",
"974.51 -7 OFFCURVE",
"1077 45 OFFCURVE",
"1077 139 CURVE SMOOTH",
"1077 177 OFFCURVE",
"1064 201 OFFCURVE",
"1014 201 CURVE SMOOTH",
"973.757 201 OFFCURVE",
"901.895 168 OFFCURVE",
"785 168 CURVE SMOOTH",
"695 168 OFFCURVE",
"665 250 OFFCURVE",
"654 357 CURVE SMOOTH",
"625 610 OFFCURVE",
"581 711 OFFCURVE",
"433 711 CURVE SMOOTH",
"338 711 OFFCURVE",
"250 642 OFFCURVE",
"197 517 CURVE",
"279 535 LINE",
"241 570 OFFCURVE",
"218 585 OFFCURVE",
"189 585 CURVE SMOOTH",
"155 585 OFFCURVE",
"140 569 OFFCURVE",
"140 544 CURVE SMOOTH",
"140 423 OFFCURVE",
"79 319 OFFCURVE",
"79 160 CURVE SMOOTH",
"79 54 OFFCURVE",
"135 -8 OFFCURVE",
"184 -8 CURVE SMOOTH",
"225 -10 OFFCURVE",
"244 10 OFFCURVE",
"249 57 CURVE SMOOTH",
"286 354 OFFCURVE",
"367 538 OFFCURVE",
"425 538 CURVE SMOOTH",
"443 538 OFFCURVE",
"455 530 OFFCURVE",
"470 362 CURVE SMOOTH",
"490 137 OFFCURVE"
);
}
);
vertWidth = 0;
width = 1117;
},
{
associatedMasterId = "0A0D3988-4955-4F5A-8D07-882FAAFF61A2";
layerId = "9303A361-2D11-4595-BF26-D3B43D594B55";
name = bg;
paths = (
{
closed = 1;
nodes = (
"664 502 OFFCURVE",
"852 545 OFFCURVE",
"1049 545 CURVE SMOOTH",
"1080 545 OFFCURVE",
"1090 568 OFFCURVE",
"1090 597 CURVE SMOOTH",
"1090 661 OFFCURVE",
"1024 712 OFFCURVE",
"913 712 CURVE SMOOTH",
"827 712 OFFCURVE",
"655 698 OFFCURVE",
"514 652 CURVE SMOOTH",
"480 641 OFFCURVE",
"473 622 OFFCURVE",
"473 597 CURVE SMOOTH",
"473 546 OFFCURVE",
"518 502 OFFCURVE",
"604 502 CURVE SMOOTH"
);
},
{
closed = 1;
nodes = (
"290 157 OFFCURVE",
"495 248 OFFCURVE",
"901 272 CURVE SMOOTH",
"957 276 OFFCURVE",
"998 312 OFFCURVE",
"998 378 CURVE SMOOTH",
"998 432 OFFCURVE",
"982 444 OFFCURVE",
"912 444 CURVE SMOOTH",
"769 444 OFFCURVE",
"341 367 OFFCURVE",
"93 300 CURVE SMOOTH",
"28 283 OFFCURVE",
"16 270 OFFCURVE",
"16 248 CURVE SMOOTH",
"16 196 OFFCURVE",
"75 160 OFFCURVE",
"134 160 CURVE SMOOTH"
);
},
{
closed = 0;
nodes = (
"492 293 LINE",
"492 130 OFFCURVE",
"586 -7 OFFCURVE",
"785 -7 CURVE SMOOTH",
"981 -7 OFFCURVE",
"1087 45 OFFCURVE",
"1087 139 CURVE SMOOTH",
"1087 177 OFFCURVE",
"1074 201 OFFCURVE",
"1024 201 CURVE SMOOTH",
"982 201 OFFCURVE",
"907 168 OFFCURVE",
"785 168 CURVE SMOOTH",
"711 168 OFFCURVE",
"675 224 OFFCURVE",
"661 303 CURVE SMOOTH",
"658 320 OFFCURVE",
"656 338 OFFCURVE",
"654 357 CURVE SMOOTH",
"625 610 OFFCURVE",
"581 711 OFFCURVE",
"433 711 CURVE SMOOTH",
"338 711 OFFCURVE",
"250 642 OFFCURVE",
"197 517 CURVE",
"279 535 LINE",
"241 570 OFFCURVE",
"218 585 OFFCURVE",
"189 585 CURVE SMOOTH",
"155 585 OFFCURVE",
"140 569 OFFCURVE",
"140 544 CURVE SMOOTH",
"140 423 OFFCURVE",
"79 319 OFFCURVE",
"79 160 CURVE SMOOTH",
"79 54 OFFCURVE",
"135 -8 OFFCURVE",
"184 -8 CURVE SMOOTH",
"225 -10 OFFCURVE",
"244 10 OFFCURVE",
"249 57 CURVE SMOOTH",
"286 354 OFFCURVE",
"367 538 OFFCURVE",
"425 538 CURVE SMOOTH",
"443 538 OFFCURVE",
"451 530 OFFCURVE",
"470 362 CURVE SMOOTH",
"472 344 OFFCURVE",
"474 325 OFFCURVE",
"477 306 CURVE"
);
}
);
vertWidth = 0;
width = 1484;
}
);
unicode = 00C6;
},
{
color = (0,242,242,64);
glyphname = Eth;
layers = (
{
components = (
{
name = D;
transform = "{1, 0, 0, 1, 10, 0}";
}
);
layerId = "DC44E50C-9AA1-421C-802C-D4D023281425";
paths = (
{
closed = 1;
nodes = (
"113 312 OFFCURVE",
"170 323 OFFCURVE",
"328 323 CURVE SMOOTH",
"360 323 OFFCURVE",
"379 334 OFFCURVE",
"379 352 CURVE SMOOTH",
"379 365 OFFCURVE",
"357 386 OFFCURVE",
"295 386 CURVE SMOOTH",
"211 386 OFFCURVE",
"136 382 OFFCURVE",
"47 371 CURVE SMOOTH",
"22 368 OFFCURVE",
"15 353 OFFCURVE",
"15 342 CURVE SMOOTH",
"15 327 OFFCURVE",
"37 312 OFFCURVE",
"78 312 CURVE SMOOTH"
);
}
);
vertWidth = 0;
width = 642;
},
{
components = (
{
name = D;
transform = "{1, 0, 0, 1, 40, 0}";
}
);
layerId = "0A0D3988-4955-4F5A-8D07-882FAAFF61A2";
paths = (
{
closed = 1;
nodes = (
"182 267 OFFCURVE",
"232 291 OFFCURVE",
"369 291 CURVE SMOOTH",
"401 291 OFFCURVE",
"420 310 OFFCURVE",
"420 340 CURVE SMOOTH",
"420 374 OFFCURVE",
"380 430 OFFCURVE",
"270 430 CURVE SMOOTH",
"206 430 OFFCURVE",
"148 428 OFFCURVE",
"77 406 CURVE SMOOTH",
"49 398 OFFCURVE",
"43 384 OFFCURVE",
"43 362 CURVE SMOOTH",
"43 316 OFFCURVE",
"81 267 OFFCURVE",
"151 267 CURVE SMOOTH"
);
}
);
vertWidth = 0;
width = 747;
}
);
unicode = 00D0;
},
{
glyphname = Oslash;
layers = (
{
anchors = (
{
name = top;
position = "{364, 700}";
}
);
layerId = "DC44E50C-9AA1-421C-802C-D4D023281425";
paths = (
{
closed = 1;
nodes = (
"341 610 OFFCURVE",
"337 662 OFFCURVE",
"292 662 CURVE SMOOTH",
"264 662 OFFCURVE",
"70 529.966 OFFCURVE",
"70 290 CURVE SMOOTH",
"70 131 OFFCURVE",
"166 -10 OFFCURVE",
"347 -10 CURVE SMOOTH",
"535 -10 OFFCURVE",
"656 127 OFFCURVE",
"656 300 CURVE SMOOTH",
"656 528 OFFCURVE",
"555 711 OFFCURVE",
"365 711 CURVE SMOOTH",
"283 711 OFFCURVE",
"243 677 OFFCURVE",
"243 650 CURVE SMOOTH",
"243 630 OFFCURVE",
"252 621 OFFCURVE",
"271 621 CURVE SMOOTH",
"292 621 OFFCURVE",
"308 644 OFFCURVE",
"359 644 CURVE SMOOTH",
"511 644 OFFCURVE",
"586 460.599 OFFCURVE",
"586 300 CURVE SMOOTH",
"586 151 OFFCURVE",
"484 56 OFFCURVE",
"347 56 CURVE SMOOTH",
"205 56 OFFCURVE",
"140 169 OFFCURVE",
"140 290 CURVE SMOOTH",
"140 452.39 OFFCURVE",
"241 545 OFFCURVE",
"299 584 CURVE SMOOTH"
);
},
{
closed = 1;
nodes = (
"716 662 OFFCURVE",
"715 708 OFFCURVE",
"677 708 CURVE SMOOTH",
"657 708 OFFCURVE",
"645 702 OFFCURVE",
"624 682 CURVE SMOOTH",
"379 465 OFFCURVE",
"211 251 OFFCURVE",
"46 0 CURVE SMOOTH",
"28 -29 OFFCURVE",
"37 -61 OFFCURVE",
"69 -61 CURVE SMOOTH",
"80 -61 OFFCURVE",
"92 -53 OFFCURVE",
"104 -35 CURVE SMOOTH",
"257 197 OFFCURVE",
"423 405 OFFCURVE",
"680 630 CURVE SMOOTH"
);
}
);
vertWidth = 0;
width = 726;
},
{
anchors = (
{
name = top;
position = "{373, 700}";
}
);
layerId = "0A0D3988-4955-4F5A-8D07-882FAAFF61A2";
paths = (
{
closed = 1;
nodes = (
"383 524 OFFCURVE",
"369 618 OFFCURVE",
"277 618 CURVE SMOOTH",
"235 618 OFFCURVE",
"50 488 OFFCURVE",
"50 290 CURVE SMOOTH",
"50 110 OFFCURVE",
"195 -10 OFFCURVE",
"367 -10 CURVE SMOOTH",
"550 -10 OFFCURVE",
"716 131 OFFCURVE",
"716 300 CURVE SMOOTH",
"716 493 OFFCURVE",
"564 711 OFFCURVE",
"374 711 CURVE SMOOTH",
"279 711 OFFCURVE",
"225 661 OFFCURVE",
"225 598 CURVE SMOOTH",
"225 544 OFFCURVE",
"256 518 OFFCURVE",
"293 518 CURVE SMOOTH",
"336 518 OFFCURVE",
"337 538 OFFCURVE",
"381 538 CURVE SMOOTH",
"465 538 OFFCURVE",
"546 401 OFFCURVE",
"546 300 CURVE SMOOTH",
"546 224 OFFCURVE",
"463 164 OFFCURVE",
"367 164 CURVE SMOOTH",
"284 164 OFFCURVE",
"220 204 OFFCURVE",
"220 290 CURVE SMOOTH",
"220 363 OFFCURVE",
"241 412 OFFCURVE",
"335 486 CURVE SMOOTH"
);
},
{
closed = 1;
nodes = (
"763 596 OFFCURVE",
"733 705 OFFCURVE",
"663 705 CURVE SMOOTH",
"634 705 OFFCURVE",
"602 692 OFFCURVE",
"564 656 CURVE SMOOTH",
"417 520 OFFCURVE",
"221 281 OFFCURVE",
"81 45 CURVE SMOOTH",
"43 -17 OFFCURVE",
"91 -95 OFFCURVE",
"152 -95 CURVE SMOOTH",
"184 -95 OFFCURVE",
"211 -75 OFFCURVE",
"233 -37 CURVE SMOOTH",
"366 195 OFFCURVE",
"499 356 OFFCURVE",
"671 513 CURVE SMOOTH"
);
}
);
vertWidth = 0;
width = 766;
}
);
unicode = 00D8;
},
{
color = (0,242,242,64);
glyphname = Thorn;
layers = (
{
layerId = "DC44E50C-9AA1-421C-802C-D4D023281425";
paths = (
{
closed = 1;
nodes = (
"151 -11 OFFCURVE",
"161 0 OFFCURVE",
"161 19 CURVE SMOOTH",
"161 73 OFFCURVE",
"149 69 OFFCURVE",
"149 225 CURVE SMOOTH",
"149 337.89 OFFCURVE",
"169 480.321 OFFCURVE",
"169 570 CURVE SMOOTH",
"169 627.595 OFFCURVE",
"163.577 710 OFFCURVE",
"122 710 CURVE SMOOTH",
"107 710 OFFCURVE",
"95 700 OFFCURVE",
"95 676 CURVE SMOOTH",
"95 642.661 OFFCURVE",
"102 626.419 OFFCURVE",
"102 570 CURVE SMOOTH",
"102 498.647 OFFCURVE",
"83 353.841 OFFCURVE",
"83 187 CURVE SMOOTH",
"83 41 OFFCURVE",
"96 -11 OFFCURVE",
"135 -11 CURVE SMOOTH"
);
},
{
closed = 1;
nodes = (
"207.492 505.843 OFFCURVE",
"250.268 523 OFFCURVE",
"308 523 CURVE SMOOTH",
"385.812 523 OFFCURVE",
"458 476 OFFCURVE",
"458 380 CURVE SMOOTH",
"458 289 OFFCURVE",
"377 208 OFFCURVE",
"256 208 CURVE SMOOTH",
"190.98 208 OFFCURVE",
"177.755 236 OFFCURVE",
"148 236 CURVE SMOOTH",
"137 236 OFFCURVE",
"129 228 OFFCURVE",
"129 213 CURVE SMOOTH",
"129 176.833 OFFCURVE",
"183.167 143 OFFCURVE",
"259 143 CURVE SMOOTH",
"416 143 OFFCURVE",
"525 260 OFFCURVE",
"525 380 CURVE SMOOTH",
"525 512 OFFCURVE",
"427.513 588 OFFCURVE",
"309 588 CURVE SMOOTH",
"223.091 588 OFFCURVE",
"165.463 556.822 OFFCURVE",
"134 501 CURVE SMOOTH",
"121 479 OFFCURVE",
"133 453 OFFCURVE",
"153 453 CURVE SMOOTH",
"167 453 OFFCURVE",
"179 458 OFFCURVE",
"186 469 CURVE SMOOTH"
);
}
);
vertWidth = 0;
width = 575;
},
{
layerId = "0A0D3988-4955-4F5A-8D07-882FAAFF61A2";
paths = (
{
closed = 1;
nodes = (
"210 -12 OFFCURVE",
"240 13 OFFCURVE",
"240 56 CURVE SMOOTH",
"240 99 OFFCURVE",
"229 131 OFFCURVE",
"229 193 CURVE SMOOTH",
"229 332 OFFCURVE",
"252 467 OFFCURVE",
"252 552 CURVE SMOOTH",
"252 617 OFFCURVE",
"238 711 OFFCURVE",
"137 711 CURVE SMOOTH",
"85 711 OFFCURVE",
"67 686.662 OFFCURVE",
"67 647 CURVE SMOOTH",
"67 615.142 OFFCURVE",
"77 591.779 OFFCURVE",
"77 527 CURVE SMOOTH",
"77 462.886 OFFCURVE",
"55 334.657 OFFCURVE",
"55 187 CURVE SMOOTH",
"55 40 OFFCURVE",
"79 -12 OFFCURVE",
"163 -12 CURVE SMOOTH"
);
},
{
closed = 1;
nodes = (
"300 438 OFFCURVE",
"322 446 OFFCURVE",
"358 446 CURVE SMOOTH",
"403 446 OFFCURVE",
"446 431.245 OFFCURVE",
"446 400 CURVE SMOOTH",
"446 352.091 OFFCURVE",
"369 298 OFFCURVE",
"294 298 CURVE SMOOTH",
"237 298 OFFCURVE",
"225 316 OFFCURVE",
"200 316 CURVE SMOOTH",
"165 316 OFFCURVE",
"137 294 OFFCURVE",
"137 253 CURVE SMOOTH",
"137 186 OFFCURVE",
"207 123 OFFCURVE",
"301 123 CURVE SMOOTH",
"474 123 OFFCURVE",
"619 265.56 OFFCURVE",
"619 400 CURVE SMOOTH",
"619 540.548 OFFCURVE",
"501 621 OFFCURVE",
"357 621 CURVE SMOOTH",
"264 621 OFFCURVE",
"212.262 587.942 OFFCURVE",
"175 523 CURVE SMOOTH",
"136 455 OFFCURVE",
"176 394 OFFCURVE",
"225 394 CURVE SMOOTH",
"255.684 394 OFFCURVE",
"266 400 OFFCURVE",
"278 413 CURVE SMOOTH"
);
}
);
vertWidth = 0;
width = 649;
}
);
unicode = 00DE;
},
{
glyphname = Hbar;
layers = (
{
components = (
{
name = H;
}
);
layerId = "DC44E50C-9AA1-421C-802C-D4D023281425";
paths = (
{
closed = 1;
nodes = (
"188.63 500 OFFCURVE",
"305.706 510 OFFCURVE",
"632 510 CURVE SMOOTH",
"664 510 OFFCURVE",
"683 521 OFFCURVE",
"683 539 CURVE SMOOTH",
"683 552 OFFCURVE",
"661 573 OFFCURVE",
"599 573 CURVE SMOOTH",
"426.582 573 OFFCURVE",
"263.875 569.841 OFFCURVE",
"85 559 CURVE SMOOTH",
"60 557 OFFCURVE",
"53 541 OFFCURVE",
"53 530 CURVE SMOOTH",
"53 515 OFFCURVE",
"75 500 OFFCURVE",
"116 500 CURVE SMOOTH"
);
}
);
vertWidth = 0;
width = 736;
},
{
components = (
{
name = H;
}
);
layerId = "0A0D3988-4955-4F5A-8D07-882FAAFF61A2";
paths = (
{
closed = 1;
nodes = (
"216 490 OFFCURVE",
"325 500 OFFCURVE",
"622 500 CURVE SMOOTH",
"658.061 500 OFFCURVE",
"679 517.889 OFFCURVE",
"679 546 CURVE SMOOTH",
"679 590.571 OFFCURVE",
"636.975 624 OFFCURVE",
"513 624 CURVE SMOOTH",
"389 624 OFFCURVE",
"248 621 OFFCURVE",
"77 602 CURVE SMOOTH",
"42 598 OFFCURVE",
"25 583 OFFCURVE",
"25 559 CURVE SMOOTH",
"25 519 OFFCURVE",
"60 490 OFFCURVE",
"150 490 CURVE SMOOTH"
);
}
);
vertWidth = 0;
width = 715;
}
);
unicode = 0126;
},
{
glyphname = IJ;
layers = (
{
anchors = (
{
name = top;
position = "{331, 700}";
}
);
background = {
paths = (
{
closed = 1;
nodes = (
"484 -12 OFFCURVE",
"565 50 OFFCURVE",
"565 186 CURVE SMOOTH",
"565 300 OFFCURVE",
"523 496 OFFCURVE",
"476 622 CURVE SMOOTH",
"462 662 OFFCURVE",
"447 676 OFFCURVE",
"413 676 CURVE SMOOTH",
"387 676 OFFCURVE",
"389 644 OFFCURVE",
"401 615 CURVE SMOOTH",
"450 496 OFFCURVE",
"497 296 OFFCURVE",
"497 192 CURVE SMOOTH",
"497 97 OFFCURVE",
"457 53 OFFCURVE",
"334 53 CURVE SMOOTH",
"240 53 OFFCURVE",
"199 81 OFFCURVE",
"199 123 CURVE SMOOTH",
"199 135 OFFCURVE",
"205 139 OFFCURVE",
"205 146 CURVE SMOOTH",
"205 162 OFFCURVE",
"197 169 OFFCURVE",
"183 169 CURVE SMOOTH",
"162 169 OFFCURVE",
"131 140 OFFCURVE",
"131 111 CURVE SMOOTH",
"131 34 OFFCURVE",
"214 -12 OFFCURVE",
"334 -12 CURVE SMOOTH"
);
},
{
closed = 1;
nodes = (
"369 636 OFFCURVE",
"451 646 OFFCURVE",
"536 646 CURVE SMOOTH",
"569 646 OFFCURVE",
"586 657 OFFCURVE",
"586 676 CURVE SMOOTH",
"586 705 OFFCURVE",
"562 712 OFFCURVE",
"540 712 CURVE SMOOTH",
"447 712 OFFCURVE",
"400 702 OFFCURVE",
"332 702 CURVE SMOOTH",
"291 702 OFFCURVE",
"285 706 OFFCURVE",
"258 706 CURVE SMOOTH",
"240 706 OFFCURVE",
"230 696 OFFCURVE",
"230 680 CURVE SMOOTH",
"230 648 OFFCURVE",
"281 636 OFFCURVE",
"317 636 CURVE SMOOTH"
);
},
{
closed = 1;
nodes = (
"119 240 OFFCURVE",
"128 249 OFFCURVE",
"128 269 CURVE SMOOTH",
"128 438 OFFCURVE",
"145 574 OFFCURVE",
"145 645 CURVE SMOOTH",
"145 684 OFFCURVE",
"126 715 OFFCURVE",
"103 715 CURVE SMOOTH",
"84 715 OFFCURVE",
"78 701 OFFCURVE",
"78 674 CURVE SMOOTH",
"78 579 OFFCURVE",
"61 449 OFFCURVE",
"61 317 CURVE SMOOTH",
"61 270 OFFCURVE",
"78 240 OFFCURVE",
"104 240 CURVE SMOOTH"
);
}
);
};
layerId = "DC44E50C-9AA1-421C-802C-D4D023281425";
paths = (
{
closed = 1;
nodes = (
"103 164 OFFCURVE",
"103 131 CURVE SMOOTH",
"103 41 OFFCURVE",
"198 -12 OFFCURVE",
"336 -12 CURVE SMOOTH",
"492 -12 OFFCURVE",
"577 56 OFFCURVE",
"577 206 CURVE SMOOTH",
"577 315 OFFCURVE",
"537 501 OFFCURVE",
"502 622 CURVE SMOOTH",
"491 662 OFFCURVE",
"478 677 OFFCURVE",
"452 677 CURVE SMOOTH",
"426 677 OFFCURVE",
"424 645 OFFCURVE",
"432 616 CURVE SMOOTH",
"464 501 OFFCURVE",
"509 311 OFFCURVE",
"509 212 CURVE SMOOTH",
"509 103 OFFCURVE",
"467 53 OFFCURVE",
"336 53 CURVE SMOOTH",
"221 53 OFFCURVE",
"171 89 OFFCURVE",
"171 143 CURVE SMOOTH",
"171 171 OFFCURVE",
"168 188 OFFCURVE",
"147 188 CURVE SMOOTH",
"123 188 OFFCURVE"
);
},
{
closed = 1;
nodes = (
"381 636 OFFCURVE",
"463 646 OFFCURVE",
"548 646 CURVE SMOOTH",
"581 646 OFFCURVE",
"598 657 OFFCURVE",
"598 676 CURVE SMOOTH",
"598 705 OFFCURVE",
"574 712 OFFCURVE",
"552 712 CURVE SMOOTH",
"459 712 OFFCURVE",
"412 702 OFFCURVE",
"344 702 CURVE SMOOTH",
"303 702 OFFCURVE",
"297 706 OFFCURVE",
"270 706 CURVE SMOOTH",
"252 706 OFFCURVE",
"242 696 OFFCURVE",
"242 680 CURVE SMOOTH",
"242 648 OFFCURVE",
"293 636 OFFCURVE",
"329 636 CURVE SMOOTH"
);
},
{
closed = 1;
nodes = (
"83 462 OFFCURVE",
"83 337 CURVE SMOOTH",
"83 296 OFFCURVE",
"101 270 OFFCURVE",
"128 270 CURVE SMOOTH",
"143 270 OFFCURVE",
"152 279 OFFCURVE",
"152 299 CURVE SMOOTH",
"152 455 OFFCURVE",
"169 580 OFFCURVE",
"169 645 CURVE SMOOTH",
"169 684 OFFCURVE",
"149 715 OFFCURVE",
"125 715 CURVE SMOOTH",
"106 715 OFFCURVE",
"100 701 OFFCURVE",
"100 674 CURVE SMOOTH",
"100 584 OFFCURVE"
);
}
);
vertWidth = 0;
width = 651;
},
{
anchors = (
{
name = top;
position = "{341, 700}";
}
);
layerId = "0A0D3988-4955-4F5A-8D07-882FAAFF61A2";
paths = (
{
closed = 1;
nodes = (
"94 181 OFFCURVE",
"94 128 CURVE SMOOTH",
"94 46 OFFCURVE",
"184.726 -12 OFFCURVE",
"317 -12 CURVE SMOOTH",
"533.117 -12 OFFCURVE",
"648 68 OFFCURVE",
"648 246 CURVE SMOOTH",
"648 336 OFFCURVE",
"626 465 OFFCURVE",
"594 575 CURVE SMOOTH",
"570 656 OFFCURVE",
"531 674 OFFCURVE",
"456 677 CURVE SMOOTH",
"422 677 OFFCURVE",
"404 644 OFFCURVE",
"417 593 CURVE SMOOTH",
"451 464 OFFCURVE",
"470 356 OFFCURVE",
"470 272 CURVE SMOOTH",
"470 195 OFFCURVE",
"432.089 161 OFFCURVE",
"317 161 CURVE SMOOTH",
"271.429 161 OFFCURVE",
"259 176 OFFCURVE",
"259 204 CURVE SMOOTH",
"259 228.828 OFFCURVE",
"245 244 OFFCURVE",
"210 244 CURVE SMOOTH",
"126 244 OFFCURVE"
);
},
{
closed = 1;
nodes = (
"463 529 OFFCURVE",
"540 539 OFFCURVE",
"619 539 CURVE SMOOTH",
"665 539 OFFCURVE",
"689 560 OFFCURVE",
"689 599 CURVE SMOOTH",
"689 688 OFFCURVE",
"601 707 OFFCURVE",
"523 707 CURVE SMOOTH",
"483 707 OFFCURVE",
"463 703 OFFCURVE",
"434 703 CURVE SMOOTH",
"406 703 OFFCURVE",
"378 708 OFFCURVE",
"344 708 CURVE SMOOTH",
"312 708 OFFCURVE",
"294 686 OFFCURVE",
"294 652 CURVE SMOOTH",
"294 562 OFFCURVE",
"365 529 OFFCURVE",
"415 529 CURVE SMOOTH"
);
},
{
closed = 1;
nodes = (
"50 472 OFFCURVE",
"50 377 CURVE SMOOTH",
"50 318.075 OFFCURVE",
"93 280 OFFCURVE",
"159 280 CURVE SMOOTH",
"200 280 OFFCURVE",
"223 313 OFFCURVE",
"223 379 CURVE SMOOTH",
"223 489.508 OFFCURVE",
"233 578 OFFCURVE",
"233 625 CURVE SMOOTH",
"233 675 OFFCURVE",
"184 715 OFFCURVE",
"125 715 CURVE SMOOTH",
"74 715 OFFCURVE",
"58 688 OFFCURVE",
"58 634 CURVE SMOOTH",
"58 565 OFFCURVE"
);
}
);
vertWidth = 0;
width = 717;
}
);
unicode = 0132;
},
{
color = 10;
glyphname = Ldot;
layers = (
{
components = (
{
name = L;
}
);
layerId = "DC44E50C-9AA1-421C-802C-D4D023281425";
paths = (
{
closed = 1;
nodes = (
"447 303 OFFCURVE",
"460 329 OFFCURVE",
"460 354 CURVE SMOOTH",
"460 389 OFFCURVE",
"431 432 OFFCURVE",
"383 432 CURVE SMOOTH",
"357 432 OFFCURVE",
"335 412 OFFCURVE",
"335 384 CURVE SMOOTH",
"335 343 OFFCURVE",
"371 303 OFFCURVE",
"413 303 CURVE SMOOTH"
);
}
);
vertWidth = 0;
width = 556;
},
{
components = (
{
name = L;
}
);
layerId = "0A0D3988-4955-4F5A-8D07-882FAAFF61A2";
paths = (
{
closed = 1;
nodes = (
"485 320 OFFCURVE",
"512 348 OFFCURVE",
"512 387 CURVE SMOOTH",
"512 438 OFFCURVE",
"479 495 OFFCURVE",
"393 495 CURVE SMOOTH",
"345 495 OFFCURVE",
"316 464 OFFCURVE",
"316 416 CURVE SMOOTH",
"316 351 OFFCURVE",
"355 320 OFFCURVE",
"433 320 CURVE SMOOTH"
);
}
);
vertWidth = 0;
width = 536;
}
);
unicode = 013F;
},
{
glyphname = Lslash;
layers = (
{
components = (
{
name = L;
}
);
layerId = "DC44E50C-9AA1-421C-802C-D4D023281425";
paths = (
{
closed = 1;
nodes = (
"111 275 OFFCURVE",
"161 310 OFFCURVE",
"340 436 CURVE SMOOTH",
"380 465 OFFCURVE",
"355 506 OFFCURVE",
"330 506 CURVE SMOOTH",
"316 506 OFFCURVE",
"306 501 OFFCURVE",
"276 479 CURVE SMOOTH",
"165 396 OFFCURVE",
"111 367 OFFCURVE",
"14 293 CURVE SMOOTH",
"-20 266 OFFCURVE",
"-2 231 OFFCURVE",
"27 231 CURVE SMOOTH",
"38 231 OFFCURVE",
"54 236 OFFCURVE",
"71 248 CURVE SMOOTH"
);
}
);
vertWidth = 0;
width = 556;
},
{
components = (
{
name = L;
transform = "{1, 0, 0, 1, 20, 0}";
}
);
layerId = "0A0D3988-4955-4F5A-8D07-882FAAFF61A2";
paths = (
{
closed = 1;
nodes = (
"198 252 OFFCURVE",
"242 290 OFFCURVE",
"431 441 CURVE SMOOTH",
"475 475 OFFCURVE",
"483 570 OFFCURVE",
"389 570 CURVE SMOOTH",
"366 570 OFFCURVE",
"338 561 OFFCURVE",
"307 533 CURVE SMOOTH",
"199 435 OFFCURVE",
"117 402 OFFCURVE",
"9 290 CURVE SMOOTH",
"-37 243 OFFCURVE",
"-2 179 OFFCURVE",
"62 179 CURVE SMOOTH",
"88 179 OFFCURVE",
"119 191 OFFCURVE",
"152 216 CURVE SMOOTH"
);
}
);
vertWidth = 0;
width = 546;
}
);
note = "just draw this";
unicode = 0141;
},
{
color = (0,242,242,64);
glyphname = Eng;
layers = (
{
layerId = "DC44E50C-9AA1-421C-802C-D4D023281425";
paths = (
{
closed = 1;
nodes = (
"135 -8 OFFCURVE",
"148 8 OFFCURVE",
"154 29 CURVE SMOOTH",
"182 114 OFFCURVE",
"193 217 OFFCURVE",
"193 342 CURVE SMOOTH",
"193 420 OFFCURVE",
"188 515 OFFCURVE",
"175 641 CURVE",
"164 637 LINE",
"353 486 OFFCURVE",
"374 -10 OFFCURVE",
"567 -10 CURVE SMOOTH",
"597.714 -10 OFFCURVE",
"610 12.897 OFFCURVE",
"610 37 CURVE SMOOTH",
"610 52.103 OFFCURVE",
"596 68 OFFCURVE",
"576 68 CURVE SMOOTH",
"432 68 OFFCURVE",
"354 710 OFFCURVE",
"156 710 CURVE SMOOTH",
"124 710 OFFCURVE",
"107 678 OFFCURVE",
"107 638 CURVE SMOOTH",
"107 605 OFFCURVE",
"123 457 OFFCURVE",
"123 342 CURVE SMOOTH",
"123 140 OFFCURVE",
"83 96 OFFCURVE",
"83 43 CURVE SMOOTH",
"83 4 OFFCURVE",
"99 -8 OFFCURVE",
"117 -8 CURVE SMOOTH"
);
},
{
closed = 1;
nodes = (
"378 -194 OFFCURVE",
"359 -172 OFFCURVE",
"324 -172 CURVE SMOOTH",
"306 -172 OFFCURVE",
"294 -183 OFFCURVE",
"294 -203 CURVE SMOOTH",
"294 -234 OFFCURVE",
"343 -260 OFFCURVE",
"429 -260 CURVE SMOOTH",
"577 -260 OFFCURVE",
"664 -158 OFFCURVE",
"664 44 CURVE SMOOTH",
"664 269 OFFCURVE",
"625 448 OFFCURVE",
"663 637 CURVE SMOOTH",
"670 674 OFFCURVE",
"657 707 OFFCURVE",
"632 707 CURVE SMOOTH",
"611 707 OFFCURVE",
"600 694 OFFCURVE",
"593 662 CURVE SMOOTH",
"555 489 OFFCURVE",
"594 271 OFFCURVE",
"594 39 CURVE SMOOTH",
"594 -116 OFFCURVE",
"531 -194 OFFCURVE",
"420 -194 CURVE SMOOTH"
);
}
);
vertWidth = 0;
width = 753;
},
{
layerId = "0A0D3988-4955-4F5A-8D07-882FAAFF61A2";
paths = (
{
closed = 1;
nodes = (
"179 -18 OFFCURVE",
"206 4 OFFCURVE",
"216 41 CURVE SMOOTH",
"236 114 OFFCURVE",
"247 217 OFFCURVE",
"247 342 CURVE SMOOTH",
"247 392 OFFCURVE",
"245 420 OFFCURVE",
"234 488 CURVE",
"203 482 LINE",
"358 257 OFFCURVE",
"405 -17 OFFCURVE",
"581 -17 CURVE SMOOTH",
"630 -17 OFFCURVE",
"661 16 OFFCURVE",
"661 60 CURVE SMOOTH",
"661 103 OFFCURVE",
"646 128 OFFCURVE",
"609 152 CURVE SMOOTH",
"479 236 OFFCURVE",
"380 710 OFFCURVE",
"140 710 CURVE SMOOTH",
"88 710 OFFCURVE",
"61 678 OFFCURVE",
"61 638 CURVE SMOOTH",
"61 605 OFFCURVE",
"77 457 OFFCURVE",
"77 342 CURVE SMOOTH",
"77 133 OFFCURVE",
"53 102 OFFCURVE",
"53 46 CURVE SMOOTH",
"53 13 OFFCURVE",
"73 -18 OFFCURVE",
"131 -18 CURVE SMOOTH"
);
},
{
closed = 1;
nodes = (
"442 -88 OFFCURVE",
"420 -67 OFFCURVE",
"381 -67 CURVE SMOOTH",
"349 -67 OFFCURVE",
"329 -89 OFFCURVE",
"329 -128 CURVE SMOOTH",
"329 -200 OFFCURVE",
"392 -260 OFFCURVE",
"503 -260 CURVE SMOOTH",
"645 -260 OFFCURVE",
"742 -178 OFFCURVE",
"742 30 CURVE SMOOTH",
"742 268 OFFCURVE",
"700 396 OFFCURVE",
"740 597 CURVE SMOOTH",
"749 640 OFFCURVE",
"733 715 OFFCURVE",
"649 715 CURVE SMOOTH",
"612 715 OFFCURVE",
"590 695 OFFCURVE",
"576 643 CURVE SMOOTH",
"524 448 OFFCURVE",
"572 275 OFFCURVE",
"572 44 CURVE SMOOTH",
"572 -50 OFFCURVE",
"546 -88 OFFCURVE",
"494 -88 CURVE SMOOTH"
);
}
);
vertWidth = 0;
width = 805;
}
);
unicode = 014A;
},
{
glyphname = OE;
layers = (
{
background = {
paths = (
{
closed = 1;
nodes = (
"744 297 OFFCURVE",
"877 314 OFFCURVE",
"969 320 CURVE SMOOTH",
"1007 322 OFFCURVE",
"1042 330 OFFCURVE",
"1042 360 CURVE SMOOTH",
"1042 376 OFFCURVE",
"1032 386 OFFCURVE",
"996 386 CURVE SMOOTH",
"934 385 OFFCURVE",
"788 369 OFFCURVE",
"685 352 CURVE SMOOTH",
"642 345 OFFCURVE",
"618 330 OFFCURVE",
"618 312 CURVE SMOOTH",
"618 293 OFFCURVE",
"632 271 OFFCURVE",
"675 281 CURVE SMOOTH"
);
},
{
closed = 1;
nodes = (
"625 499 OFFCURVE",
"588 393 OFFCURVE",
"588 293 CURVE SMOOTH",
"588 119 OFFCURVE",
"695 -7 OFFCURVE",
"881 -7 CURVE SMOOTH",
"1062 -7 OFFCURVE",
"1142 46 OFFCURVE",
"1142 81 CURVE SMOOTH",
"1142 97 OFFCURVE",
"1136 109 OFFCURVE",
"1118 109 CURVE SMOOTH",
"1095 109 OFFCURVE",
"1051 58 OFFCURVE",
"877 58 CURVE SMOOTH",
"744 58 OFFCURVE",
"655 153 OFFCURVE",
"656 295 CURVE SMOOTH",
"657 401 OFFCURVE",
"701 512 OFFCURVE",
"764 602 CURVE SMOOTH",
"769 610 OFFCURVE",
"773 616 OFFCURVE",
"775 622 CURVE",
"830 626 OFFCURVE",
"900 643 OFFCURVE",
"1085 643 CURVE SMOOTH",
"1118 643 OFFCURVE",
"1130 660 OFFCURVE",
"1130 683 CURVE SMOOTH",
"1130 697 OFFCURVE",
"1120 708 OFFCURVE",
"1101 708 CURVE SMOOTH",
"1001 708 OFFCURVE",
"846 699 OFFCURVE",
"737 681 CURVE SMOOTH",
"718 677 OFFCURVE",
"710 661 OFFCURVE",
"710 650 CURVE SMOOTH",
"710 643 OFFCURVE",
"712 636 OFFCURVE",
"717 632 CURVE",
"700 617 OFFCURVE",
"684 594 OFFCURVE",
"669 569 CURVE SMOOTH"
);
}
);
};
layerId = "DC44E50C-9AA1-421C-802C-D4D023281425";
paths = (
{
closed = 1;
nodes = (
"744 307 OFFCURVE",
"877 324 OFFCURVE",
"969 330 CURVE SMOOTH",
"1007 332 OFFCURVE",
"1042 340 OFFCURVE",
"1042 370 CURVE SMOOTH",
"1042 386 OFFCURVE",
"1032 396 OFFCURVE",
"996 396 CURVE SMOOTH",
"934 395 OFFCURVE",
"788 379 OFFCURVE",
"685 362 CURVE SMOOTH",
"642 355 OFFCURVE",
"618 340 OFFCURVE",
"618 322 CURVE SMOOTH",
"618 303 OFFCURVE",
"632 281 OFFCURVE",
"675 291 CURVE SMOOTH"
);
},
{
closed = 1;
nodes = (
"588 293 CURVE SMOOTH",
"588 119 OFFCURVE",
"695 -7 OFFCURVE",
"881 -7 CURVE SMOOTH",
"1052 -7 OFFCURVE",
"1138 66 OFFCURVE",
"1138 104 CURVE SMOOTH",
"1138 120 OFFCURVE",
"1132 132 OFFCURVE",
"1119 132 CURVE SMOOTH",
"1086 132 OFFCURVE",
"1048 58 OFFCURVE",
"877 58 CURVE SMOOTH",
"744 58 OFFCURVE",
"654 153 OFFCURVE",
"656 295 CURVE SMOOTH",
"659 511 OFFCURVE",
"820 643 OFFCURVE",
"1085 643 CURVE SMOOTH",
"1118 643 OFFCURVE",
"1130 658.3 OFFCURVE",
"1130 679 CURVE SMOOTH",
"1130 695.24 OFFCURVE",
"1118.78 708 OFFCURVE",
"1084 708 CURVE SMOOTH",
"775.114 708 OFFCURVE",
"588 560 OFFCURVE"
);
},
{
closed = 1;
nodes = (
"303 584 OFFCURVE",
"322 605 OFFCURVE",
"305 630 CURVE SMOOTH",
"296 644 OFFCURVE",
"287 645 OFFCURVE",
"279 645 CURVE SMOOTH",
"245 645 OFFCURVE",
"70 519 OFFCURVE",
"70 290 CURVE SMOOTH",
"70 131 OFFCURVE",
"166 -10 OFFCURVE",
"347 -10 CURVE SMOOTH",
"535 -10 OFFCURVE",
"656 127 OFFCURVE",
"656 300 CURVE SMOOTH",
"656 526 OFFCURVE",
"550 711 OFFCURVE",
"363 711 CURVE SMOOTH",
"283 711 OFFCURVE",
"243 649 OFFCURVE",
"243 580 CURVE SMOOTH",
"243 551 OFFCURVE",
"262 535 OFFCURVE",
"280 535 CURVE SMOOTH",
"298 535 OFFCURVE",
"315 550 OFFCURVE",
"315 580 CURVE SMOOTH",
"315 617 OFFCURVE",
"326 646 OFFCURVE",
"372 646 CURVE SMOOTH",
"512 646 OFFCURVE",
"586 462 OFFCURVE",
"586 300 CURVE SMOOTH",
"586 151 OFFCURVE",
"484 56 OFFCURVE",
"347 56 CURVE SMOOTH",
"205 56 OFFCURVE",
"140 169 OFFCURVE",
"140 290 CURVE SMOOTH",
"140 443 OFFCURVE",
"225 533 OFFCURVE",
"276 567 CURVE SMOOTH"
);
}
);
vertWidth = 0;
width = 1179;
},
{
layerId = "0A0D3988-4955-4F5A-8D07-882FAAFF61A2";
paths = (
{
closed = 1;
nodes = (
"757 251 OFFCURVE",
"830 264 OFFCURVE",
"964 272 CURVE SMOOTH",
"1019.963 275.997 OFFCURVE",
"1061 306.717 OFFCURVE",
"1061 364 CURVE SMOOTH",
"1061 418 OFFCURVE",
"1045 430 OFFCURVE",
"975 430 CURVE SMOOTH",
"835 425 OFFCURVE",
"759 411 OFFCURVE",
"694 396 CURVE SMOOTH",
"657.325 387.079 OFFCURVE",
"629 357.318 OFFCURVE",
"629 322 CURVE SMOOTH",
"629 269 OFFCURVE",
"641 225 OFFCURVE",
"688 235 CURVE SMOOTH"
);
},
{
closed = 1;
nodes = (
"555 293 CURVE SMOOTH",
"555 130 OFFCURVE",
"649 -7 OFFCURVE",
"848 -7 CURVE SMOOTH",
"1063.47 -7 OFFCURVE",
"1180 49 OFFCURVE",
"1180 151 CURVE SMOOTH",
"1180 189 OFFCURVE",
"1167 213 OFFCURVE",
"1117 213 CURVE SMOOTH",
"1070 213 OFFCURVE",
"985.314 168 OFFCURVE",
"848 168 CURVE SMOOTH",
"774 168 OFFCURVE",
"731 222 OFFCURVE",
"731 291 CURVE SMOOTH",
"731 492.457 OFFCURVE",
"789.42 529 OFFCURVE",
"1090 529 CURVE SMOOTH",
"1137.634 529 OFFCURVE",
"1153 559.077 OFFCURVE",
"1153 597 CURVE SMOOTH",
"1153 661 OFFCURVE",
"1087 712 OFFCURVE",
"976 712 CURVE SMOOTH",
"701 712 OFFCURVE",
"555 592 OFFCURVE"
);
},
{
closed = 1;
nodes = (
"370 541 OFFCURVE",
"365 595 OFFCURVE",
"342 625 CURVE SMOOTH",
"328 643 OFFCURVE",
"313 654 OFFCURVE",
"277 654 CURVE SMOOTH",
"218 654 OFFCURVE",
"50 505 OFFCURVE",
"50 290 CURVE SMOOTH",
"50 110 OFFCURVE",
"195 -10 OFFCURVE",
"367 -10 CURVE SMOOTH",
"550 -10 OFFCURVE",
"716 131 OFFCURVE",
"716 300 CURVE SMOOTH",
"716 496 OFFCURVE",
"592 711 OFFCURVE",
"374 711 CURVE SMOOTH",
"279 711 OFFCURVE",
"225 661 OFFCURVE",
"225 606 CURVE SMOOTH",
"225 525.628 OFFCURVE",
"280 485 OFFCURVE",
"334 485 CURVE SMOOTH",
"349 485 OFFCURVE",
"364 495 OFFCURVE",
"364 515 CURVE SMOOTH",
"364 529 OFFCURVE",
"367 539 OFFCURVE",
"385 539 CURVE SMOOTH",
"462 539 OFFCURVE",
"546 401.424 OFFCURVE",
"546 300 CURVE SMOOTH",
"546 224 OFFCURVE",
"463 164 OFFCURVE",
"367 164 CURVE SMOOTH",
"284 164 OFFCURVE",
"220 204 OFFCURVE",
"220 290 CURVE SMOOTH",
"220 376.759 OFFCURVE",
"239.022 437.66 OFFCURVE",
"340 517 CURVE SMOOTH"
);
}
);
vertWidth = 0;
width = 1227;
},
{
associatedMasterId = "0A0D3988-4955-4F5A-8D07-882FAAFF61A2";
layerId = "841A540D-A278-4E6A-85CA-7EE4FB0CC5C0";
name = bg;
paths = (
{
closed = 1;
nodes = (
"370 505 OFFCURVE",
"365 559 OFFCURVE",
"342 589 CURVE SMOOTH",
"328 607 OFFCURVE",
"295 618 OFFCURVE",
"277 618 CURVE SMOOTH",
"235 618 OFFCURVE",
"50 488 OFFCURVE",
"50 290 CURVE SMOOTH",
"50 110 OFFCURVE",
"195 -10 OFFCURVE",
"367 -10 CURVE SMOOTH",
"550 -10 OFFCURVE",
"716 131 OFFCURVE",
"716 300 CURVE SMOOTH",
"716 493 OFFCURVE",
"564 711 OFFCURVE",
"374 711 CURVE SMOOTH",
"279 711 OFFCURVE",
"225 661 OFFCURVE",
"225 606 CURVE SMOOTH",
"225 515 OFFCURVE",
"280 469 OFFCURVE",
"334 469 CURVE SMOOTH",
"352 469 OFFCURVE",
"369 484 OFFCURVE",
"369 514 CURVE SMOOTH",
"369 528 OFFCURVE",
"372 538 OFFCURVE",
"381 538 CURVE SMOOTH",
"465 538 OFFCURVE",
"546 401 OFFCURVE",
"546 300 CURVE SMOOTH",
"546 224 OFFCURVE",
"463 164 OFFCURVE",
"367 164 CURVE SMOOTH",
"284 164 OFFCURVE",
"220 204 OFFCURVE",
"220 290 CURVE SMOOTH",
"220 363 OFFCURVE",
"246 407 OFFCURVE",
"340 481 CURVE SMOOTH"
);
},
{
closed = 1;
nodes = (
"560 437 OFFCURVE",
"555 353 OFFCURVE",
"555 293 CURVE SMOOTH",
"555 130 OFFCURVE",
"649 -7 OFFCURVE",
"848 -7 CURVE SMOOTH",
"1044 -7 OFFCURVE",
"1150 45 OFFCURVE",
"1150 139 CURVE SMOOTH",
"1150 177 OFFCURVE",
"1137 201 OFFCURVE",
"1087 201 CURVE SMOOTH",
"1045 201 OFFCURVE",
"970 168 OFFCURVE",
"848 168 CURVE SMOOTH",
"774 168 OFFCURVE",
"731 222 OFFCURVE",
"731 291 CURVE SMOOTH",
"731 402 OFFCURVE",
"755 500 OFFCURVE",
"755 542 CURVE SMOOTH",
"755 583 OFFCURVE",
"711 606 OFFCURVE",
"686 606 CURVE SMOOTH",
"635 606 OFFCURVE",
"596 577 OFFCURVE",
"582 523 CURVE SMOOTH"
);
},
{
closed = 1;
nodes = (
"757 251 OFFCURVE",
"830 264 OFFCURVE",
"964 272 CURVE SMOOTH",
"1020 276 OFFCURVE",
"1061 312 OFFCURVE",
"1061 378 CURVE SMOOTH",
"1061 432 OFFCURVE",
"1045 444 OFFCURVE",
"975 444 CURVE",
"835 439 OFFCURVE",
"759 425 OFFCURVE",
"694 410 CURVE SMOOTH",
"657 401 OFFCURVE",
"629 364 OFFCURVE",
"629 322 CURVE SMOOTH",
"629 269 OFFCURVE",
"641 225 OFFCURVE",
"688 235 CURVE SMOOTH"
);
},
{
closed = 1;
nodes = (
"727 502 OFFCURVE",
"915 545 OFFCURVE",
"1112 545 CURVE SMOOTH",
"1143 545 OFFCURVE",
"1153 568 OFFCURVE",
"1153 597 CURVE SMOOTH",
"1153 661 OFFCURVE",
"1087 712 OFFCURVE",
"976 712 CURVE SMOOTH",
"890 712 OFFCURVE",
"718 698 OFFCURVE",
"577 652 CURVE SMOOTH",
"543 641 OFFCURVE",
"536 622 OFFCURVE",
"536 597 CURVE SMOOTH",
"536 546 OFFCURVE",
"581 502 OFFCURVE",
"667 502 CURVE SMOOTH"
);
}
);
vertWidth = 0;
width = 1470;
}
);
unicode = 0152;
},
{
color = (0,242,242,64);
glyphname = Tbar;
layers = (
{
components = (
{
name = T;
}
);
layerId = "DC44E50C-9AA1-421C-802C-D4D023281425";
paths = (
{
closed = 1;
nodes = (
"201 300 OFFCURVE",
"286 310 OFFCURVE",
"524 310 CURVE SMOOTH",
"556 310 OFFCURVE",
"575 321 OFFCURVE",
"575 339 CURVE SMOOTH",
"575 352 OFFCURVE",
"553 373 OFFCURVE",
"491 373 CURVE SMOOTH",
"366 373 OFFCURVE",
"248 367 OFFCURVE",
"117 359 CURVE SMOOTH",
"92 357 OFFCURVE",
"85 341 OFFCURVE",
"85 330 CURVE SMOOTH",
"85 315 OFFCURVE",
"107 300 OFFCURVE",
"148 300 CURVE SMOOTH"
);
}
);
vertWidth = 0;
width = 647;
},
{
components = (
{
name = T;
}
);
layerId = "0A0D3988-4955-4F5A-8D07-882FAAFF61A2";
paths = (
{
closed = 1;
nodes = (
"224 216 OFFCURVE",
"301 228 OFFCURVE",
"487 228 CURVE SMOOTH",
"543 228 OFFCURVE",
"561 255 OFFCURVE",
"561 292 CURVE SMOOTH",
"561 342 OFFCURVE",
"525 389 OFFCURVE",
"400 389 CURVE SMOOTH",
"308 389 OFFCURVE",
"220 382 OFFCURVE",
"124 370 CURVE SMOOTH",
"69 363 OFFCURVE",
"52 343 OFFCURVE",
"52 305 CURVE SMOOTH",
"52 263 OFFCURVE",
"96 216 OFFCURVE",
"176 216 CURVE SMOOTH"
);
}
);
vertWidth = 0;
width = 625;
}
);
unicode = 0166;
},
{
glyphname = Schwa;
layers = (
{
layerId = "DC44E50C-9AA1-421C-802C-D4D023281425";
paths = (
{
closed = 1;
nodes = (
"187 396 OFFCURVE",
"78 318.447 OFFCURVE",
"78 190 CURVE SMOOTH",
"78 55.753 OFFCURVE",
"170 -10 OFFCURVE",
"313 -10 CURVE SMOOTH",
"502 -10 OFFCURVE",
"621 147 OFFCURVE",
"621 305 CURVE SMOOTH",
"621 544 OFFCURVE",
"515 710 OFFCURVE",
"337 710 CURVE SMOOTH",
"226 710 OFFCURVE",
"116 634 OFFCURVE",
"116 586 CURVE SMOOTH",
"116 566 OFFCURVE",
"120 557 OFFCURVE",
"135 557 CURVE SMOOTH",
"167.419 557 OFFCURVE",
"206 645 OFFCURVE",
"340 645 CURVE SMOOTH",
"474 645 OFFCURVE",
"554 505 OFFCURVE",
"554 314 CURVE SMOOTH",
"554 174 OFFCURVE",
"455 56 OFFCURVE",
"316 56 CURVE SMOOTH",
"194 56 OFFCURVE",
"145 100.474 OFFCURVE",
"145 186 CURVE SMOOTH",
"145 274.536 OFFCURVE",
"220 334 OFFCURVE",
"336 334 CURVE SMOOTH",
"468.766 334 OFFCURVE",
"519.66 266 OFFCURVE",
"544 266 CURVE SMOOTH",
"563 266 OFFCURVE",
"569 273 OFFCURVE",
"569 288 CURVE SMOOTH",
"569 328 OFFCURVE",
"476 396 OFFCURVE",
"332 396 CURVE SMOOTH"
);
}
);
vertWidth = 0;
width = 655;
},
{
layerId = "0A0D3988-4955-4F5A-8D07-882FAAFF61A2";
paths = (
{
closed = 1;
nodes = (
"175 426 OFFCURVE",
"45 352 OFFCURVE",
"45 204 CURVE SMOOTH",
"45 65 OFFCURVE",
"155 -10 OFFCURVE",
"314 -10 CURVE SMOOTH",
"535 -10 OFFCURVE",
"662 150 OFFCURVE",
"662 295 CURVE SMOOTH",
"662 530 OFFCURVE",
"540 711 OFFCURVE",
"328 711 CURVE SMOOTH",
"164.159 711 OFFCURVE",
"61 635 OFFCURVE",
"61 561 CURVE SMOOTH",
"61 522 OFFCURVE",
"82 499 OFFCURVE",
"121 499 CURVE SMOOTH",
"166 499 OFFCURVE",
"201 555 OFFCURVE",
"321 555 CURVE SMOOTH",
"417 555 OFFCURVE",
"493 481.55 OFFCURVE",
"493 318 CURVE SMOOTH",
"493 232.017 OFFCURVE",
"418.253 147 OFFCURVE",
"314 147 CURVE SMOOTH",
"237.925 147 OFFCURVE",
"204 173.441 OFFCURVE",
"204 209 CURVE SMOOTH",
"204 260 OFFCURVE",
"267 291 OFFCURVE",
"356 291 CURVE SMOOTH",
"405 291 OFFCURVE",
"431.781 279 OFFCURVE",
"453 279 CURVE SMOOTH",
"489 279 OFFCURVE",
"505 297 OFFCURVE",
"505 332 CURVE SMOOTH",
"505 381.701 OFFCURVE",
"442 426 OFFCURVE",
"337 426 CURVE SMOOTH"
);
}
);
vertWidth = 0;
width = 707;
}
);
unicode = 018F;
},
{
color = (0,242,242,64);
glyphname = Germandbls;
layers = (
{
background = {
paths = (
{
closed = 1;
nodes = (
"540 628 LINE",
"416 571 OFFCURVE",
"317 494 OFFCURVE",
"317 395 CURVE SMOOTH",
"317 238 OFFCURVE",
"567 236 OFFCURVE",
"585 121 CURVE",
"566 81 OFFCURVE",
"515 59 OFFCURVE",
"444 59 CURVE SMOOTH",
"372 59 OFFCURVE",
"377 88 OFFCURVE",
"343 88 CURVE SMOOTH",
"327 88 OFFCURVE",
"318 78 OFFCURVE",
"318 59 CURVE SMOOTH",
"318 26 OFFCURVE",
"361 -9 OFFCURVE",
"452 -9 CURVE SMOOTH",
"556 -9 OFFCURVE",
"656 36 OFFCURVE",
"656 127 CURVE SMOOTH",
"656 275 OFFCURVE",
"386 291 OFFCURVE",
"386 398 CURVE SMOOTH",
"386 457 OFFCURVE",
"453 520 OFFCURVE",
"569 567 CURVE SMOOTH",
"614 585 OFFCURVE",
"623 599 OFFCURVE",
"623 618 CURVE SMOOTH",
"623 672 OFFCURVE",
"508 708 OFFCURVE",
"359 708 CURVE SMOOTH",
"159 708 OFFCURVE",
"73 610 OFFCURVE",
"73 466 CURVE SMOOTH",
"73 335 OFFCURVE",
"118 239 OFFCURVE",
"118 47 CURVE SMOOTH",
"118 8 OFFCURVE",
"132 -10 OFFCURVE",
"151 -10 CURVE SMOOTH",
"172 -10 OFFCURVE",
"185 4 OFFCURVE",
"185 25 CURVE SMOOTH",
"185 233 OFFCURVE",
"140 341 OFFCURVE",
"140 466 CURVE SMOOTH",
"140 581 OFFCURVE",
"213 643 OFFCURVE",
"358 643 CURVE SMOOTH",
"439 643 OFFCURVE",
"509 632 OFFCURVE",
"554 611 CURVE"
);
}
);
};
layerId = "DC44E50C-9AA1-421C-802C-D4D023281425";
paths = (
{
closed = 1;
nodes = (
"159 708 OFFCURVE",
"73 610 OFFCURVE",
"73 466 CURVE SMOOTH",
"73 335 OFFCURVE",
"118 239 OFFCURVE",
"118 47 CURVE SMOOTH",
"118 8 OFFCURVE",
"132 -10 OFFCURVE",
"151 -10 CURVE SMOOTH",
"172 -10 OFFCURVE",
"185 4 OFFCURVE",
"185 25 CURVE SMOOTH",
"185 233 OFFCURVE",
"140 341 OFFCURVE",
"140 466 CURVE SMOOTH",
"140 581 OFFCURVE",
"213 643 OFFCURVE",
"358 643 CURVE SMOOTH",
"452 643 OFFCURVE",
"519 624 OFFCURVE",
"547 591 CURVE",
"538 628 LINE",
"544 581 OFFCURVE",
"482.433 503.688 OFFCURVE",
"370 457 CURVE SMOOTH",
"341 445 OFFCURVE",
"327 426 OFFCURVE",
"327 395 CURVE SMOOTH",
"327 274 OFFCURVE",
"576 292 OFFCURVE",
"592 152 CURVE",
"576 86 OFFCURVE",
"515 59 OFFCURVE",
"444 59 CURVE SMOOTH",
"342 59 OFFCURVE",
"351 98 OFFCURVE",
"312 98 CURVE SMOOTH",
"296 98 OFFCURVE",
"287 89.034 OFFCURVE",
"287 72 CURVE SMOOTH",
"287 32.538 OFFCURVE",
"339.948 -9 OFFCURVE",
"452 -9 CURVE SMOOTH",
"556 -9 OFFCURVE",
"656 46 OFFCURVE",
"656 157 CURVE SMOOTH",
"656 339 OFFCURVE",
"382.012 329.078 OFFCURVE",
"396 418 CURVE",
"377 389 LINE",
"541.944 460.379 OFFCURVE",
"604 544 OFFCURVE",
"604 606 CURVE SMOOTH",
"604 667 OFFCURVE",
"497 708 OFFCURVE",
"359 708 CURVE SMOOTH"
);
}
);
vertWidth = 0;
width = 733;
},
{
layerId = "0A0D3988-4955-4F5A-8D07-882FAAFF61A2";
paths = (
{
closed = 1;
nodes = (
"123 708 OFFCURVE",
"41 612 OFFCURVE",
"41 466 CURVE SMOOTH",
"41 363 OFFCURVE",
"63 311 OFFCURVE",
"63 135 CURVE SMOOTH",
"63 28 OFFCURVE",
"95 -10 OFFCURVE",
"169 -10 CURVE SMOOTH",
"231 -10 OFFCURVE",
"241 34 OFFCURVE",
"241 97 CURVE SMOOTH",
"241 270 OFFCURVE",
"214 364.81 OFFCURVE",
"214 466 CURVE SMOOTH",
"214 515.418 OFFCURVE",
"259 543 OFFCURVE",
"348 543 CURVE SMOOTH",
"431 543 OFFCURVE",
"466.451 528 OFFCURVE",
"499 507 CURVE",
"496 565 LINE",
"471 519 OFFCURVE",
"442 489 OFFCURVE",
"356 460 CURVE SMOOTH",
"324 449 OFFCURVE",
"306 429 OFFCURVE",
"306 380 CURVE SMOOTH",
"306 224 OFFCURVE",
"510.926 249.009 OFFCURVE",
"516 180 CURVE",
"495.468 165.068 OFFCURVE",
"470.476 161 OFFCURVE",
"425 161 CURVE SMOOTH",
"379.294 161 OFFCURVE",
"368.034 169 OFFCURVE",
"341 169 CURVE SMOOTH",
"302.796 169 OFFCURVE",
"289 147.868 OFFCURVE",
"289 113 CURVE SMOOTH",
"289 44.68 OFFCURVE",
"334 -9 OFFCURVE",
"443 -9 CURVE SMOOTH",
"593 -9 OFFCURVE",
"677 62 OFFCURVE",
"677 184 CURVE SMOOTH",
"677 375 OFFCURVE",
"474.989 355.066 OFFCURVE",
"466 407 CURVE",
"438 354 LINE",
"573.263 394.291 OFFCURVE",
"653 472 OFFCURVE",
"653 556 CURVE SMOOTH",
"653 657 OFFCURVE",
"516 708 OFFCURVE",
"347 708 CURVE SMOOTH"
);
}
);
userData = {
com.typemytype.robofont.Image.Brightness = -0.3986;
com.typemytype.robofont.Image.Sharpness = 0.4;
};
vertWidth = 0;
width = 714;
},
{
associatedMasterId = "0A0D3988-4955-4F5A-8D07-882FAAFF61A2";
layerId = "5049C319-81FB-433A-AA4D-33594DEFCD51";
name = bg;
paths = (
{
closed = 1;
nodes = (
"411 557 LINE",
"328 515 OFFCURVE",
"286 458 OFFCURVE",
"286 395 CURVE SMOOTH",
"286 258 OFFCURVE",
"479 222 OFFCURVE",
"501 171 CURVE",
"477 164 OFFCURVE",
"463 161 OFFCURVE",
"425 161 CURVE SMOOTH",
"379 161 OFFCURVE",
"368 169 OFFCURVE",
"341 169 CURVE SMOOTH",
"303 169 OFFCURVE",
"289 148 OFFCURVE",
"289 113 CURVE SMOOTH",
"289 45 OFFCURVE",
"334 -9 OFFCURVE",
"443 -9 CURVE SMOOTH",
"590 -9 OFFCURVE",
"677 56 OFFCURVE",
"677 168 CURVE SMOOTH",
"677 333 OFFCURVE",
"468 353 OFFCURVE",
"468 410 CURVE SMOOTH",
"468 440 OFFCURVE",
"500 469 OFFCURVE",
"575 491 CURVE SMOOTH",
"612 502 OFFCURVE",
"634 531 OFFCURVE",
"634 565 CURVE SMOOTH",
"634 656 OFFCURVE",
"505 708 OFFCURVE",
"347 708 CURVE SMOOTH",
"123 708 OFFCURVE",
"41 612 OFFCURVE",
"41 466 CURVE SMOOTH",
"41 363 OFFCURVE",
"63 311 OFFCURVE",
"63 135 CURVE SMOOTH",
"63 28 OFFCURVE",
"95 -10 OFFCURVE",
"169 -10 CURVE SMOOTH",
"231 -10 OFFCURVE",
"241 34 OFFCURVE",
"241 97 CURVE SMOOTH",
"241 270 OFFCURVE",
"214 365 OFFCURVE",
"214 466 CURVE SMOOTH",
"214 512 OFFCURVE",
"259 538 OFFCURVE",
"348 538 CURVE SMOOTH",
"393 538 OFFCURVE",
"422 528 OFFCURVE",
"446 507 CURVE"
);
},
{
closed = 1;
nodes = (
"751 495 OFFCURVE",
"740 473 OFFCURVE",
"740 440 CURVE SMOOTH",
"740 385 OFFCURVE",
"780 332 OFFCURVE",
"819 332 CURVE SMOOTH",
"850 332 OFFCURVE",
"903 355 OFFCURVE",
"1002 355 CURVE SMOOTH",
"1060 355 OFFCURVE",
"1073 350 OFFCURVE",
"1101 336 CURVE",
"1059 387 LINE",
"1031 331 OFFCURVE",
"979 285 OFFCURVE",
"806 235 CURVE SMOOTH",
"773 226 OFFCURVE",
"744 198 OFFCURVE",
"744 130 CURVE SMOOTH",
"744 57 OFFCURVE",
"780 -10 OFFCURVE",
"923 -10 CURVE SMOOTH",
"1018 -10 OFFCURVE",
"1140 0 OFFCURVE",
"1220 0 CURVE SMOOTH",
"1265 0 OFFCURVE",
"1284 24 OFFCURVE",
"1284 60 CURVE SMOOTH",
"1284 121 OFFCURVE",
"1247 172 OFFCURVE",
"1183 172 CURVE SMOOTH",
"1089 172 OFFCURVE",
"1028 156 OFFCURVE",
"953 156 CURVE SMOOTH",
"948 156 OFFCURVE",
"948 165 OFFCURVE",
"955 180 CURVE",
"903 150 LINE",
"1150 201 OFFCURVE",
"1223 314 OFFCURVE",
"1223 374 CURVE SMOOTH",
"1223 449 OFFCURVE",
"1177 524 OFFCURVE",
"1025 524 CURVE SMOOTH",
"949 524 OFFCURVE",
"869 517 OFFCURVE",
"792 504 CURVE SMOOTH"
);
}
);
vertWidth = 0;
width = 714;
}
);
unicode = 1E9E;
},
{
glyphname = Omega;
layers = (
{
background = {
paths = (
{
closed = 0;
nodes = (
"55 15 LINE",
"146 13 OFFCURVE",
"227 30 OFFCURVE",
"329 35 CURVE",
"236 192 OFFCURVE",
"126 282 OFFCURVE",
"126 472 CURVE SMOOTH",
"126 593 OFFCURVE",
"217 675 OFFCURVE",
"413 675 CURVE SMOOTH",
"581 675 OFFCURVE",
"703 622 OFFCURVE",
"703 490 CURVE SMOOTH",
"703 389 OFFCURVE",
"648 300 OFFCURVE",
"595 225 CURVE SMOOTH",
"547 156 OFFCURVE",
"501 98 OFFCURVE",
"501 53 CURVE SMOOTH",
"501 32 OFFCURVE",
"516 21 OFFCURVE",
"538 24 CURVE SMOOTH",
"620 37 OFFCURVE",
"703 35 OFFCURVE",
"787 13 CURVE"
);
}
);
};
layerId = "DC44E50C-9AA1-421C-802C-D4D023281425";
paths = (
{
closed = 1;
nodes = (
"33 50 OFFCURVE",
"18 39 OFFCURVE",
"18 23 CURVE SMOOTH",
"18 1 OFFCURVE",
"34 -19 OFFCURVE",
"68 -20 CURVE SMOOTH",
"146 -21 OFFCURVE",
"228 -5 OFFCURVE",
"331 0 CURVE SMOOTH",
"350 1 OFFCURVE",
"364 17 OFFCURVE",
"364 35 CURVE SMOOTH",
"364 108 OFFCURVE",
"161 242 OFFCURVE",
"161 462 CURVE SMOOTH",
"161 574 OFFCURVE",
"251 640 OFFCURVE",
"413 640 CURVE SMOOTH",
"549 640 OFFCURVE",
"668 604 OFFCURVE",
"668 480 CURVE SMOOTH",
"668 301 OFFCURVE",
"466 160 OFFCURVE",
"466 53 CURVE SMOOTH",
"466 10 OFFCURVE",
"493 -11 OFFCURVE",
"543 -11 CURVE SMOOTH",
"574 -11 OFFCURVE",
"607 -3 OFFCURVE",
"639 -3 CURVE SMOOTH",
"727 -3 OFFCURVE",
"736 -20 OFFCURVE",
"784 -20 CURVE SMOOTH",
"804 -20 OFFCURVE",
"826 -12 OFFCURVE",
"826 14 CURVE SMOOTH",
"826 43 OFFCURVE",
"786 67 OFFCURVE",
"639 67 CURVE SMOOTH",
"600 67 OFFCURVE",
"560 63 OFFCURVE",
"517 57 CURVE",
"536 39 LINE",
"525 138 OFFCURVE",
"738 261 OFFCURVE",
"738 480 CURVE SMOOTH",
"738 635 OFFCURVE",
"613 710 OFFCURVE",
"413 710 CURVE SMOOTH",
"183 710 OFFCURVE",
"91 604 OFFCURVE",
"91 462 CURVE SMOOTH",
"91 269 OFFCURVE",
"204 178 OFFCURVE",
"299 17 CURVE",
"327 70 LINE",
"226 65 OFFCURVE",
"145 50 OFFCURVE",
"56 50 CURVE SMOOTH"
);
}
);
vertWidth = 0;
width = 843;
},
{
backgroundImage = {
imagePath = O_mega.png;
transform = "{1.06451, 0, 0, 1.49528, 9.672, -134.187}";
};
layerId = "0A0D3988-4955-4F5A-8D07-882FAAFF61A2";
paths = (
{
closed = 1;
nodes = (
"49 156 OFFCURVE",
"18 128 OFFCURVE",
"18 81 CURVE SMOOTH",
"18 27 OFFCURVE",
"56 -20 OFFCURVE",
"115 -20 CURVE SMOOTH",
"186 -20 OFFCURVE",
"219 0 OFFCURVE",
"330 0 CURVE SMOOTH",
"383 0 OFFCURVE",
"415 39 OFFCURVE",
"415 88 CURVE SMOOTH",
"415 206 OFFCURVE",
"235 294 OFFCURVE",
"235 436 CURVE SMOOTH",
"235 505 OFFCURVE",
"290 545 OFFCURVE",
"434 545 CURVE SMOOTH",
"578 545 OFFCURVE",
"636 504 OFFCURVE",
"636 451 CURVE SMOOTH",
"636 339 OFFCURVE",
"453 225 OFFCURVE",
"453 102 CURVE SMOOTH",
"453 47 OFFCURVE",
"508 -3 OFFCURVE",
"558 -3 CURVE SMOOTH",
"580 -3 OFFCURVE",
"595 0 OFFCURVE",
"631 0 CURVE SMOOTH",
"671 0 OFFCURVE",
"711 -18 OFFCURVE",
"761 -18 CURVE SMOOTH",
"828 -18 OFFCURVE",
"849 17 OFFCURVE",
"849 58 CURVE SMOOTH",
"849 122 OFFCURVE",
"792 175 OFFCURVE",
"631 175 CURVE SMOOTH",
"613 175 OFFCURVE",
"594 172 OFFCURVE",
"571 165 CURVE",
"629 102 LINE",
"701 233 OFFCURVE",
"812 291 OFFCURVE",
"812 451 CURVE SMOOTH",
"812 617 OFFCURVE",
"685 717 OFFCURVE",
"434 717 CURVE SMOOTH",
"149 717 OFFCURVE",
"59 586 OFFCURVE",
"59 436 CURVE SMOOTH",
"59 329 OFFCURVE",
"103 240 OFFCURVE",
"250 93 CURVE",
"259 171 LINE",
"192.883 166.734 OFFCURVE",
"163 156 OFFCURVE",
"99 156 CURVE SMOOTH"
);
}
);
userData = {
com.typemytype.robofont.Image.Brightness = 0;
com.typemytype.robofont.Image.Contrast = 1;
com.typemytype.robofont.Image.Saturation = 1;
com.typemytype.robofont.Image.Sharpness = 0.4;
};
vertWidth = 0;
width = 870;
},
{
associatedMasterId = "DC44E50C-9AA1-421C-802C-D4D023281425";
layerId = "6391ABE9-4D6F-4CF4-9377-C886596B28E2";
name = anotherone;
paths = (
{
closed = 1;
nodes = (
"146 48 OFFCURVE",
"226 65 OFFCURVE",
"327 70 CURVE",
"299 17 LINE",
"202 181 OFFCURVE",
"91 275 OFFCURVE",
"91 472 CURVE SMOOTH",
"91 608 OFFCURVE",
"183 710 OFFCURVE",
"413 710 CURVE SMOOTH",
"613 710 OFFCURVE",
"738 638 OFFCURVE",
"738 490 CURVE SMOOTH",
"738 382 OFFCURVE",
"681 286 OFFCURVE",
"624 205 CURVE SMOOTH",
"581 144 OFFCURVE",
"536 93 OFFCURVE",
"536 53 CURVE",
"536 54 OFFCURVE",
"538 59 OFFCURVE",
"533 59 CURVE",
"619 72 OFFCURVE",
"707 70 OFFCURVE",
"796 47 CURVE SMOOTH",
"814 42 OFFCURVE",
"826 22 OFFCURVE",
"821 4 CURVE SMOOTH",
"816 -14 OFFCURVE",
"796 -26 OFFCURVE",
"778 -21 CURVE SMOOTH",
"699 0 OFFCURVE",
"621 2 OFFCURVE",
"543 -11 CURVE SMOOTH",
"494 -17 OFFCURVE",
"466 10 OFFCURVE",
"466 53 CURVE SMOOTH",
"466 103 OFFCURVE",
"513 168 OFFCURVE",
"566 245 CURVE SMOOTH",
"615 314 OFFCURVE",
"668 396 OFFCURVE",
"668 490 CURVE SMOOTH",
"668 606 OFFCURVE",
"549 640 OFFCURVE",
"413 640 CURVE SMOOTH",
"251 640 OFFCURVE",
"161 578 OFFCURVE",
"161 472 CURVE SMOOTH",
"161 289 OFFCURVE",
"270 203 OFFCURVE",
"359 53 CURVE SMOOTH",
"373 30 OFFCURVE",
"357 1 OFFCURVE",
"331 0 CURVE SMOOTH",
"228 -5 OFFCURVE",
"146 -22 OFFCURVE",
"54 -20 CURVE SMOOTH",
"35 -20 OFFCURVE",
"20 -3 OFFCURVE",
"20 16 CURVE SMOOTH",
"20 35 OFFCURVE",
"37 50 OFFCURVE",
"56 50 CURVE SMOOTH"
);
}
);
vertWidth = 0;
width = 843;
},
{
associatedMasterId = "0A0D3988-4955-4F5A-8D07-882FAAFF61A2";
layerId = "AE963424-3B7B-448D-BF01-A09F6DB52961";
name = bg;
paths = (
{
closed = 0;
nodes = (
"55 68 LINE",
"146 65 OFFCURVE",
"179 83 OFFCURVE",
"306 87 CURVE",
"157 259 OFFCURVE",
"126 330 OFFCURVE",
"126 436 CURVE SMOOTH",
"126 551 OFFCURVE",
"217 629 OFFCURVE",
"413 629 CURVE SMOOTH",
"581 629 OFFCURVE",
"703 578 OFFCURVE",
"703 451 CURVE SMOOTH",
"703 375 OFFCURVE",
"666 315 OFFCURVE",
"612 258 CURVE SMOOTH",
"563 206 OFFCURVE",
"520 154 OFFCURVE",
"520 102 CURVE SMOOTH",
"520 85 OFFCURVE",
"539 73 OFFCURVE",
"566 78 CURVE SMOOTH",
"655 93 OFFCURVE",
"703 88 OFFCURVE",
"789 70 CURVE"
);
}
);
vertWidth = 0;
width = 500;
}
);
unicode = 03A9;
},
{
color = (236,226,255,255);
glyphname = Djecyr;
layers = (
{
layerId = "DC44E50C-9AA1-421C-802C-D4D023281425";
paths = (
{
closed = 1;
nodes = (
"237 532 OFFCURVE",
"352 532 OFFCURVE",
"459 532 CURVE SMOOTH",
"556 532 OFFCURVE",
"627 566 OFFCURVE",
"627 649 CURVE SMOOTH",
"627 686 OFFCURVE",
"607 711 OFFCURVE",
"565 711 CURVE SMOOTH",
"502 711 OFFCURVE",
"433 700 OFFCURVE",
"369 700 CURVE SMOOTH",
"277 700 OFFCURVE",
"169 710 OFFCURVE",
"68 710 CURVE SMOOTH",
"30 710 OFFCURVE",
"15 683 OFFCURVE",
"15 651 CURVE SMOOTH",
"15 585 OFFCURVE",
"42 551 OFFCURVE",
"126 543 CURVE SMOOTH"
);
},
{
closed = 1;
nodes = (
"743 287 OFFCURVE",
"696 428 OFFCURVE",
"559 428 CURVE SMOOTH",
"476 428 OFFCURVE",
"383 355 OFFCURVE",
"328 257 CURVE",
"354 192 LINE",
"354 261 OFFCURVE",
"339 344 OFFCURVE",
"357 514 CURVE SMOOTH",
"366 602 OFFCURVE",
"335 640 OFFCURVE",
"252 640 CURVE SMOOTH",
"211 640 OFFCURVE",
"183 610 OFFCURVE",
"180 568 CURVE SMOOTH",
"156 286 OFFCURVE",
"153 195 OFFCURVE",
"182 85 CURVE SMOOTH",
"205 10 OFFCURVE",
"245 -10 OFFCURVE",
"290 -10 CURVE SMOOTH",
"324 -10 OFFCURVE",
"344 20 OFFCURVE",
"377 76 CURVE SMOOTH",
"433 172 OFFCURVE",
"487 221 OFFCURVE",
"537 254 CURVE",
"555 229 OFFCURVE",
"564 184 OFFCURVE",
"564 136 CURVE SMOOTH",
"564 25 OFFCURVE",
"529 -31 OFFCURVE",
"486 -52 CURVE SMOOTH",
"447 -71 OFFCURVE",
"402 -81 OFFCURVE",
"402 -125 CURVE SMOOTH",
"402 -155 OFFCURVE",
"423 -197 OFFCURVE",
"488 -197 CURVE SMOOTH",
"625 -197 OFFCURVE",
"743 -46 OFFCURVE",
"743 146 CURVE SMOOTH"
);
}
);
vertWidth = 0;
width = 794;
},
{
layerId = "0A0D3988-4955-4F5A-8D07-882FAAFF61A2";
paths = (
{
closed = 1;
nodes = (
"237 532 OFFCURVE",
"352 532 OFFCURVE",
"459 532 CURVE SMOOTH",
"556 532 OFFCURVE",
"627 566 OFFCURVE",
"627 649 CURVE SMOOTH",
"627 686 OFFCURVE",
"607 711 OFFCURVE",
"565 711 CURVE SMOOTH",
"502 711 OFFCURVE",
"433 700 OFFCURVE",
"369 700 CURVE SMOOTH",
"277 700 OFFCURVE",
"169 710 OFFCURVE",
"68 710 CURVE SMOOTH",
"30 710 OFFCURVE",
"15 683 OFFCURVE",
"15 651 CURVE SMOOTH",
"15 585 OFFCURVE",
"42 551 OFFCURVE",
"126 543 CURVE SMOOTH"
);
},
{
closed = 1;
nodes = (
"743 287 OFFCURVE",
"696 428 OFFCURVE",
"559 428 CURVE SMOOTH",
"476 428 OFFCURVE",
"383 355 OFFCURVE",
"328 257 CURVE",
"354 192 LINE",
"354 261 OFFCURVE",
"339 344 OFFCURVE",
"357 514 CURVE SMOOTH",
"366 602 OFFCURVE",
"335 640 OFFCURVE",
"252 640 CURVE SMOOTH",
"211 640 OFFCURVE",
"183 610 OFFCURVE",
"180 568 CURVE SMOOTH",
"156 286 OFFCURVE",
"153 195 OFFCURVE",
"182 85 CURVE SMOOTH",
"205 10 OFFCURVE",
"245 -10 OFFCURVE",
"290 -10 CURVE SMOOTH",
"324 -10 OFFCURVE",
"344 20 OFFCURVE",
"377 76 CURVE SMOOTH",
"433 172 OFFCURVE",
"487 221 OFFCURVE",
"537 254 CURVE",
"555 229 OFFCURVE",
"564 184 OFFCURVE",
"564 136 CURVE SMOOTH",
"564 25 OFFCURVE",
"529 -31 OFFCURVE",
"486 -52 CURVE SMOOTH",
"447 -71 OFFCURVE",
"402 -81 OFFCURVE",
"402 -125 CURVE SMOOTH",
"402 -155 OFFCURVE",
"423 -197 OFFCURVE",
"488 -197 CURVE SMOOTH",
"625 -197 OFFCURVE",
"743 -46 OFFCURVE",
"743 146 CURVE SMOOTH"
);
}
);
vertWidth = 0;
width = 794;
},
{
associatedMasterId = "DC44E50C-9AA1-421C-802C-D4D023281425";
layerId = "D03DA8AC-49B8-4599-AC43-ECBADC232C52";
name = "another one";
paths = (
{
closed = 1;
nodes = (
"743 -46 OFFCURVE",
"743 146 CURVE SMOOTH",
"743 287 OFFCURVE",
"696 428 OFFCURVE",
"559 428 CURVE SMOOTH",
"476 428 OFFCURVE",
"383 355 OFFCURVE",
"328 257 CURVE",
"354 192 LINE",
"354 261 OFFCURVE",
"339 344 OFFCURVE",
"357 514 CURVE SMOOTH",
"366 602 OFFCURVE",
"335 640 OFFCURVE",
"252 640 CURVE SMOOTH",
"211 640 OFFCURVE",
"183 610 OFFCURVE",
"180 568 CURVE SMOOTH",
"156 286 OFFCURVE",
"153 195 OFFCURVE",
"182 85 CURVE SMOOTH",
"205 10 OFFCURVE",
"245 -10 OFFCURVE",
"290 -10 CURVE SMOOTH",
"324 -10 OFFCURVE",
"344 20 OFFCURVE",
"377 76 CURVE SMOOTH",
"433 172 OFFCURVE",
"487 221 OFFCURVE",
"537 254 CURVE",
"569 209 OFFCURVE",
"571 94 OFFCURVE",
"554 24 CURVE SMOOTH",
"537 -46 OFFCURVE",
"470 -83 OFFCURVE",
"462 -122 CURVE SMOOTH",
"453 -165 OFFCURVE",
"486 -197 OFFCURVE",
"528 -197 CURVE SMOOTH",
"651 -197 OFFCURVE"
);
},
{
closed = 1;
nodes = (
"237 532 OFFCURVE",
"352 532 OFFCURVE",
"459 532 CURVE SMOOTH",
"556 532 OFFCURVE",
"627 566 OFFCURVE",
"627 649 CURVE SMOOTH",
"627 686 OFFCURVE",
"607 711 OFFCURVE",
"565 711 CURVE SMOOTH",
"502 711 OFFCURVE",
"433 700 OFFCURVE",
"369 700 CURVE SMOOTH",
"277 700 OFFCURVE",
"169 710 OFFCURVE",
"68 710 CURVE SMOOTH",
"30 710 OFFCURVE",
"15 683 OFFCURVE",
"15 651 CURVE SMOOTH",
"15 585 OFFCURVE",
"42 551 OFFCURVE",
"126 543 CURVE SMOOTH"
);
}
);
vertWidth = 0;
width = 794;
},
{
associatedMasterId = "DC44E50C-9AA1-421C-802C-D4D023281425";
layerId = "A6AD6DB8-0F60-49DC-B71A-BE38C40BE537";
name = bg;
paths = (
{
closed = 1;
nodes = (
"234 532 OFFCURVE",
"338 532 OFFCURVE",
"474 532 CURVE SMOOTH",
"542 532 OFFCURVE",
"613 566 OFFCURVE",
"613 649 CURVE SMOOTH",
"613 686 OFFCURVE",
"593 711 OFFCURVE",
"551 711 CURVE SMOOTH",
"468 711 OFFCURVE",
"419 700 OFFCURVE",
"355 700 CURVE SMOOTH",
"263 700 OFFCURVE",
"178 710 OFFCURVE",
"65 710 CURVE SMOOTH",
"27 710 OFFCURVE",
"12 683 OFFCURVE",
"12 651 CURVE SMOOTH",
"12 585 OFFCURVE",
"39 551 OFFCURVE",
"123 543 CURVE SMOOTH"
);
},
{
closed = 1;
nodes = (
"780 -46 OFFCURVE",
"780 146 CURVE SMOOTH",
"780 287 OFFCURVE",
"733 428 OFFCURVE",
"596 428 CURVE SMOOTH",
"513 428 OFFCURVE",
"420 355 OFFCURVE",
"365 257 CURVE",
"391 192 LINE",
"391 261 OFFCURVE",
"376 344 OFFCURVE",
"394 514 CURVE SMOOTH",
"403 602 OFFCURVE",
"372 640 OFFCURVE",
"289 640 CURVE SMOOTH",
"248 640 OFFCURVE",
"220 610 OFFCURVE",
"217 568 CURVE SMOOTH",
"193 286 OFFCURVE",
"190 195 OFFCURVE",
"219 85 CURVE SMOOTH",
"242 10 OFFCURVE",
"282 -10 OFFCURVE",
"327 -10 CURVE SMOOTH",
"361 -10 OFFCURVE",
"381 20 OFFCURVE",
"414 76 CURVE SMOOTH",
"470 172 OFFCURVE",
"524 221 OFFCURVE",
"574 254 CURVE",
"606 209 OFFCURVE",
"608 94 OFFCURVE",
"591 24 CURVE SMOOTH",
"574 -46 OFFCURVE",
"507 -83 OFFCURVE",
"499 -122 CURVE SMOOTH",
"490 -165 OFFCURVE",
"523 -197 OFFCURVE",
"565 -197 CURVE SMOOTH",
"688 -197 OFFCURVE"
);
}
);
vertWidth = 0;
width = 827;
},
{
associatedMasterId = "0A0D3988-4955-4F5A-8D07-882FAAFF61A2";
layerId = "D1914CED-A2F0-41E9-B704-3160E5226B7A";
name = bg;
paths = (
{
closed = 1;
nodes = (
"234 532 OFFCURVE",
"338 532 OFFCURVE",
"474 532 CURVE SMOOTH",
"542 532 OFFCURVE",
"613 566 OFFCURVE",
"613 649 CURVE SMOOTH",
"613 686 OFFCURVE",
"593 711 OFFCURVE",
"551 711 CURVE SMOOTH",
"468 711 OFFCURVE",
"419 700 OFFCURVE",
"355 700 CURVE SMOOTH",
"263 700 OFFCURVE",
"178 710 OFFCURVE",
"65 710 CURVE SMOOTH",
"27 710 OFFCURVE",
"12 683 OFFCURVE",
"12 651 CURVE SMOOTH",
"12 585 OFFCURVE",
"39 551 OFFCURVE",
"123 543 CURVE SMOOTH"
);
},
{
closed = 1;
nodes = (
"780 -46 OFFCURVE",
"780 146 CURVE SMOOTH",
"780 287 OFFCURVE",
"733 428 OFFCURVE",
"596 428 CURVE SMOOTH",
"513 428 OFFCURVE",
"420 355 OFFCURVE",
"365 257 CURVE",
"391 192 LINE",
"391 261 OFFCURVE",
"376 344 OFFCURVE",
"394 514 CURVE SMOOTH",
"403 602 OFFCURVE",
"372 640 OFFCURVE",
"289 640 CURVE SMOOTH",
"248 640 OFFCURVE",
"220 610 OFFCURVE",
"217 568 CURVE SMOOTH",
"193 286 OFFCURVE",
"190 195 OFFCURVE",
"219 85 CURVE SMOOTH",
"242 10 OFFCURVE",
"282 -10 OFFCURVE",
"327 -10 CURVE SMOOTH",
"361 -10 OFFCURVE",
"381 20 OFFCURVE",
"414 76 CURVE SMOOTH",
"470 172 OFFCURVE",
"524 221 OFFCURVE",
"574 254 CURVE",
"606 209 OFFCURVE",
"608 94 OFFCURVE",
"591 24 CURVE SMOOTH",
"574 -46 OFFCURVE",
"507 -83 OFFCURVE",
"499 -122 CURVE SMOOTH",
"490 -165 OFFCURVE",
"523 -197 OFFCURVE",
"565 -197 CURVE SMOOTH",
"688 -197 OFFCURVE"
);
}
);
vertWidth = 0;
width = 827;
},
{
associatedMasterId = "0A0D3988-4955-4F5A-8D07-882FAAFF61A2";
layerId = "DB921535-2E43-4B13-92EA-48FCB53E6D2D";
name = "another one";
paths = (
{
closed = 1;
nodes = (
"743 287 OFFCURVE",
"696 428 OFFCURVE",
"559 428 CURVE SMOOTH",
"476 428 OFFCURVE",
"383 355 OFFCURVE",
"328 257 CURVE",
"354 192 LINE",
"354 261 OFFCURVE",
"339 344 OFFCURVE",
"357 514 CURVE SMOOTH",
"366 602 OFFCURVE",
"335 640 OFFCURVE",
"252 640 CURVE SMOOTH",
"211 640 OFFCURVE",
"183 610 OFFCURVE",
"180 568 CURVE SMOOTH",
"156 286 OFFCURVE",
"153 195 OFFCURVE",
"182 85 CURVE SMOOTH",
"205 10 OFFCURVE",
"245 -10 OFFCURVE",
"290 -10 CURVE SMOOTH",
"324 -10 OFFCURVE",
"344 20 OFFCURVE",
"377 76 CURVE SMOOTH",
"433 172 OFFCURVE",
"487 221 OFFCURVE",
"537 254 CURVE",
"569 209 OFFCURVE",
"571 94 OFFCURVE",
"554 24 CURVE SMOOTH",
"537 -46 OFFCURVE",
"470 -83 OFFCURVE",
"462 -122 CURVE SMOOTH",
"453 -165 OFFCURVE",
"486 -197 OFFCURVE",
"528 -197 CURVE SMOOTH",
"651 -197 OFFCURVE",
"743 -46 OFFCURVE",
"743 146 CURVE SMOOTH"
);
},
{
closed = 1;
nodes = (
"237 532 OFFCURVE",
"352 532 OFFCURVE",
"459 532 CURVE SMOOTH",
"556 532 OFFCURVE",
"627 566 OFFCURVE",
"627 649 CURVE SMOOTH",
"627 686 OFFCURVE",
"607 711 OFFCURVE",
"565 711 CURVE SMOOTH",
"502 711 OFFCURVE",
"433 700 OFFCURVE",
"369 700 CURVE SMOOTH",
"277 700 OFFCURVE",
"169 710 OFFCURVE",
"68 710 CURVE SMOOTH",
"30 710 OFFCURVE",
"15 683 OFFCURVE",
"15 651 CURVE SMOOTH",
"15 585 OFFCURVE",
"42 551 OFFCURVE",
"126 543 CURVE SMOOTH"
);
}
);
vertWidth = 0;
width = 794;
}
);
unicode = 0402;
},
{
color = (187,132,254,255);
glyphname = Eukrcyr;
layers = (
{
layerId = "DC44E50C-9AA1-421C-802C-D4D023281425";
paths = (
{
closed = 1;
nodes = (
"500 -10 OFFCURVE",
"581 60 OFFCURVE",
"581 148 CURVE SMOOTH",
"581 190 OFFCURVE",
"564 216 OFFCURVE",
"522 216 CURVE SMOOTH",
"470 216 OFFCURVE",
"461 157 OFFCURVE",
"356 157 CURVE SMOOTH",
"264 157 OFFCURVE",
"214 219 OFFCURVE",
"214 314 CURVE SMOOTH",
"214 421 OFFCURVE",
"273 524 OFFCURVE",
"404 524 CURVE SMOOTH",
"430 524 OFFCURVE",
"435 517 OFFCURVE",
"435 500 CURVE SMOOTH",
"435 477 OFFCURVE",
"454 459 OFFCURVE",
"483 459 CURVE SMOOTH",
"547 459 OFFCURVE",
"579 521 OFFCURVE",
"579 591 CURVE SMOOTH",
"579 667 OFFCURVE",
"538 711 OFFCURVE",
"435 711 CURVE SMOOTH",
"208 711 OFFCURVE",
"39 529 OFFCURVE",
"39 314 CURVE SMOOTH",
"39 131 OFFCURVE",
"144 -10 OFFCURVE",
"345 -10 CURVE SMOOTH"
);
},
{
closed = 1;
nodes = (
"285 442 OFFCURVE",
"156 420 OFFCURVE",
"78 399 CURVE",
"93 234 LINE",
"131 234 OFFCURVE",
"180 269 OFFCURVE",
"266 269 CURVE SMOOTH",
"318 269 OFFCURVE",
"371 264 OFFCURVE",
"415 264 CURVE SMOOTH",
"459 264 OFFCURVE",
"477 290 OFFCURVE",
"478 329 CURVE SMOOTH",
"479 375 OFFCURVE",
"445 412 OFFCURVE",
"386 423 CURVE SMOOTH"
);
}
);
vertWidth = 0;
width = 621;
},
{
layerId = "0A0D3988-4955-4F5A-8D07-882FAAFF61A2";
paths = (
{
closed = 1;
nodes = (
"500 -10 OFFCURVE",
"581 60 OFFCURVE",
"581 148 CURVE SMOOTH",
"581 190 OFFCURVE",
"564 216 OFFCURVE",
"522 216 CURVE SMOOTH",
"470 216 OFFCURVE",
"461 157 OFFCURVE",
"356 157 CURVE SMOOTH",
"264 157 OFFCURVE",
"214 219 OFFCURVE",
"214 314 CURVE SMOOTH",
"214 421 OFFCURVE",
"273 524 OFFCURVE",
"404 524 CURVE SMOOTH",
"430 524 OFFCURVE",
"435 517 OFFCURVE",
"435 500 CURVE SMOOTH",
"435 477 OFFCURVE",
"454 459 OFFCURVE",
"483 459 CURVE SMOOTH",
"547 459 OFFCURVE",
"579 521 OFFCURVE",
"579 591 CURVE SMOOTH",
"579 667 OFFCURVE",
"538 711 OFFCURVE",
"435 711 CURVE SMOOTH",
"208 711 OFFCURVE",
"39 529 OFFCURVE",
"39 314 CURVE SMOOTH",
"39 131 OFFCURVE",
"144 -10 OFFCURVE",
"345 -10 CURVE SMOOTH"
);
},
{
closed = 1;
nodes = (
"285 442 OFFCURVE",
"156 420 OFFCURVE",
"78 399 CURVE",
"93 234 LINE",
"131 234 OFFCURVE",
"180 269 OFFCURVE",
"266 269 CURVE SMOOTH",
"318 269 OFFCURVE",
"371 264 OFFCURVE",
"415 264 CURVE SMOOTH",
"459 264 OFFCURVE",
"477 290 OFFCURVE",
"478 329 CURVE SMOOTH",
"479 375 OFFCURVE",
"445 412 OFFCURVE",
"386 423 CURVE SMOOTH"
);
}
);
vertWidth = 0;
width = 621;
}
);
unicode = 0404;
},
{
color = (187,132,254,255);
glyphname = Ljecyr;
layers = (
{
layerId = "DC44E50C-9AA1-421C-802C-D4D023281425";
paths = (
{
closed = 1;
nodes = (
"589 374 OFFCURVE",
"546 561 OFFCURVE",
"512 636 CURVE SMOOTH",
"484 699 OFFCURVE",
"448 712 OFFCURVE",
"400 712 CURVE SMOOTH",
"353 712 OFFCURVE",
"296 686 OFFCURVE",
"257 629 CURVE SMOOTH",
"232 593 OFFCURVE",
"169 448 OFFCURVE",
"120 313 CURVE SMOOTH",
"83 211 OFFCURVE",
"21 121 OFFCURVE",
"21 68 CURVE SMOOTH",
"21 28 OFFCURVE",
"59 -17 OFFCURVE",
"107 -17 CURVE SMOOTH",
"140 -17 OFFCURVE",
"156 -7 OFFCURVE",
"175 19 CURVE SMOOTH",
"205 61 OFFCURVE",
"245 150 OFFCURVE",
"282 257 CURVE SMOOTH",
"321 369 OFFCURVE",
"351 477 OFFCURVE",
"386 515 CURVE",
"368 525 LINE",
"394 452 OFFCURVE",
"410 391 OFFCURVE",
"444 257 CURVE SMOOTH",
"485 96 OFFCURVE",
"541 -19 OFFCURVE",
"707 -19 CURVE SMOOTH",
"895 -19 OFFCURVE",
"1030 163 OFFCURVE",
"1030 300 CURVE SMOOTH",
"1030 415 OFFCURVE",
"936 489 OFFCURVE",
"796 489 CURVE SMOOTH",
"689 489 OFFCURVE",
"613 459 OFFCURVE",
"508 406 CURVE",
"577 278 LINE",
"658 320 OFFCURVE",
"714 333 OFFCURVE",
"782 333 CURVE SMOOTH",
"819 333 OFFCURVE",
"856 309 OFFCURVE",
"856 277 CURVE SMOOTH",
"856 211 OFFCURVE",
"781 148 OFFCURVE",
"717 148 CURVE SMOOTH",
"653 148 OFFCURVE",
"620 247 OFFCURVE",
"601 325 CURVE SMOOTH"
);
}
);
vertWidth = 0;
width = 1069;
},
{
layerId = "0A0D3988-4955-4F5A-8D07-882FAAFF61A2";
paths = (
{
closed = 1;
nodes = (
"589 374 OFFCURVE",
"546 561 OFFCURVE",
"512 636 CURVE SMOOTH",
"484 699 OFFCURVE",
"448 712 OFFCURVE",
"400 712 CURVE SMOOTH",
"353 712 OFFCURVE",
"296 686 OFFCURVE",
"257 629 CURVE SMOOTH",
"232 593 OFFCURVE",
"169 448 OFFCURVE",
"120 313 CURVE SMOOTH",
"83 211 OFFCURVE",
"21 121 OFFCURVE",
"21 68 CURVE SMOOTH",
"21 28 OFFCURVE",
"59 -17 OFFCURVE",
"107 -17 CURVE SMOOTH",
"140 -17 OFFCURVE",
"156 -7 OFFCURVE",
"175 19 CURVE SMOOTH",
"205 61 OFFCURVE",
"245 150 OFFCURVE",
"282 257 CURVE SMOOTH",
"321 369 OFFCURVE",
"351 477 OFFCURVE",
"386 515 CURVE",
"368 525 LINE",
"394 452 OFFCURVE",
"410 391 OFFCURVE",
"444 257 CURVE SMOOTH",
"485 96 OFFCURVE",
"541 -19 OFFCURVE",
"707 -19 CURVE SMOOTH",
"895 -19 OFFCURVE",
"1030 163 OFFCURVE",
"1030 300 CURVE SMOOTH",
"1030 415 OFFCURVE",
"936 489 OFFCURVE",
"796 489 CURVE SMOOTH",
"689 489 OFFCURVE",
"613 459 OFFCURVE",
"508 406 CURVE",
"577 278 LINE",
"658 320 OFFCURVE",
"714 333 OFFCURVE",
"782 333 CURVE SMOOTH",
"819 333 OFFCURVE",
"856 309 OFFCURVE",
"856 277 CURVE SMOOTH",
"856 211 OFFCURVE",
"781 148 OFFCURVE",
"717 148 CURVE SMOOTH",
"653 148 OFFCURVE",
"620 247 OFFCURVE",
"601 325 CURVE SMOOTH"
);
}
);
vertWidth = 0;
width = 1069;
},
{
associatedMasterId = "DC44E50C-9AA1-421C-802C-D4D023281425";
layerId = "F4611540-3197-4F54-8096-00BFDC793AF4";
name = bg;
paths = (
{
closed = 1;
nodes = (
"589 374 OFFCURVE",
"546 561 OFFCURVE",
"512 636 CURVE SMOOTH",
"484 699 OFFCURVE",
"448 712 OFFCURVE",
"400 712 CURVE SMOOTH",
"353 712 OFFCURVE",
"296 686 OFFCURVE",
"257 629 CURVE SMOOTH",
"232 593 OFFCURVE",
"169 448 OFFCURVE",
"120 313 CURVE SMOOTH",
"83 211 OFFCURVE",
"21 121 OFFCURVE",
"21 68 CURVE SMOOTH",
"21 28 OFFCURVE",
"59 -17 OFFCURVE",
"107 -17 CURVE SMOOTH",
"140 -17 OFFCURVE",
"156 -7 OFFCURVE",
"175 19 CURVE SMOOTH",
"205 61 OFFCURVE",
"245 150 OFFCURVE",
"282 257 CURVE SMOOTH",
"321 369 OFFCURVE",
"351 477 OFFCURVE",
"386 515 CURVE",
"368 525 LINE",
"394 452 OFFCURVE",
"410 391 OFFCURVE",
"444 257 CURVE SMOOTH",
"485 96 OFFCURVE",
"541 -19 OFFCURVE",
"707 -19 CURVE SMOOTH",
"895 -19 OFFCURVE",
"1030 163 OFFCURVE",
"1030 300 CURVE SMOOTH",
"1030 415 OFFCURVE",
"936 487 OFFCURVE",
"796 489 CURVE SMOOTH",
"698 490 OFFCURVE",
"629 475 OFFCURVE",
"508 422 CURVE",
"579 298 LINE",
"647 326 OFFCURVE",
"724 333 OFFCURVE",
"782 333 CURVE SMOOTH",
"819 333 OFFCURVE",
"856 309 OFFCURVE",
"856 277 CURVE SMOOTH",
"856 211 OFFCURVE",
"781 148 OFFCURVE",
"717 148 CURVE SMOOTH",
"653 148 OFFCURVE",
"620 247 OFFCURVE",
"601 325 CURVE SMOOTH"
);
}
);
vertWidth = 0;
width = 1069;
},
{
associatedMasterId = "0A0D3988-4955-4F5A-8D07-882FAAFF61A2";
layerId = "ADC10612-3811-419D-8CC2-B873B9C5D2A1";
name = bg;
paths = (
{
closed = 1;
nodes = (
"589 374 OFFCURVE",
"546 561 OFFCURVE",
"512 636 CURVE SMOOTH",
"484 699 OFFCURVE",
"448 712 OFFCURVE",
"400 712 CURVE SMOOTH",
"353 712 OFFCURVE",
"296 686 OFFCURVE",
"257 629 CURVE SMOOTH",
"232 593 OFFCURVE",
"169 448 OFFCURVE",
"120 313 CURVE SMOOTH",
"83 211 OFFCURVE",
"21 121 OFFCURVE",
"21 68 CURVE SMOOTH",
"21 28 OFFCURVE",
"59 -17 OFFCURVE",
"107 -17 CURVE SMOOTH",
"140 -17 OFFCURVE",
"156 -7 OFFCURVE",
"175 19 CURVE SMOOTH",
"205 61 OFFCURVE",
"245 150 OFFCURVE",
"282 257 CURVE SMOOTH",
"321 369 OFFCURVE",
"351 477 OFFCURVE",
"386 515 CURVE",
"368 525 LINE",
"394 452 OFFCURVE",
"410 391 OFFCURVE",
"444 257 CURVE SMOOTH",
"485 96 OFFCURVE",
"541 -19 OFFCURVE",
"707 -19 CURVE SMOOTH",
"895 -19 OFFCURVE",
"1030 163 OFFCURVE",
"1030 300 CURVE SMOOTH",
"1030 415 OFFCURVE",
"936 487 OFFCURVE",
"796 489 CURVE SMOOTH",
"698 490 OFFCURVE",
"629 475 OFFCURVE",
"508 422 CURVE",
"579 298 LINE",
"647 326 OFFCURVE",
"724 333 OFFCURVE",
"782 333 CURVE SMOOTH",
"819 333 OFFCURVE",
"856 309 OFFCURVE",
"856 277 CURVE SMOOTH",
"856 211 OFFCURVE",
"781 148 OFFCURVE",
"717 148 CURVE SMOOTH",
"653 148 OFFCURVE",
"620 247 OFFCURVE",
"601 325 CURVE SMOOTH"
);
}
);
vertWidth = 0;
width = 1069;
}
);
unicode = 0409;
},
{
color = (187,132,254,255);
glyphname = Njecyr;
layers = (
{
layerId = "DC44E50C-9AA1-421C-802C-D4D023281425";
paths = (
{
closed = 1;
nodes = (
"237 -12 OFFCURVE",
"266 15 OFFCURVE",
"266 61 CURVE SMOOTH",
"266 193 OFFCURVE",
"262 385 OFFCURVE",
"262 580 CURVE SMOOTH",
"262 670 OFFCURVE",
"218 709 OFFCURVE",
"157 709 CURVE SMOOTH",
"99 709 OFFCURVE",
"73 681 OFFCURVE",
"73 612 CURVE SMOOTH",
"73 558 OFFCURVE",
"89 259 OFFCURVE",
"81 119 CURVE SMOOTH",
"76 31 OFFCURVE",
"125 -12 OFFCURVE",
"191 -12 CURVE SMOOTH"
);
},
{
closed = 1;
nodes = (
"666 313 OFFCURVE",
"733 313 OFFCURVE",
"791 313 CURVE SMOOTH",
"828 313 OFFCURVE",
"844 295 OFFCURVE",
"844 274 CURVE SMOOTH",
"844 208 OFFCURVE",
"768 148 OFFCURVE",
"704 148 CURVE SMOOTH",
"617 148 OFFCURVE",
"622 220 OFFCURVE",
"622 291 CURVE SMOOTH",
"622 365 OFFCURVE",
"637 509 OFFCURVE",
"637 598 CURVE SMOOTH",
"637 674 OFFCURVE",
"589 709 OFFCURVE",
"531 709 CURVE SMOOTH",
"480 709 OFFCURVE",
"460 684 OFFCURVE",
"460 641 CURVE SMOOTH",
"460 611 OFFCURVE",
"470 579 OFFCURVE",
"470 545 CURVE SMOOTH",
"470 468 OFFCURVE",
"455 374 OFFCURVE",
"455 274 CURVE SMOOTH",
"455 128 OFFCURVE",
"502 -19 OFFCURVE",
"694 -19 CURVE SMOOTH",
"849 -19 OFFCURVE",
"1017 147 OFFCURVE",
"1017 284 CURVE SMOOTH",
"1017 399 OFFCURVE",
"947 473 OFFCURVE",
"807 473 CURVE SMOOTH",
"726 473 OFFCURVE",
"615 461 OFFCURVE",
"520 453 CURVE SMOOTH",
"396 443 OFFCURVE",
"157 428 OFFCURVE",
"67 404 CURVE SMOOTH",
"39 396 OFFCURVE",
"33 380 OFFCURVE",
"33 355 CURVE SMOOTH",
"33 304 OFFCURVE",
"69 261 OFFCURVE",
"195 261 CURVE SMOOTH",
"256 261 OFFCURVE",
"484 293 OFFCURVE",
"567 302 CURVE SMOOTH"
);
}
);
vertWidth = 0;
width = 1027;
},
{
layerId = "0A0D3988-4955-4F5A-8D07-882FAAFF61A2";
paths = (
{
closed = 1;
nodes = (
"237 -12 OFFCURVE",
"266 15 OFFCURVE",
"266 61 CURVE SMOOTH",
"266 193 OFFCURVE",
"262 385 OFFCURVE",
"262 580 CURVE SMOOTH",
"262 670 OFFCURVE",
"218 709 OFFCURVE",
"157 709 CURVE SMOOTH",
"99 709 OFFCURVE",
"73 681 OFFCURVE",
"73 612 CURVE SMOOTH",
"73 558 OFFCURVE",
"89 259 OFFCURVE",
"81 119 CURVE SMOOTH",
"76 31 OFFCURVE",
"125 -12 OFFCURVE",
"191 -12 CURVE SMOOTH"
);
},
{
closed = 1;
nodes = (
"666 313 OFFCURVE",
"733 313 OFFCURVE",
"791 313 CURVE SMOOTH",
"828 313 OFFCURVE",
"844 295 OFFCURVE",
"844 274 CURVE SMOOTH",
"844 208 OFFCURVE",
"768 148 OFFCURVE",
"704 148 CURVE SMOOTH",
"617 148 OFFCURVE",
"622 220 OFFCURVE",
"622 291 CURVE SMOOTH",
"622 365 OFFCURVE",
"637 509 OFFCURVE",
"637 598 CURVE SMOOTH",
"637 674 OFFCURVE",
"589 709 OFFCURVE",
"531 709 CURVE SMOOTH",
"480 709 OFFCURVE",
"460 684 OFFCURVE",
"460 641 CURVE SMOOTH",
"460 611 OFFCURVE",
"470 579 OFFCURVE",
"470 545 CURVE SMOOTH",
"470 468 OFFCURVE",
"455 374 OFFCURVE",
"455 274 CURVE SMOOTH",
"455 128 OFFCURVE",
"502 -19 OFFCURVE",
"694 -19 CURVE SMOOTH",
"849 -19 OFFCURVE",
"1017 147 OFFCURVE",
"1017 284 CURVE SMOOTH",
"1017 399 OFFCURVE",
"947 473 OFFCURVE",
"807 473 CURVE SMOOTH",
"726 473 OFFCURVE",
"615 461 OFFCURVE",
"520 453 CURVE SMOOTH",
"396 443 OFFCURVE",
"157 428 OFFCURVE",
"67 404 CURVE SMOOTH",
"39 396 OFFCURVE",
"33 380 OFFCURVE",
"33 355 CURVE SMOOTH",
"33 304 OFFCURVE",
"69 261 OFFCURVE",
"195 261 CURVE SMOOTH",
"256 261 OFFCURVE",
"484 293 OFFCURVE",
"567 302 CURVE SMOOTH"
);
}
);
vertWidth = 0;
width = 1027;
}
);
unicode = 040A;
},
{
color = (187,132,254,255);
glyphname = Tshecyr;
layers = (
{
layerId = "DC44E50C-9AA1-421C-802C-D4D023281425";
paths = (
{
closed = 1;
nodes = (
"237 532 OFFCURVE",
"352 532 OFFCURVE",
"459 532 CURVE SMOOTH",
"556 532 OFFCURVE",
"627 566 OFFCURVE",
"627 649 CURVE SMOOTH",
"627 686 OFFCURVE",
"607 711 OFFCURVE",
"565 711 CURVE SMOOTH",
"502 711 OFFCURVE",
"433 700 OFFCURVE",
"369 700 CURVE SMOOTH",
"277 700 OFFCURVE",
"169 710 OFFCURVE",
"68 710 CURVE SMOOTH",
"30 710 OFFCURVE",
"15 683 OFFCURVE",
"15 651 CURVE SMOOTH",
"15 585 OFFCURVE",
"42 551 OFFCURVE",
"126 543 CURVE SMOOTH"
);
},
{
closed = 1;
nodes = (
"354 261 OFFCURVE",
"339 344 OFFCURVE",
"357 514 CURVE SMOOTH",
"366 602 OFFCURVE",
"335 640 OFFCURVE",
"252 640 CURVE SMOOTH",
"211 640 OFFCURVE",
"183 610 OFFCURVE",
"180 568 CURVE SMOOTH",
"156 286 OFFCURVE",
"153 195 OFFCURVE",
"182 85 CURVE SMOOTH",
"205 10 OFFCURVE",
"245 -10 OFFCURVE",
"290 -10 CURVE SMOOTH",
"324 -10 OFFCURVE",
"348 4 OFFCURVE",
"377 61 CURVE SMOOTH",
"431 166 OFFCURVE",
"492 219 OFFCURVE",
"542 252 CURVE",
"557 222 OFFCURVE",
"565 182 OFFCURVE",
"574 143 CURVE SMOOTH",
"595 51 OFFCURVE",
"618 -12 OFFCURVE",
"697 -12 CURVE SMOOTH",
"747 -12 OFFCURVE",
"777 10 OFFCURVE",
"777 45 CURVE SMOOTH",
"777 65 OFFCURVE",
"772 86 OFFCURVE",
"764 109 CURVE SMOOTH",
"752 142 OFFCURVE",
"743 202 OFFCURVE",
"730 283 CURVE SMOOTH",
"719 351 OFFCURVE",
"679 428 OFFCURVE",
"559 428 CURVE SMOOTH",
"476 428 OFFCURVE",
"383 355 OFFCURVE",
"328 257 CURVE",
"354 192 LINE"
);
}
);
vertWidth = 0;
width = 816;
},
{
layerId = "0A0D3988-4955-4F5A-8D07-882FAAFF61A2";
paths = (
{
closed = 1;
nodes = (
"237 532 OFFCURVE",
"352 532 OFFCURVE",
"459 532 CURVE SMOOTH",
"556 532 OFFCURVE",
"627 566 OFFCURVE",
"627 649 CURVE SMOOTH",
"627 686 OFFCURVE",
"607 711 OFFCURVE",
"565 711 CURVE SMOOTH",
"502 711 OFFCURVE",
"433 700 OFFCURVE",
"369 700 CURVE SMOOTH",
"277 700 OFFCURVE",
"169 710 OFFCURVE",
"68 710 CURVE SMOOTH",
"30 710 OFFCURVE",
"15 683 OFFCURVE",
"15 651 CURVE SMOOTH",
"15 585 OFFCURVE",
"42 551 OFFCURVE",
"126 543 CURVE SMOOTH"
);
},
{
closed = 1;
nodes = (
"354 261 OFFCURVE",
"339 344 OFFCURVE",
"357 514 CURVE SMOOTH",
"366 602 OFFCURVE",
"335 640 OFFCURVE",
"252 640 CURVE SMOOTH",
"211 640 OFFCURVE",
"183 610 OFFCURVE",
"180 568 CURVE SMOOTH",
"156 286 OFFCURVE",
"153 195 OFFCURVE",
"182 85 CURVE SMOOTH",
"205 10 OFFCURVE",
"245 -10 OFFCURVE",
"290 -10 CURVE SMOOTH",
"324 -10 OFFCURVE",
"348 4 OFFCURVE",
"377 61 CURVE SMOOTH",
"431 166 OFFCURVE",
"492 219 OFFCURVE",
"542 252 CURVE",
"557 222 OFFCURVE",
"565 182 OFFCURVE",
"574 143 CURVE SMOOTH",
"595 51 OFFCURVE",
"618 -12 OFFCURVE",
"697 -12 CURVE SMOOTH",
"747 -12 OFFCURVE",
"777 10 OFFCURVE",
"777 45 CURVE SMOOTH",
"777 65 OFFCURVE",
"772 86 OFFCURVE",
"764 109 CURVE SMOOTH",
"752 142 OFFCURVE",
"743 202 OFFCURVE",
"730 283 CURVE SMOOTH",
"719 351 OFFCURVE",
"679 428 OFFCURVE",
"559 428 CURVE SMOOTH",
"476 428 OFFCURVE",
"383 355 OFFCURVE",
"328 257 CURVE",
"354 192 LINE"
);
}
);
vertWidth = 0;
width = 816;
},
{
associatedMasterId = "DC44E50C-9AA1-421C-802C-D4D023281425";
layerId = "091D8DB6-003D-4A3E-A4A9-C46478FB6359";
name = bg;
paths = (
{
closed = 1;
nodes = (
"234 532 OFFCURVE",
"338 532 OFFCURVE",
"474 532 CURVE SMOOTH",
"542 532 OFFCURVE",
"613 566 OFFCURVE",
"613 649 CURVE SMOOTH",
"613 686 OFFCURVE",
"593 711 OFFCURVE",
"551 711 CURVE SMOOTH",
"468 711 OFFCURVE",
"419 700 OFFCURVE",
"355 700 CURVE SMOOTH",
"263 700 OFFCURVE",
"178 710 OFFCURVE",
"65 710 CURVE SMOOTH",
"27 710 OFFCURVE",
"12 683 OFFCURVE",
"12 651 CURVE SMOOTH",
"12 585 OFFCURVE",
"39 551 OFFCURVE",
"123 543 CURVE SMOOTH"
);
},
{
closed = 1;
nodes = (
"391 261 OFFCURVE",
"376 344 OFFCURVE",
"394 514 CURVE SMOOTH",
"403 602 OFFCURVE",
"372 640 OFFCURVE",
"289 640 CURVE SMOOTH",
"248 640 OFFCURVE",
"220 610 OFFCURVE",
"217 568 CURVE SMOOTH",
"193 286 OFFCURVE",
"190 195 OFFCURVE",
"219 85 CURVE SMOOTH",
"242 10 OFFCURVE",
"282 -10 OFFCURVE",
"327 -10 CURVE SMOOTH",
"361 -10 OFFCURVE",
"385 4 OFFCURVE",
"414 61 CURVE SMOOTH",
"468 166 OFFCURVE",
"529 219 OFFCURVE",
"579 252 CURVE",
"594 222 OFFCURVE",
"602 182 OFFCURVE",
"611 143 CURVE SMOOTH",
"632 51 OFFCURVE",
"655 -12 OFFCURVE",
"734 -12 CURVE SMOOTH",
"784 -12 OFFCURVE",
"814 10 OFFCURVE",
"814 45 CURVE SMOOTH",
"814 65 OFFCURVE",
"809 86 OFFCURVE",
"801 109 CURVE SMOOTH",
"789 142 OFFCURVE",
"780 202 OFFCURVE",
"767 283 CURVE SMOOTH",
"756 351 OFFCURVE",
"716 428 OFFCURVE",
"596 428 CURVE SMOOTH",
"513 428 OFFCURVE",
"420 355 OFFCURVE",
"365 257 CURVE",
"391 192 LINE"
);
}
);
vertWidth = 0;
width = 853;
},
{
associatedMasterId = "0A0D3988-4955-4F5A-8D07-882FAAFF61A2";
layerId = "6F542A7E-C26E-4C90-B4F7-4FEFF0799CC3";
name = bg;
paths = (
{
closed = 1;
nodes = (
"234 532 OFFCURVE",
"338 532 OFFCURVE",
"474 532 CURVE SMOOTH",
"542 532 OFFCURVE",
"613 566 OFFCURVE",
"613 649 CURVE SMOOTH",
"613 686 OFFCURVE",
"593 711 OFFCURVE",
"551 711 CURVE SMOOTH",
"468 711 OFFCURVE",
"419 700 OFFCURVE",
"355 700 CURVE SMOOTH",
"263 700 OFFCURVE",
"178 710 OFFCURVE",
"65 710 CURVE SMOOTH",
"27 710 OFFCURVE",
"12 683 OFFCURVE",
"12 651 CURVE SMOOTH",
"12 585 OFFCURVE",
"39 551 OFFCURVE",
"123 543 CURVE SMOOTH"
);
},
{
closed = 1;
nodes = (
"391 261 OFFCURVE",
"376 344 OFFCURVE",
"394 514 CURVE SMOOTH",
"403 602 OFFCURVE",
"372 640 OFFCURVE",
"289 640 CURVE SMOOTH",
"248 640 OFFCURVE",
"220 610 OFFCURVE",
"217 568 CURVE SMOOTH",
"193 286 OFFCURVE",
"190 195 OFFCURVE",
"219 85 CURVE SMOOTH",
"242 10 OFFCURVE",
"282 -10 OFFCURVE",
"327 -10 CURVE SMOOTH",
"361 -10 OFFCURVE",
"385 4 OFFCURVE",
"414 61 CURVE SMOOTH",
"468 166 OFFCURVE",
"529 219 OFFCURVE",
"579 252 CURVE",
"594 222 OFFCURVE",
"602 182 OFFCURVE",
"611 143 CURVE SMOOTH",
"632 51 OFFCURVE",
"655 -12 OFFCURVE",
"734 -12 CURVE SMOOTH",
"784 -12 OFFCURVE",
"814 10 OFFCURVE",
"814 45 CURVE SMOOTH",
"814 65 OFFCURVE",
"809 86 OFFCURVE",
"801 109 CURVE SMOOTH",
"789 142 OFFCURVE",
"780 202 OFFCURVE",
"767 283 CURVE SMOOTH",
"756 351 OFFCURVE",
"716 428 OFFCURVE",
"596 428 CURVE SMOOTH",
"513 428 OFFCURVE",
"420 355 OFFCURVE",
"365 257 CURVE",
"391 192 LINE"
);
}
);
vertWidth = 0;
width = 853;
}
);
unicode = 040B;
},
{
color = (187,132,254,255);
glyphname = Dzhecyr;
layers = (
{
layerId = "DC44E50C-9AA1-421C-802C-D4D023281425";
paths = (
{
closed = 1;
nodes = (
"420 -173 OFFCURVE",
"400 -197 OFFCURVE",
"356 -197 CURVE SMOOTH",
"307 -197 OFFCURVE",
"284 -161 OFFCURVE",
"284 -123 CURVE SMOOTH",
"284 -66 OFFCURVE",
"355 42 OFFCURVE",
"407 42 CURVE SMOOTH",
"445 42 OFFCURVE",
"469 12 OFFCURVE",
"469 -14 CURVE SMOOTH",
"469 -39 OFFCURVE",
"444 -92 OFFCURVE",
"432 -132 CURVE SMOOTH"
);
},
{
closed = 1;
nodes = (
"237 514 OFFCURVE",
"225 431 OFFCURVE",
"225 325 CURVE SMOOTH",
"225 254 OFFCURVE",
"229 178 OFFCURVE",
"242 178 CURVE SMOOTH",
"287 178 OFFCURVE",
"337 293 OFFCURVE",
"370 381 CURVE SMOOTH",
"417 506 OFFCURVE",
"444 589 OFFCURVE",
"461 626 CURVE SMOOTH",
"484 675 OFFCURVE",
"515 716 OFFCURVE",
"573 716 CURVE SMOOTH",
"616 716 OFFCURVE",
"658 687 OFFCURVE",
"658 632 CURVE SMOOTH",
"658 591 OFFCURVE",
"662 430 OFFCURVE",
"662 348 CURVE SMOOTH",
"662 214 OFFCURVE",
"697 95 OFFCURVE",
"697 65 CURVE SMOOTH",
"697 24 OFFCURVE",
"670 -12 OFFCURVE",
"621 -12 CURVE SMOOTH",
"560 -12 OFFCURVE",
"528 32 OFFCURVE",
"518 78 CURVE SMOOTH",
"500 164 OFFCURVE",
"494 270 OFFCURVE",
"494 345 CURVE SMOOTH",
"494 448 OFFCURVE",
"491 577 OFFCURVE",
"491 577 CURVE",
"562 595 LINE",
"562 595 OFFCURVE",
"538 437 OFFCURVE",
"492 306 CURVE SMOOTH",
"425 117 OFFCURVE",
"308 -11 OFFCURVE",
"203 -11 CURVE SMOOTH",
"105 -11 OFFCURVE",
"57 91 OFFCURVE",
"57 214 CURVE SMOOTH",
"57 339 OFFCURVE",
"68 517 OFFCURVE",
"67 621 CURVE SMOOTH",
"67 668 OFFCURVE",
"86 716 OFFCURVE",
"132 716 CURVE SMOOTH",
"193 716 OFFCURVE",
"237 675 OFFCURVE",
"237 610 CURVE SMOOTH"
);
}
);
vertWidth = 0;
width = 719;
},
{
layerId = "0A0D3988-4955-4F5A-8D07-882FAAFF61A2";
paths = (
{
closed = 1;
nodes = (
"420 -173 OFFCURVE",
"400 -197 OFFCURVE",
"356 -197 CURVE SMOOTH",
"307 -197 OFFCURVE",
"284 -161 OFFCURVE",
"284 -123 CURVE SMOOTH",
"284 -66 OFFCURVE",
"355 42 OFFCURVE",
"407 42 CURVE SMOOTH",
"445 42 OFFCURVE",
"469 12 OFFCURVE",
"469 -14 CURVE SMOOTH",
"469 -39 OFFCURVE",
"444 -92 OFFCURVE",
"432 -132 CURVE SMOOTH"
);
},
{
closed = 1;
nodes = (
"237 514 OFFCURVE",
"225 431 OFFCURVE",
"225 325 CURVE SMOOTH",
"225 254 OFFCURVE",
"229 178 OFFCURVE",
"242 178 CURVE SMOOTH",
"287 178 OFFCURVE",
"337 293 OFFCURVE",
"370 381 CURVE SMOOTH",
"417 506 OFFCURVE",
"444 589 OFFCURVE",
"461 626 CURVE SMOOTH",
"484 675 OFFCURVE",
"515 716 OFFCURVE",
"573 716 CURVE SMOOTH",
"616 716 OFFCURVE",
"658 687 OFFCURVE",
"658 632 CURVE SMOOTH",
"658 591 OFFCURVE",
"662 430 OFFCURVE",
"662 348 CURVE SMOOTH",
"662 214 OFFCURVE",
"697 95 OFFCURVE",
"697 65 CURVE SMOOTH",
"697 24 OFFCURVE",
"670 -12 OFFCURVE",
"621 -12 CURVE SMOOTH",
"560 -12 OFFCURVE",
"528 32 OFFCURVE",
"518 78 CURVE SMOOTH",
"500 164 OFFCURVE",
"494 270 OFFCURVE",
"494 345 CURVE SMOOTH",
"494 448 OFFCURVE",
"491 577 OFFCURVE",
"491 577 CURVE",
"562 595 LINE",
"562 595 OFFCURVE",
"538 437 OFFCURVE",
"492 306 CURVE SMOOTH",
"425 117 OFFCURVE",
"308 -11 OFFCURVE",
"203 -11 CURVE SMOOTH",
"105 -11 OFFCURVE",
"57 91 OFFCURVE",
"57 214 CURVE SMOOTH",
"57 339 OFFCURVE",
"68 517 OFFCURVE",
"67 621 CURVE SMOOTH",
"67 668 OFFCURVE",
"86 716 OFFCURVE",
"132 716 CURVE SMOOTH",
"193 716 OFFCURVE",
"237 675 OFFCURVE",
"237 610 CURVE SMOOTH"
);
}
);
vertWidth = 0;
width = 719;
},
{
associatedMasterId = "DC44E50C-9AA1-421C-802C-D4D023281425";
layerId = "E7BDAD58-BA8A-484F-BA24-15004E116C39";
name = bg;
paths = (
{
closed = 1;
nodes = (
"245 645 OFFCURVE",
"203 714 OFFCURVE",
"148 714 CURVE SMOOTH",
"114 714 OFFCURVE",
"84 695 OFFCURVE",
"73 650 CURVE SMOOTH",
"56 577 OFFCURVE",
"32 320 OFFCURVE",
"50 193 CURVE SMOOTH",
"66 82 OFFCURVE",
"144 -10 OFFCURVE",
"330 -10 CURVE SMOOTH",
"501 -10 OFFCURVE",
"599 55 OFFCURVE",
"634 171 CURVE SMOOTH",
"670 291 OFFCURVE",
"644 558 OFFCURVE",
"624 641 CURVE SMOOTH",
"613 687 OFFCURVE",
"593 713 OFFCURVE",
"546 713 CURVE SMOOTH",
"495 713 OFFCURVE",
"447 661 OFFCURVE",
"454 615 CURVE SMOOTH",
"464 543 OFFCURVE",
"503 326 OFFCURVE",
"468 228 CURVE SMOOTH",
"452 183 OFFCURVE",
"416.667 161 OFFCURVE",
"350 161 CURVE SMOOTH",
"267.421 161 OFFCURVE",
"226 196 OFFCURVE",
"226 256 CURVE SMOOTH",
"226 385 OFFCURVE",
"245 515 OFFCURVE",
"245 596 CURVE SMOOTH"
);
},
{
closed = 1;
nodes = (
"285 135 OFFCURVE",
"273 77 OFFCURVE",
"273 34 CURVE SMOOTH",
"273 -40 OFFCURVE",
"257 -100 OFFCURVE",
"257 -132 CURVE SMOOTH",
"257 -171 OFFCURVE",
"277 -197 OFFCURVE",
"326 -197 CURVE SMOOTH",
"405 -197 OFFCURVE",
"440 -130 OFFCURVE",
"440 -47 CURVE SMOOTH",
"440 90 OFFCURVE",
"432 135 OFFCURVE",
"335 135 CURVE SMOOTH"
);
}
);
vertWidth = 0;
width = 706;
},
{
associatedMasterId = "0A0D3988-4955-4F5A-8D07-882FAAFF61A2";
layerId = "B6D740A5-4D0B-4D9D-80F3-31EB1BC8A759";
name = bg;
paths = (
{
closed = 1;
nodes = (
"245 645 OFFCURVE",
"203 714 OFFCURVE",
"148 714 CURVE SMOOTH",
"114 714 OFFCURVE",
"84 695 OFFCURVE",
"73 650 CURVE SMOOTH",
"56 577 OFFCURVE",
"32 320 OFFCURVE",
"50 193 CURVE SMOOTH",
"66 82 OFFCURVE",
"144 -10 OFFCURVE",
"330 -10 CURVE SMOOTH",
"501 -10 OFFCURVE",
"599 55 OFFCURVE",
"634 171 CURVE SMOOTH",
"670 291 OFFCURVE",
"644 558 OFFCURVE",
"624 641 CURVE SMOOTH",
"613 687 OFFCURVE",
"593 713 OFFCURVE",
"546 713 CURVE SMOOTH",
"495 713 OFFCURVE",
"447 661 OFFCURVE",
"454 615 CURVE SMOOTH",
"464 543 OFFCURVE",
"503 326 OFFCURVE",
"468 228 CURVE SMOOTH",
"452 183 OFFCURVE",
"416.667 161 OFFCURVE",
"350 161 CURVE SMOOTH",
"267.421 161 OFFCURVE",
"226 196 OFFCURVE",
"226 256 CURVE SMOOTH",
"226 385 OFFCURVE",
"245 515 OFFCURVE",
"245 596 CURVE SMOOTH"
);
},
{
closed = 1;
nodes = (
"285 135 OFFCURVE",
"273 77 OFFCURVE",
"273 34 CURVE SMOOTH",
"273 -40 OFFCURVE",
"257 -100 OFFCURVE",
"257 -132 CURVE SMOOTH",
"257 -171 OFFCURVE",
"277 -197 OFFCURVE",
"326 -197 CURVE SMOOTH",
"405 -197 OFFCURVE",
"440 -130 OFFCURVE",
"440 -47 CURVE SMOOTH",
"440 90 OFFCURVE",
"432 135 OFFCURVE",
"335 135 CURVE SMOOTH"
);
}
);
vertWidth = 0;
width = 706;
}
);
unicode = 040F;
},
